<svg viewBox="0 0 73 73" fill="currentColor"><path d="M36.5 67.786a24.795 24.795 0 0 0 24.768-24.768V29.982a24.768 24.768 0 0 0-49.536 0v13.036A24.795 24.795 0 0 0 36.5 67.786Zm-13.036-14.34a1.304 1.304 0 0 1-.212-2.588c7.478-1.247 11.945-6.128 11.945-13.054v-6.518a1.303 1.303 0 1 1 2.607 0v6.518c0 8.185-5.413 14.172-14.126 15.624-.07.013-.142.019-.214.018Zm15.643 7.822a4.793 4.793 0 0 1-2.607-.934 4.792 4.792 0 0 1-2.607.934 1.304 1.304 0 0 1 0-2.607 3.24 3.24 0 0 0 1.694-.926 1.304 1.304 0 0 1 1.84 0c.453.471 1.04.794 1.68.926a1.304 1.304 0 0 1 0 2.607Zm6.518-3.91a13.074 13.074 0 0 1-9.04-3.196 15.643 15.643 0 0 1-6.287 3.156 1.304 1.304 0 0 1-.63-2.529c1.792-.45 4.916-1.728 5.667-3.229a1.304 1.304 0 0 1 1.084-.72 1.277 1.277 0 0 1 1.166.577c.088.13 2.364 3.333 8.04 3.333a1.304 1.304 0 0 1 0 2.607Zm2.607-5.215c-4.432 0-7.451-1.564-8.995-4.632a1.303 1.303 0 0 1 2.334-1.165c1.08 2.147 3.256 3.19 6.661 3.19a1.304 1.304 0 0 1 0 2.607ZM36.5 9.125a22.186 22.186 0 0 1 22.16 22.16 1.304 1.304 0 0 1-2.606 0 19.553 19.553 0 0 0-39.108 0 1.304 1.304 0 0 1-2.607 0A22.186 22.186 0 0 1 36.5 9.126ZM14.34 36.5a1.304 1.304 0 0 1 1.303-1.304 4.17 4.17 0 0 0 3.91-3.91 16.946 16.946 0 0 1 33.893 0 4.17 4.17 0 0 0 3.911 3.91 1.304 1.304 0 0 1 0 2.608 6.778 6.778 0 0 1-6.518-6.518 14.34 14.34 0 1 0-28.678 0 6.779 6.779 0 0 1-6.518 6.518 1.304 1.304 0 0 1-1.304-1.304Zm1.303 6.518a1.303 1.303 0 0 1 1.303-1.304c4.172 0 7.822-4.264 7.822-9.125v-1.303a11.733 11.733 0 0 1 23.464 0v1.303c0 4.861 3.65 9.125 7.822 9.125a1.304 1.304 0 1 1 0 2.607c-5.556 0-10.429-5.482-10.429-11.732v-1.303a9.125 9.125 0 1 0-18.25 0v1.303c0 6.25-4.873 11.732-10.428 11.732a1.303 1.303 0 0 1-1.304-1.303Zm1.322 5.428a1.304 1.304 0 0 1 1.071-1.5A14.184 14.184 0 0 0 29.982 32.67v-1.32a6.518 6.518 0 0 1 13.036 0v1.32a14.184 14.184 0 0 0 11.946 14.277 1.304 1.304 0 0 1-.429 2.57A16.953 16.953 0 0 1 40.411 32.67v-1.32a3.91 3.91 0 0 0-7.822 0v1.32a16.953 16.953 0 0 1-14.125 16.847 1.298 1.298 0 0 1-1.5-1.071ZM1.304 73h11.732v-3.91H5.214a1.303 1.303 0 0 1-1.303-1.305v-7.82H0v11.731A1.303 1.303 0 0 0 1.304 73ZM1.304 0A1.304 1.304 0 0 0 0 1.304v11.732h3.91V5.214a1.304 1.304 0 0 1 1.304-1.303h7.822V0H1.304ZM73 13.036V1.304A1.303 1.303 0 0 0 71.696 0H59.964v3.91h7.822a1.303 1.303 0 0 1 1.303 1.304v7.822H73ZM71.696 73A1.303 1.303 0 0 0 73 71.696V59.964h-3.91v7.822a1.303 1.303 0 0 1-1.304 1.303h-7.822V73h11.732Z"/></svg>
