<svg viewBox="0 0 27 27" fill="currentColor"><path d="M24.3 0H2.7A2.708 2.708 0 0 0 0 2.7v21.6C0 25.785 1.215 27 2.7 27h21.6c1.485 0 2.7-1.215 2.7-2.7V2.7C27 1.215 25.785 0 24.3 0ZM8.1 22.95H4.05V10.8H8.1v12.15ZM6.075 8.505a2.42 2.42 0 0 1-2.43-2.43 2.42 2.42 0 0 1 2.43-2.43 2.42 2.42 0 0 1 2.43 2.43 2.42 2.42 0 0 1-2.43 2.43ZM22.95 22.95H18.9v-7.155c0-1.08-.945-2.025-2.025-2.025s-2.025.945-2.025 2.025v7.155H10.8V10.8h4.05v1.62c.675-1.08 2.16-1.89 3.375-1.89 2.565 0 4.725 2.16 4.725 4.725v7.695Z"/></svg>
