<svg viewBox="0 0 18 18" fill="currentColor"><path d="M9.046 0H9.03C4.07.003 0 4.017 0 8.965c0 1.21.241 2.388.716 3.502a9.164 9.164 0 0 0 4.817 4.817A8.873 8.873 0 0 0 9.035 18h.003C14.014 17.998 18 13.898 18 8.965 18 4.017 14 .005 9.046 0ZM7.288 1.246c-.899.853-1.634 1.851-2.187 2.973H2.655a8.004 8.004 0 0 1 4.633-2.973Zm-5.31 4.02H4.65a10.938 10.938 0 0 0-.643 3.171H1.073a7.832 7.832 0 0 1 .906-3.17Zm.02 7.46a7.921 7.921 0 0 1-.925-3.234h2.93c.05 1.107.27 2.202.647 3.234H2Zm.678 1.055h2.425a10.446 10.446 0 0 0 2.185 2.97 7.997 7.997 0 0 1-4.61-2.97ZM5.06 9.492h3.448v3.234h-2.72a9.699 9.699 0 0 1-.728-3.234Zm3.448 6.93a9.58 9.58 0 0 1-2.206-2.64h2.206v2.64Zm0-7.985H5.063a9.696 9.696 0 0 1 .725-3.164h2.72v3.164Zm0-4.218H6.303a9.58 9.58 0 0 1 2.205-2.641v2.64Zm7.521 1.054c.507.956.823 2.028.898 3.164h-2.864a10.892 10.892 0 0 0-.643-3.164h2.61Zm-.67-1.054h-2.39a10.448 10.448 0 0 0-2.182-2.969 7.928 7.928 0 0 1 4.572 2.969Zm-5.796-2.64a9.58 9.58 0 0 1 2.205 2.64H9.563v-2.64Zm0 3.694h2.72c.413.994.66 2.062.724 3.164H9.562V5.273Zm3.448 4.212a9.737 9.737 0 0 1-.728 3.242h-2.72V9.485h3.448Zm-3.448 6.937v-2.648h2.205a9.61 9.61 0 0 1-2.205 2.648Zm1.226.325a10.48 10.48 0 0 0 2.18-2.973h2.369a7.93 7.93 0 0 1-4.55 2.973Zm2.63-4.02a10.94 10.94 0 0 0 .648-3.242h2.86a8.008 8.008 0 0 1-.917 3.242h-2.59Z"/></svg>
