<svg xmlns="http://www.w3.org/2000/svg" width="31" height="39" fill="none"><path fill="#852E2C" d="M14.82 18.08c-2.37 0-4.23-3.23-4.23-7.35 0-4.12 1.86-7.35 4.23-7.35s4.23 3.23 4.23 7.35c0 4.12-1.86 7.35-4.23 7.35Zm0-13.71c-1.75 0-3.23 2.91-3.23 6.35 0 3.44 1.48 6.35 3.23 6.35s3.23-2.91 3.23-6.35c0-3.44-1.48-6.35-3.23-6.35Z"/><path fill="#FF5100" d="M20.53 6.45H9.09v1h11.44v-1ZM21.66 10.22H7.96v1h13.7v-1ZM20.54 13.99H9.09v1h11.45v-1Z"/><path fill="#852E2C" d="M15.32 3.87h-1v13.7h1V3.87Z"/><path fill="#852E2C" d="M14.82 18.08c-4.05 0-7.35-3.3-7.35-7.35s3.3-7.35 7.35-7.35 7.35 3.3 7.35 7.35-3.3 7.35-7.35 7.35Zm0-13.71c-3.5 0-6.35 2.85-6.35 6.35 0 3.5 2.85 6.35 6.35 6.35 3.5 0 6.35-2.85 6.35-6.35 0-3.5-2.85-6.35-6.35-6.35Z"/><path fill="#9D9D9C" d="M21.67 21.02H7.96c-.28 0-.5-.22-.5-.5s.22-.5.5-.5h13.71c.28 0 .5.22.5.5s-.22.5-.5.5ZM4.65 32.76c-.27 0-.5-.22-.5-.5s.22-.5.5-.5l12.39-.1c.27 0 .5.22.5.5s-.22.5-.5.5l-12.39.1Z"/><path fill="#010101" d="M16.17 29.14H4.31c-.28 0-.5-.22-.5-.5V.75c0-.28.22-.5.5-.5h20.12c.28 0 .5.22.5.5v22.14c0 .28-.22.5-.5.5s-.5-.22-.5-.5V1.25H4.82v26.88h11.36c.28 0 .5.22.5.5s-.22.5-.5.5l-.01.01Z"/><path fill="#010101" d="M1.38 31.64h-1V4.29C.38 2.06 2.19.25 4.42.25v1c-1.68 0-3.04 1.36-3.04 3.04v27.35Z"/><path fill="#010101" d="M19.37 36.2H4.35c-2.23 0-4.04-1.81-4.04-4.04s1.81-4.04 4.04-4.04h12.24v1H4.35c-1.68 0-3.04 1.36-3.04 3.04s1.36 3.04 3.04 3.04h15.02v1Z"/><path fill="#FF5100" d="m22.94 38.31-.42-.18c-6.32-2.61-6.84-7.51-6.84-12.72v-.75l7.27-2.91 7.27 2.91v.75c0 5.21-.52 10.11-6.84 12.72l-.42.18h-.02Zm-6.27-12.98v.08c0 5.05.47 9.42 6.23 11.8h.08c5.76-2.38 6.23-6.75 6.23-11.8v-.08l-6.27-2.51-6.27 2.51Z"/><path fill="#852E2C" d="m21.33 33.33-2.31-2.31c-.2-.2-.2-.51 0-.71.2-.2.51-.2.71 0l1.61 1.6 4.83-4.83c.2-.2.51-.2.71 0 .2.2.2.51 0 .71l-5.54 5.54h-.01Z"/></svg>