<svg xmlns="http://www.w3.org/2000/svg" width="53" height="45" fill="none"><path fill="#9D9D9C" d="M41.66 6.848H31.182a.64.64 0 0 1-.646-.647.64.64 0 0 1 .646-.646H41.66a.64.64 0 0 1 .647.646.64.64 0 0 1-.647.647ZM41.66 10.974H31.182a.64.64 0 0 1-.646-.647.64.64 0 0 1 .646-.646H41.66a.64.64 0 0 1 .647.646.64.64 0 0 1-.647.647ZM41.66 15.101H31.182a.64.64 0 0 1-.646-.647.64.64 0 0 1 .646-.646H41.66a.64.64 0 0 1 .647.646.64.64 0 0 1-.647.647ZM41.66 19.227H31.182a.64.64 0 0 1-.646-.647.64.64 0 0 1 .646-.646H41.66a.64.64 0 0 1 .647.646.64.64 0 0 1-.647.647ZM41.66 23.353H31.182a.64.64 0 0 1-.646-.647.64.64 0 0 1 .646-.646H41.66a.64.64 0 0 1 .647.646.64.64 0 0 1-.647.647ZM21.805 6.848H11.327a.64.64 0 0 1-.647-.647.64.64 0 0 1 .647-.646h10.478a.64.64 0 0 1 .646.646.64.64 0 0 1-.646.647ZM21.805 10.974H11.327a.64.64 0 0 1-.647-.647.64.64 0 0 1 .647-.646h10.478a.64.64 0 0 1 .646.646.64.64 0 0 1-.646.647ZM21.805 15.101H11.327a.64.64 0 0 1-.647-.647.64.64 0 0 1 .647-.646h10.478a.64.64 0 0 1 .646.646.64.64 0 0 1-.646.647ZM21.805 19.227H11.327a.64.64 0 0 1-.647-.647.64.64 0 0 1 .647-.646h10.478a.64.64 0 0 1 .646.646.64.64 0 0 1-.646.647ZM21.805 23.353H11.327a.64.64 0 0 1-.647-.647.64.64 0 0 1 .647-.646h10.478a.64.64 0 0 1 .646.646.64.64 0 0 1-.646.647Z"/><path fill="#852E2C" d="M50.546 32.227H2.454c-.945 0-1.72-.776-1.72-1.72V7.883c0-.944.776-1.72 1.72-1.72H6.49a.64.64 0 0 1 .646.647.64.64 0 0 1-.646.647H2.454a.43.43 0 0 0-.427.426v22.624a.43.43 0 0 0 .427.427h48.092a.43.43 0 0 0 .427-.427V7.883a.43.43 0 0 0-.427-.426h-4.178a.64.64 0 0 1-.646-.647.64.64 0 0 1 .646-.647h4.178c.945 0 1.72.776 1.72 1.72v22.624c0 .944-.775 1.72-1.72 1.72ZM45.308 40.48H33.162a.64.64 0 0 1-.647-.647.64.64 0 0 1 .647-.646h12.146a.64.64 0 0 1 .646.646.64.64 0 0 1-.646.647Z"/><path fill="#852E2C" d="M49.318 42.394h-4.01a.64.64 0 0 1-.647-.647.64.64 0 0 1 .647-.647h4.01a1.27 1.27 0 0 0 1.267-1.267 1.27 1.27 0 0 0-1.267-1.268h-4.01a.64.64 0 0 1-.647-.647.64.64 0 0 1 .647-.646h4.01a2.567 2.567 0 0 1 2.56 2.56 2.567 2.567 0 0 1-2.56 2.562ZM9.788 43.481a.64.64 0 0 1-.647-.647V36.51a.64.64 0 0 1 .647-.647.64.64 0 0 1 .647.647v6.325a.64.64 0 0 1-.647.647Z"/><path fill="#FF5100" d="M43.445 44.127H9.555a.601.601 0 0 1-.297-.078l-6.714-3.505a.64.64 0 0 1-.349-.57c0-.245.116-.452.323-.568l6.714-3.79a.702.702 0 0 1 .323-.078h33.89a2.512 2.512 0 0 1 2.51 2.51v3.57a2.512 2.512 0 0 1-2.51 2.509ZM9.71 42.833h33.735c.673 0 1.216-.543 1.216-1.215v-3.57c0-.673-.543-1.216-1.216-1.216H9.723l-5.536 3.117 5.523 2.885Z"/><path fill="#010101" d="M26.5 31.153c-.065 0-.142 0-.207-.038a.654.654 0 0 1-.44-.608V5.878A5.024 5.024 0 0 1 30.873.86h13.995c1.19 0 2.147.97 2.147 2.148v23.865a2.15 2.15 0 0 1-2.147 2.147H30.872c-1.526 0-2.962.699-3.855 1.876a.655.655 0 0 1-.517.258Zm4.372-28.987a3.726 3.726 0 0 0-3.725 3.725v23.076a6.189 6.189 0 0 1 3.725-1.229h13.996a.861.861 0 0 0 .854-.853V3.02a.861.861 0 0 0-.854-.854H30.872Z"/><path fill="#010101" d="M26.5 31.153a.655.655 0 0 1-.517-.259c-.88-1.177-2.329-1.875-3.855-1.875H8.145a2.15 2.15 0 0 1-2.147-2.147V3.019c0-1.19.97-2.147 2.147-2.147h13.996a5.024 5.024 0 0 1 5.019 5.019v24.628c0 .272-.181.53-.44.608a.585.585 0 0 1-.207.039l-.013-.013ZM8.145 2.166a.861.861 0 0 0-.854.853v23.865c0 .466.388.854.854.854h13.996c1.358 0 2.677.44 3.725 1.23V5.877a3.726 3.726 0 0 0-3.725-3.725H8.145v.013Z"/></svg>