<svg xmlns="http://www.w3.org/2000/svg" width="42" height="33" fill="none"><path fill="#010101" d="M35.49 11.81h-1v5.73h1v-5.73ZM29.97 30.93H4.34a2.3 2.3 0 0 1-2.3-2.3V11.82h1v16.81c0 .72.58 1.3 1.3 1.3h25.64v1h-.01Z"/><path fill="#010101" d="m21.68 18.19-.4-.92 14.29-6.25V6.71c0-.72-.58-1.3-1.3-1.3h-31c-.72 0-1.3.58-1.3 1.3v4.31l14.29 6.25-.4.92-14.9-6.52V6.7a2.3 2.3 0 0 1 2.3-2.3h31a2.3 2.3 0 0 1 2.3 2.3v4.97l-14.88 6.51v.01Z"/><path fill="#9D9D9C" d="M20.4 20.41h-3.26c-.87 0-1.58-.71-1.58-1.58v-2.17c0-.87.71-1.59 1.58-1.59h3.26c.87 0 1.58.71 1.58 1.59v2.17c0 .87-.71 1.58-1.58 1.58Zm-3.27-4.33c-.32 0-.58.26-.58.59v2.17c0 .32.26.58.58.58h3.26c.32 0 .58-.26.58-.58v-2.17c0-.32-.26-.59-.58-.59h-3.26Z"/><path fill="#010101" d="M25.22 5h-1V2.93c0-.81-.66-1.47-1.47-1.47h-7.97c-.81 0-1.47.66-1.47 1.47v1.65h-1V2.93c0-1.36 1.11-2.47 2.47-2.47h7.97c1.36 0 2.47 1.11 2.47 2.47V5Z"/><path fill="#FF5100" d="M34.02 32.13c-4.18 0-7.58-3.4-7.58-7.58s3.4-7.58 7.58-7.58 7.58 3.4 7.58 7.58-3.4 7.58-7.58 7.58Zm0-14.16c-3.63 0-6.58 2.95-6.58 6.58s2.95 6.58 6.58 6.58 6.58-2.95 6.58-6.58-2.95-6.58-6.58-6.58Z"/><path fill="#852E2C" d="M32.57 25.05c-.85 0-1.55-.69-1.55-1.55 0-.86.7-1.55 1.55-1.55.85 0 1.55.7 1.55 1.55 0 .85-.69 1.55-1.55 1.55Zm0-2.1c-.3 0-.55.25-.55.55 0 .3.25.55.55.55.3 0 .55-.25.55-.55 0-.3-.25-.55-.55-.55ZM30.01 27.3c-.85 0-1.55-.7-1.55-1.55 0-.85.69-1.55 1.55-1.55.86 0 1.55.69 1.55 1.55 0 .86-.7 1.55-1.55 1.55Zm0-2.1c-.3 0-.55.25-.55.55 0 .3.25.55.55.55.3 0 .55-.25.55-.55 0-.3-.25-.55-.55-.55ZM35.77 26.88c-.85 0-1.55-.69-1.55-1.55 0-.86.69-1.55 1.55-1.55.86 0 1.55.7 1.55 1.55 0 .85-.7 1.55-1.55 1.55Zm0-2.1c-.3 0-.55.25-.55.55 0 .3.25.55.55.55.3 0 .55-.25.55-.55 0-.3-.25-.55-.55-.55Z"/><path fill="#852E2C" d="m31.487 23.618-1.154 1.122.697.717 1.154-1.123-.697-.716ZM33.67 23.287l-.574.82 1.638 1.147.574-.82-1.638-1.147ZM36.97 25.17l-.69-.72 1.9-1.83.7.72-1.91 1.83Z"/><path fill="#852E2C" d="m38.27 25.58.05-2.39-2.4-.05 1.04-1 2.39.05-.04 2.4-1.04.99Z"/></svg>