<svg xmlns="http://www.w3.org/2000/svg" width="40" height="40" fill="none"><path fill="#9D9D9C" d="M39.26 9.04h-38c-.28 0-.5-.22-.5-.5s.22-.5.5-.5h38.01c.28 0 .5.22.5.5s-.22.5-.5.5h-.01ZM18.33 5.38H6.49c-.28 0-.5-.22-.5-.5s.22-.5.5-.5h11.84c.28 0 .5.22.5.5s-.22.5-.5.5Z"/><path fill="#010101" d="M36.42 35.33h-4.37c-.28 0-.5-.22-.5-.5s.22-.5.5-.5h4.37c1.29 0 2.35-1.05 2.35-2.35V4.23c0-1.29-1.05-2.35-2.35-2.35H4.1c-1.29 0-2.35 1.05-2.35 2.35v27.75c0 1.29 1.05 2.35 2.35 2.35h4.26c.28 0 .5.22.5.5s-.22.5-.5.5H4.1a3.35 3.35 0 0 1-3.35-3.35V4.23C.75 2.38 2.25.88 4.1.88h32.31c1.85 0 3.35 1.5 3.35 3.35v27.75c0 1.85-1.5 3.35-3.35 3.35h.01Z"/><path fill="#852E2C" d="M20.26 39.64c-6.49 0-11.77-5.28-11.77-11.77 0-6.49 5.28-11.77 11.77-11.77 6.49 0 11.77 5.28 11.77 11.77 0 6.49-5.28 11.77-11.77 11.77Zm0-22.55c-5.94 0-10.77 4.83-10.77 10.77 0 5.94 4.83 10.77 10.77 10.77 5.94 0 10.77-4.83 10.77-10.77 0-5.94-4.83-10.77-10.77-10.77Z"/><path fill="#FF5100" d="M17.44 32.9a.47.47 0 0 1-.35-.15l-3.42-3.42c-.2-.2-.2-.51 0-.71.19-.2.51-.2.71 0l3.07 3.07 8.71-8.71c.2-.2.51-.2.71 0 .2.2.2.51 0 .71l-9.07 9.07c-.1.1-.23.15-.35.15l-.01-.01Z"/></svg>