<svg xmlns="http://www.w3.org/2000/svg" width="36" height="39" fill="none"><path fill="#9D9D9C" d="M6.41 25.9c-2.13 0-3.66-.61-4.42-1.81-.73-1.15-.67-2.74.18-4.6l.91.41c-.49 1.08-.92 2.58-.24 3.66 1.09 1.72 4.78 1.79 9.61.17l.32.95c-2.46.82-4.61 1.23-6.35 1.23l-.01-.01ZM29.83 14.27l-.69-.72c4.3-4.09 6.29-7.97 5.08-9.89l.84-.54c1.53 2.41-.43 6.58-5.23 11.15ZM2.14 4.01l-.93-.37c.07-.18.16-.35.26-.52C2.83.98 6.63.73 11.91 2.43l-.31.95c-4.67-1.51-8.23-1.4-9.29.28-.07.11-.13.23-.18.35h.01Z"/><path fill="#9D9D9C" d="M30.86 16.01a30.19 30.19 0 0 0-1.85-1.97l.7-.71c.69.68 1.34 1.37 1.91 2.04l-.76.65v-.01Z"/><path fill="#010101" d="M23.3 27.1H13.24c-.14 0-.27-.06-.37-.16a.52.52 0 0 1-.13-.38c0-.02.13-2.64-2.55-5.99-.44-.4-.89-.91-1.3-1.45-.04-.04-.06-.08-.09-.12a11.649 11.649 0 0 1-2.28-6.93C6.52 5.6 11.79.33 18.26.33 24.73.33 30 5.6 30 12.07c0 2.49-.78 4.88-2.26 6.9-.02.05-.06.1-.1.15l-.08.08c-.35.47-.79.96-1.26 1.4-2.66 3.31-2.52 5.93-2.52 5.96 0 .14-.04.27-.13.38-.09.11-.23.16-.36.16h.01Zm-9.57-1h9.08c.08-1.02.52-3.36 2.78-6.17.48-.46.88-.9 1.24-1.38 0 0 .01-.02.03-.03 0-.01.02-.03.03-.04 1.39-1.87 2.13-4.08 2.13-6.4 0-5.92-4.82-10.74-10.74-10.74S7.54 6.16 7.54 12.08c0 2.31.74 4.53 2.13 6.4 0 0 .01.02.02.03l.02.02c.37.5.79.96 1.23 1.38 2.28 2.84 2.73 5.19 2.81 6.2l-.02-.01Z"/><path fill="#9D9D9C" d="M34.21 3.66c-1.06-1.68-4.62-1.78-9.29-.28l-.31-.95c5.28-1.7 9.08-1.45 10.44.69l-.84.54ZM30.11 25.89c-1.02 0-2.18-.14-3.45-.42-3.8-.83-8.29-2.81-12.65-5.57C5.24 14.35-.26 7.36 1.21 3.65l.93.37C.88 7.19 6.45 13.94 14.55 19.07c4.26 2.7 8.63 4.63 12.32 5.43 3.47.76 5.96.41 6.83-.95.68-1.07.24-2.58-.24-3.66l.91-.41c.84 1.86.9 3.46.17 4.6-.76 1.19-2.29 1.81-4.43 1.81Z"/><path fill="#9D9D9C" d="m5.68 16.01-.76-.65c2.36-2.76 5.78-5.62 9.61-8.05 3.39-2.15 6.88-3.83 10.09-4.87l.31.95c-3.14 1.01-6.55 2.66-9.86 4.76-3.75 2.38-7.09 5.17-9.39 7.86Z"/><path fill="#FF5100" d="M32.65 20.42c-1.61 0-2.91-1.31-2.91-2.91s1.31-2.91 2.91-2.91 2.91 1.31 2.91 2.91-1.31 2.91-2.91 2.91Zm0-4.82c-1.05 0-1.91.86-1.91 1.91 0 1.05.86 1.91 1.91 1.91 1.05 0 1.91-.86 1.91-1.91 0-1.05-.86-1.91-1.91-1.91ZM3.88 20.42c-1.61 0-2.91-1.31-2.91-2.91s1.31-2.91 2.91-2.91 2.91 1.31 2.91 2.91-1.31 2.91-2.91 2.91Zm0-4.82c-1.05 0-1.91.86-1.91 1.91 0 1.05.86 1.91 1.91 1.91 1.05 0 1.91-.86 1.91-1.91 0-1.05-.86-1.91-1.91-1.91Z"/><path fill="#852E2C" d="M24.21 29.97H12.33c-1.02 0-1.85-.83-1.85-1.85s.83-1.85 1.85-1.85h11.88c1.02 0 1.85.83 1.85 1.85s-.83 1.85-1.85 1.85Zm-11.88-2.69a.85.85 0 1 0 0 1.7h11.88a.85.85 0 1 0 0-1.7H12.33Z"/><path fill="#852E2C" d="M22.96 34.68h-9.39c-.97 0-1.76-.79-1.76-1.75v-3.29h1v3.29c0 .42.34.75.76.75h9.39c.42 0 .75-.34.75-.75V29.6h1v3.33c0 .97-.79 1.75-1.75 1.75Z"/><path fill="#852E2C" d="M21.03 38.18H15.5c-.97 0-1.75-.79-1.75-1.75v-2.24h1v2.24c0 .42.34.75.75.75h5.53c.42 0 .75-.34.75-.75v-2.24h1v2.24c0 .97-.79 1.75-1.75 1.75Z"/></svg>