<svg viewBox="0 0 34 34"><path fill="#32BA7C" d="M17 34c9.389 0 17-7.611 17-17S26.389 0 17 0 0 7.611 0 17s7.611 17 17 17Z"/><path fill="#0AA06E" d="m12.656 24.669 8.742 8.741C28.638 31.48 34 24.883 34 17v-.483l-6.864-6.328-14.48 14.48Z"/><path fill="#fff" d="M17.43 20.808c.75.75.75 2.037 0 2.788l-1.556 1.555c-.75.751-2.038.751-2.789 0l-6.81-6.864c-.751-.75-.751-2.038 0-2.789l1.555-1.555c.75-.75 2.038-.75 2.788 0l6.811 6.865Z"/><path fill="#fff" d="M23.382 8.956c.75-.75 2.038-.75 2.788 0l1.556 1.555c.75.75.75 2.038 0 2.789L15.927 25.044c-.75.751-2.037.751-2.788 0l-1.555-1.555c-.751-.75-.751-2.038 0-2.789L23.382 8.956Z"/></svg>
