<svg xmlns="http://www.w3.org/2000/svg" width="140" height="136" fill="none"><path fill="#010101" d="M83.335 135.345h-71.26c-6.315 0-11.466-5.151-11.466-11.465V29.407c0-6.315 5.15-11.466 11.465-11.466h13.441v3.528h-13.44c-4.375 0-7.938 3.563-7.938 7.938v94.508c0 4.374 3.563 7.938 7.937 7.938h71.26c4.375 0 7.938-3.564 7.938-7.938v-4.727H94.8v4.727c0 6.315-5.15 11.465-11.465 11.465v-.035ZM94.765 61.791h-3.528v-32.42c0-4.374-3.563-7.937-7.937-7.937H72.68v-3.528H83.3c6.314 0 11.465 5.15 11.465 11.465v32.42Z"/><path fill="#010101" d="M69.718 27.924h-41.24a4.765 4.765 0 0 1-4.762-4.762v-8.15c0-2.645.776-4.62 2.363-5.961 2.329-1.976 5.327-1.517 5.645-1.482l7.02 1.446C39.732 4.218 44 .584 49.08.584s9.349 3.634 10.337 8.431l7.02-1.446c.317-.07 3.351-.494 5.644 1.482 1.552 1.34 2.364 3.316 2.364 5.961v8.15a4.765 4.765 0 0 1-4.763 4.762h.036ZM30.665 11.061c-.564 0-1.587.106-2.293.741-.74.635-1.093 1.729-1.093 3.246v8.149c0 .67.564 1.235 1.235 1.235h41.239a1.25 1.25 0 0 0 1.235-1.235v-8.15c0-1.551-.353-2.645-1.094-3.245-1.023-.882-2.575-.705-2.787-.705l-10.936 2.257v-2.151c0-3.881-3.14-7.02-7.02-7.02-3.88 0-7.02 3.139-7.02 7.02v2.151l-10.972-2.257h-.458l-.035-.036Z"/><path fill="#FF5100" d="M31.653 62.673H19.06a5.194 5.194 0 0 1-5.186-5.186V44.893a5.194 5.194 0 0 1 5.186-5.186h12.594a5.194 5.194 0 0 1 5.186 5.186v12.594a5.194 5.194 0 0 1-5.186 5.186ZM19.024 41.47a3.425 3.425 0 0 0-3.422 3.422v12.594a3.425 3.425 0 0 0 3.422 3.422h12.594c1.87 0 3.422-1.552 3.422-3.422V44.893c0-1.87-1.552-3.422-3.422-3.422H19.024Z"/><path fill="#852E2C" d="M23.116 56.006 19.8 52.69c-.353-.352-.353-.917 0-1.234.353-.318.917-.353 1.235 0l2.081 2.046 6.491-6.491c.353-.353.917-.353 1.235 0 .317.352.353.917 0 1.234l-7.726 7.726v.035Z"/><path fill="#9D9D9C" d="M74.163 46.94h-31.15a.873.873 0 0 1-.882-.882c0-.494.388-.882.882-.882h31.15c.494 0 .882.388.882.882a.873.873 0 0 1-.882.882ZM74.163 57.03h-31.15a.873.873 0 0 1-.882-.882c0-.494.388-.882.882-.882h31.15c.494 0 .882.388.882.882a.873.873 0 0 1-.882.881Z"/><path fill="#FF5100" d="M31.653 90.684H19.06a5.194 5.194 0 0 1-5.186-5.185V72.905a5.194 5.194 0 0 1 5.186-5.186h12.594a5.194 5.194 0 0 1 5.186 5.186v12.594a5.194 5.194 0 0 1-5.186 5.185ZM19.024 69.483a3.425 3.425 0 0 0-3.422 3.421V85.5a3.425 3.425 0 0 0 3.422 3.422h12.594a3.425 3.425 0 0 0 3.422-3.422V72.905a3.425 3.425 0 0 0-3.422-3.422H19.024Z"/><path fill="#852E2C" d="M23.116 84.016 19.8 80.7c-.353-.353-.353-.917 0-1.235.353-.317.917-.352 1.235 0l2.081 2.046 6.491-6.49c.353-.353.917-.353 1.235 0 .317.352.353.917 0 1.234l-7.726 7.726v.035Z"/><path fill="#9D9D9C" d="M74.163 74.914h-31.15a.873.873 0 0 1-.882-.882c0-.494.388-.882.882-.882h31.15c.494 0 .882.388.882.882a.873.873 0 0 1-.882.882ZM74.163 85.04h-31.15a.873.873 0 0 1-.882-.883c0-.494.388-.882.882-.882h31.15c.494 0 .882.388.882.882a.873.873 0 0 1-.882.882Z"/><path fill="#FF5100" d="M31.653 118.694H19.06a5.194 5.194 0 0 1-5.186-5.186v-12.594a5.194 5.194 0 0 1 5.186-5.186h12.594a5.194 5.194 0 0 1 5.186 5.186v12.594a5.194 5.194 0 0 1-5.186 5.186ZM19.024 97.457a3.425 3.425 0 0 0-3.422 3.422v12.594a3.403 3.403 0 0 0 3.422 3.422h12.594a3.425 3.425 0 0 0 3.422-3.422v-12.594c0-1.87-1.552-3.422-3.422-3.422H19.024Z"/><path fill="#852E2C" d="m23.116 111.991-3.316-3.316c-.353-.353-.353-.917 0-1.235.353-.317.917-.353 1.235 0l2.081 2.046 6.491-6.491c.353-.353.917-.353 1.235 0 .317.353.353.917 0 1.235l-7.726 7.726v.035Z"/><path fill="#9D9D9C" d="M74.163 102.924h-31.15a.873.873 0 0 1-.882-.882c0-.494.388-.882.882-.882h31.15c.494 0 .882.388.882.882a.873.873 0 0 1-.882.882ZM74.163 113.014h-31.15a.873.873 0 0 1-.882-.882c0-.494.388-.882.882-.882h31.15c.494 0 .882.388.882.882a.873.873 0 0 1-.882.882Z"/><path fill="#FF5100" d="m106.301 128.571-.671-.282c-39.863-16.016-31.714-56.832-31.644-57.22l.106-.459.318-.352c.423-.459 10.689-11.324 31.855-11.324 21.167 0 31.433 10.865 31.856 11.324l.317.352.106.46c.071.422 8.22 41.203-31.644 57.219l-.67.282h.071ZM77.373 72.304c-.847 4.727-5.539 38.17 28.928 52.457 34.466-14.287 29.774-47.73 28.927-52.457-1.87-1.764-11.43-9.878-28.927-9.878-17.498 0-27.058 8.114-28.928 9.878Z"/><path fill="#852E2C" d="m101.185 104.124-8.784-8.784a1.747 1.747 0 0 1 0-2.504 1.747 1.747 0 0 1 2.505 0l6.315 6.314 18.767-18.767a1.747 1.747 0 0 1 2.505 0c.705.705.705 1.799 0 2.504l-21.237 21.237h-.071Z"/><path fill="#010101" d="M49.116 15.684a4.02 4.02 0 0 1-4.022-4.022 4.02 4.02 0 0 1 4.022-4.021 4.02 4.02 0 0 1 4.021 4.021 4.02 4.02 0 0 1-4.021 4.022Zm0-6.28a2.274 2.274 0 0 0-2.258 2.258 2.273 2.273 0 0 0 2.258 2.258 2.274 2.274 0 0 0 2.257-2.258 2.274 2.274 0 0 0-2.257-2.258Z"/></svg>