<svg viewBox="0 0 28 28" fill="currentColor"><path d="M14 28c7.732 0 14-6.268 14-14S21.732 0 14 0 0 6.268 0 14s6.268 14 14 14Z"/><path d="m10.423 20.316 7.198 7.199C23.584 25.925 28 20.492 28 14v-.397l-5.653-5.211-11.924 11.924Z"/><path fill="#fff" d="M14.353 17.136c.619.619.619 1.678 0 2.297l-1.28 1.28c-.619.619-1.679.619-2.297 0L5.167 15.06c-.618-.618-.618-1.678 0-2.296l1.28-1.28c.62-.619 1.68-.619 2.297 0l5.61 5.652Z"/><path fill="#fff" d="M19.256 7.376c.618-.618 1.678-.618 2.296 0l1.28 1.28c.62.619.62 1.679 0 2.297l-9.715 9.672c-.619.618-1.679.618-2.297 0l-1.28-1.28c-.619-.619-.619-1.679 0-2.297l9.716-9.672Z"/></svg>
