<svg xmlns="http://www.w3.org/2000/svg" width="59" height="59" fill="none"><path fill="#852E2C" d="M38.213 45.964H20.65c-3.012 0-5.473-2.461-5.473-5.473V22.927c0-3.012 2.461-5.473 5.473-5.473h17.564c3.012 0 5.473 2.461 5.473 5.473V40.49c0 3.012-2.461 5.473-5.473 5.473ZM20.65 18.983a3.954 3.954 0 0 0-3.944 3.944V40.49a3.954 3.954 0 0 0 3.944 3.944h17.564a3.954 3.954 0 0 0 3.944-3.944V22.927a3.954 3.954 0 0 0-3.944-3.944H20.65Z"/><path fill="#852E2C" d="M19.288 18.983a.757.757 0 0 1-.764-.765V15.33c0-.428.336-.764.764-.764s.765.336.765.764v2.89a.757.757 0 0 1-.765.764ZM24.47 18.983a.757.757 0 0 1-.764-.765V15.33c0-.428.337-.764.765-.764s.764.336.764.764v2.89a.757.757 0 0 1-.764.764ZM29.653 18.983a.757.757 0 0 1-.765-.765V15.33c0-.428.337-.764.765-.764s.764.336.764.764v2.89a.757.757 0 0 1-.764.764ZM34.835 18.983a.757.757 0 0 1-.764-.765V15.33c0-.428.336-.764.764-.764s.764.336.764.764v2.89a.757.757 0 0 1-.764.764ZM40.017 18.983a.757.757 0 0 1-.764-.765V15.33c0-.428.336-.764.764-.764s.765.336.765.764v2.89a.757.757 0 0 1-.765.764ZM19.288 48.853a.757.757 0 0 1-.764-.764v-2.89c0-.427.336-.764.764-.764s.765.337.765.765v2.889a.757.757 0 0 1-.765.764ZM24.47 48.853a.757.757 0 0 1-.764-.764v-2.89c0-.427.337-.764.765-.764s.764.337.764.765v2.889a.757.757 0 0 1-.764.764ZM29.653 48.853a.757.757 0 0 1-.765-.764v-2.89c0-.427.337-.764.765-.764s.764.337.764.765v2.889a.757.757 0 0 1-.764.764ZM34.835 48.853a.757.757 0 0 1-.764-.764v-2.89c0-.427.336-.764.764-.764s.764.337.764.765v2.889a.757.757 0 0 1-.764.764ZM40.017 48.853a.757.757 0 0 1-.764-.764v-2.89c0-.427.336-.764.764-.764s.765.337.765.765v2.889a.757.757 0 0 1-.765.764ZM15.94 42.83h-2.889a.757.757 0 0 1-.764-.764c0-.428.336-.764.764-.764h2.89c.428 0 .764.336.764.764a.757.757 0 0 1-.765.764ZM15.94 37.648h-2.889a.757.757 0 0 1-.764-.764c0-.428.336-.765.764-.765h2.89c.428 0 .764.337.764.765a.757.757 0 0 1-.765.764ZM15.94 32.466h-2.889a.757.757 0 0 1-.764-.765c0-.428.336-.764.764-.764h2.89c.428 0 .764.336.764.764a.757.757 0 0 1-.765.765ZM15.94 27.284h-2.889a.757.757 0 0 1-.764-.765c0-.428.336-.764.764-.764h2.89c.428 0 .764.336.764.764a.757.757 0 0 1-.765.765ZM15.94 22.101h-2.889a.757.757 0 0 1-.764-.764c0-.428.336-.764.764-.764h2.89c.428 0 .764.336.764.764a.757.757 0 0 1-.765.764ZM45.811 42.83h-2.89a.757.757 0 0 1-.764-.764c0-.428.337-.764.765-.764h2.889c.428 0 .764.336.764.764a.757.757 0 0 1-.764.764ZM45.811 37.648h-2.89a.757.757 0 0 1-.764-.764c0-.428.337-.765.765-.765h2.889c.428 0 .764.337.764.765a.757.757 0 0 1-.764.764ZM45.811 32.466h-2.89a.757.757 0 0 1-.764-.765c0-.428.337-.764.765-.764h2.889c.428 0 .764.336.764.764a.757.757 0 0 1-.764.765ZM45.811 27.284h-2.89a.757.757 0 0 1-.764-.765c0-.428.337-.764.765-.764h2.889c.428 0 .764.336.764.764a.757.757 0 0 1-.764.765ZM45.811 22.101h-2.89a.757.757 0 0 1-.764-.764c0-.428.337-.764.765-.764h2.889c.428 0 .764.336.764.764a.757.757 0 0 1-.764.764Z"/><path fill="#9D9D9C" d="M15.94 12.363V8.832h1.07l.643 2.415.626-2.415h1.07v3.531h-.657V9.581l-.703 2.782H17.3l-.703-2.782v2.782h-.658ZM23.248 12.363h-.78l-.306-.795h-1.406l-.29.795h-.75l1.376-3.531h.75l1.406 3.531Zm-1.315-1.406-.49-1.315-.473 1.315h.963ZM23.645 12.363v-3.5h.718v2.904h1.774v.596h-2.492ZM26.61 12.363V8.832h.72v3.531h-.72ZM30.264 11.064l.688.214c-.107.382-.275.673-.535.856-.244.184-.565.275-.932.275-.474 0-.856-.153-1.162-.474-.306-.32-.459-.764-.459-1.314 0-.581.153-1.04.459-1.376.306-.321.703-.49 1.192-.49.428 0 .78.123 1.055.383.153.153.275.367.367.642l-.703.168a.73.73 0 0 0-.26-.428.749.749 0 0 0-.49-.153.833.833 0 0 0-.641.275c-.169.184-.245.49-.245.918 0 .443.076.764.245.947.168.184.366.29.626.29a.721.721 0 0 0 .49-.183c.137-.122.229-.306.29-.565l.015.015ZM31.548 12.363V8.832h.719v3.531h-.719ZM32.787 10.62c0-.366.06-.657.168-.901.076-.184.183-.337.32-.49.138-.137.291-.244.46-.32a1.95 1.95 0 0 1 .764-.138c.52 0 .932.168 1.253.49.306.32.474.763.474 1.344 0 .581-.153 1.01-.458 1.346-.306.336-.719.489-1.239.489-.52 0-.948-.153-1.253-.474-.306-.321-.459-.764-.459-1.33l-.03-.015Zm.733-.03c0 .398.092.703.276.902a.913.913 0 0 0 .703.306c.29 0 .52-.107.703-.306.183-.199.275-.505.275-.917 0-.413-.092-.703-.26-.902a.913.913 0 0 0-.703-.306.891.891 0 0 0-.703.306c-.184.199-.275.504-.275.917h-.016ZM36.761 8.832h.719v1.91c0 .307 0 .505.03.597a.65.65 0 0 0 .214.352.759.759 0 0 0 .474.137.78.78 0 0 0 .459-.122.434.434 0 0 0 .183-.306c.015-.122.03-.32.03-.596V8.847h.72v1.85c0 .428-.016.719-.062.902a.926.926 0 0 1-.214.443 1.179 1.179 0 0 1-.413.29c-.168.077-.397.108-.672.108-.337 0-.596-.046-.765-.122a1.214 1.214 0 0 1-.412-.306.888.888 0 0 1-.199-.398 4.268 4.268 0 0 1-.077-.902v-1.88h-.015ZM40.155 11.201l.688-.06c.046.229.122.397.26.52.137.121.306.167.52.167.229 0 .397-.046.52-.153.122-.107.167-.214.167-.336a.366.366 0 0 0-.076-.214c-.046-.061-.138-.107-.26-.153-.076-.03-.275-.076-.565-.153-.383-.091-.642-.214-.81-.351a.922.922 0 0 1-.322-.704c0-.183.046-.351.153-.504a.934.934 0 0 1 .444-.352c.198-.076.427-.122.687-.122.444 0 .78.092.994.29.23.2.336.46.352.78l-.719.03c-.03-.183-.092-.305-.199-.397a.729.729 0 0 0-.443-.122.926.926 0 0 0-.489.122.248.248 0 0 0-.107.214c0 .077.03.153.107.214.092.077.306.153.657.23.352.076.596.168.765.26.168.091.29.214.397.351.092.153.138.337.138.566 0 .199-.062.397-.169.565-.106.184-.275.306-.473.398-.2.092-.459.122-.765.122-.443 0-.795-.107-1.024-.306-.244-.198-.382-.504-.428-.902Z"/><path fill="#FF5100" d="m18.356 40.552 6.695-17.411h2.477l7.124 17.411h-2.63l-2.033-5.274h-7.277l-1.91 5.274h-2.446Zm5.03-7.154h5.9l-1.82-4.815c-.55-1.468-.962-2.675-1.238-3.608a24.08 24.08 0 0 1-.932 3.333l-1.91 5.105v-.015ZM36.883 40.552V23.141h2.309v17.411h-2.309Z"/><path fill="#010101" d="M49.009 8.92 8.776 49.155l1.081 1.08L50.09 10.002 49.009 8.92Z"/><path fill="#010101" d="M29.5 58.5c-15.99 0-29-13.01-29-29s13.01-29 29-29 29 13.01 29 29-13.01 29-29 29Zm0-56.47C14.35 2.03 2.03 14.35 2.03 29.5c0 15.15 12.32 27.47 27.47 27.47 15.15 0 27.47-12.32 27.47-27.47 0-15.15-12.32-27.47-27.47-27.47Z"/></svg>