<svg xmlns="http://www.w3.org/2000/svg" width="47" height="61" fill="none"><path fill="#1D1D1B" d="M45.956 60.02h-29.58a.774.774 0 0 1-.764-.75l-.321-14.278-14.278-.398a.763.763 0 0 1-.75-.764V1.745c0-.428.337-.764.765-.764h44.928c.429 0 .765.336.765.764V59.24a.757.757 0 0 1-.764.765v.015Zm-28.83-1.53h28.066V2.51H1.808V43.08l14.263.398c.412 0 .733.336.749.749l.32 14.262h-.015Z"/><path fill="#1D1D1B" d="M1.572 43.299.488 44.377l15.34 15.425 1.083-1.078L1.572 43.299Z"/><path fill="#FF5100" d="m23.5 33.19-.657-.275c-9.83-4.066-10.64-11.679-10.64-19.781v-1.162L23.5 7.447l11.297 4.525v1.162c0 8.117-.81 15.73-10.64 19.781l-.657.275Zm-9.768-20.178v.137c0 7.858.733 14.676 9.692 18.375h.137c8.974-3.7 9.692-10.517 9.692-18.375v-.137l-9.768-3.914-9.769 3.914h.016Z"/><path fill="#852E2C" d="m20.703 25.899-3.93-3.93a.757.757 0 0 1 0-1.085.757.757 0 0 1 1.086 0l2.859 2.844 8.438-8.439a.757.757 0 0 1 1.085 0 .757.757 0 0 1 0 1.086l-9.523 9.524h-.015Z"/><path fill="#9D9D9C" d="M37.564 38.067H9.344a.378.378 0 0 1-.382-.382c0-.214.168-.382.382-.382h28.22c.214 0 .382.168.382.382a.379.379 0 0 1-.382.382ZM37.564 46.154H21.207a.379.379 0 0 1-.382-.382c0-.214.168-.383.382-.383h16.357c.214 0 .382.169.382.383a.379.379 0 0 1-.382.382Z"/></svg>