<svg xmlns="http://www.w3.org/2000/svg" width="36" height="38" fill="none"><path fill="#010101" d="M1.32 10.91c-.14 0-.27-.06-.37-.16-.19-.2-.17-.52.03-.71.24-.22 5.98-5.33 13.79-3.7.27.06.44.32.39.59-.06.27-.32.44-.59.39C7.26 5.8 1.71 10.73 1.65 10.78c-.1.09-.22.13-.34.13h.01ZM22.88 22.04c-.28 0-.5-.22-.5-.5 0-.88-.07-1.74-.21-2.55l-.09-.47c-.13-.63-.23-1-.46-1.56-.1-.26.02-.55.27-.65.26-.11.55.02.65.27.26.63.37 1.05.51 1.72.01.06.03.13.04.2l.06.32c.15.87.22 1.78.22 2.72 0 .28-.22.5-.5.5h.01ZM1.42 28.13c-.27 0-.49-.21-.5-.48 0-.28-.22-6.78 0-9.01.26-2.65 1.36-5 3.1-6.61 2.11-1.95 5.05-2.9 8.28-2.68.28.02.48.26.46.53a.5.5 0 0 1-.53.46c-2.08-.15-5.09.16-7.53 2.42-1.56 1.44-2.54 3.56-2.78 5.97-.21 2.17 0 8.81 0 8.88 0 .28-.21.51-.48.52h-.02ZM22.88 25.75s-.08 0-.12-.01c-2.65-.65-3.79-3.11-4.05-4.47-.1-.53-.16-1.05-.21-1.56-.1-.95-.2-1.84-.59-2.72-.11-.25 0-.55.25-.66.25-.11.55 0 .66.25.46 1.02.57 2.04.67 3.02.05.49.1.98.2 1.48.21 1.12 1.15 3.16 3.31 3.69.27.07.43.34.37.6-.06.23-.26.38-.49.38Z"/><path fill="#010101" d="M2.21 31.42a.5.5 0 0 1-.2-.96c.02 0 2.2-.96 2.42-2.88.16-1.41.04-2.89-.07-4.31-.09-1.21-.19-2.46-.13-3.7.07-1.31.41-2.38 1.07-3.37 1.45-2.17 4.2-3.49 7.11-3.43.28 0 .5.23.49.51-.01.28-.22.48-.51.49-2.59-.04-4.99 1.09-6.25 2.98-.57.85-.85 1.73-.91 2.87-.06 1.17.04 2.39.13 3.57.12 1.47.24 2.99.07 4.5-.28 2.5-2.91 3.64-3.02 3.69-.06.03-.13.04-.19.04h-.01ZM3.46 35.04a.5.5 0 0 1-.46-.3c-.11-.25 0-.55.26-.66.02 0 2.27-1.01 4.08-3.88.15-.23.46-.3.69-.16.23.15.3.46.16.69C6.2 33.88 3.76 34.96 3.66 35c-.06.03-.13.04-.2.04ZM15.69 37.94h-.05c-1.32-.14-2.48-.75-3.46-1.82-.61-.67-1.29-.99-2.03-.98-1.8.03-3.46 1.96-3.47 1.98-.18.21-.49.24-.7.06a.494.494 0 0 1-.06-.7c.08-.09 1.96-2.29 4.21-2.33 1.04-.04 1.98.42 2.79 1.3.81.88 1.76 1.39 2.83 1.5a.502.502 0 0 1-.06 1v-.01ZM21.94 32.55c-.99 0-4.77-.3-8.55-4.59-1.07-1.21-1.65-3.29-1.74-6.19 0-.28.21-.51.48-.52.29 0 .51.21.52.48.08 2.66.58 4.53 1.49 5.56 3.96 4.49 7.93 4.25 7.97 4.25.25-.02.51.18.54.46.02.27-.18.51-.46.54h-.24l-.01.01Z"/><path fill="#010101" d="M19.88 35.95h-.1c-.32-.06-7.77-1.6-10.55-8.11-1.67-3.91-1.82-7.34-.39-9.43.77-1.13 1.95-1.75 3.36-1.69 3.1.1 3.77 3.11 4.22 5.11.1.47.2.91.32 1.23.62 1.75 2.78 4.56 6.23 5.11.27.04.46.3.42.57a.51.51 0 0 1-.57.42c-3.63-.58-6.19-3.39-7.02-5.76-.13-.37-.24-.84-.35-1.34-.52-2.32-1.13-4.25-3.27-4.32-1.06-.03-1.92.4-2.5 1.25-1.21 1.77-1.03 4.94.48 8.47 2.58 6.02 9.76 7.51 9.83 7.52a.501.501 0 0 1-.1.99l-.01-.02Z"/><path fill="#FF5100" d="M31.1 17.11H17.21c-3.1-.03-5.6-2.55-5.6-5.65 0-3.1 2.54-5.65 5.65-5.65.29 0 .58.03.89.08.8-3.1 3.6-5.3 6.84-5.3 3.9 0 7.07 3.17 7.07 7.07v.32c2.1.46 3.64 2.32 3.64 4.51a4.61 4.61 0 0 1-4.39 4.62c-.04 0-.08.01-.12.01h-.08l-.01-.01Zm-13.79-1H31.17a3.616 3.616 0 0 0 .3-7.21.489.489 0 0 1-.33-.19.542.542 0 0 1-.11-.37A6.073 6.073 0 0 0 25 1.59a6.06 6.06 0 0 0-5.97 4.99c-.02.14-.1.26-.22.33-.12.08-.26.1-.39.06-.43-.11-.8-.16-1.15-.16-2.57 0-4.65 2.09-4.65 4.65a4.66 4.66 0 0 0 4.65 4.65h.05-.01Z"/><path fill="#852E2C" d="M24.33 14.61c-2.62 0-4.75-2.13-4.75-4.75s2.13-4.75 4.75-4.75 4.75 2.13 4.75 4.75-2.13 4.75-4.75 4.75Zm0-8.51c-2.07 0-3.75 1.68-3.75 3.75 0 2.07 1.68 3.75 3.75 3.75 2.07 0 3.75-1.68 3.75-3.75 0-2.07-1.68-3.75-3.75-3.75Z"/><path fill="#FF5100" d="M23.27 12.07a.47.47 0 0 1-.35-.15l-1.29-1.29c-.2-.2-.2-.51 0-.71.2-.2.51-.2.71 0l.94.94 3.07-3.07c.2-.2.51-.2.71 0 .2.2.2.51 0 .71l-3.42 3.42c-.1.1-.23.15-.35.15h-.02Z"/></svg>