<svg xmlns="http://www.w3.org/2000/svg" width="147" height="149" fill="none"><path fill="#010101" d="M94.104 148.054H14.343c-7.816 0-14.135-5.123-14.135-11.443V12.388C.208 6.106 6.565.945 14.342.945h79.762c7.816 0 14.135 5.123 14.135 11.443v11.031c0 1.047-.822 1.87-1.869 1.87a1.852 1.852 0 0 1-1.87-1.87V12.388c0-4.15-4.75-7.703-10.396-7.703H14.343c-5.647 0-10.396 3.515-10.396 7.703V136.61c0 4.151 4.749 7.704 10.395 7.704h79.762c5.647 0 10.396-3.516 10.396-7.704V73.565c0-1.047.823-1.87 1.87-1.87 1.047 0 1.869.823 1.869 1.87v63.046c0 6.283-6.357 11.443-14.135 11.443Z"/><path fill="#9D9D9C" d="M95.9 128.498H14.94a1.852 1.852 0 0 1-1.869-1.87V15.268c0-1.047.823-1.87 1.87-1.87h80.958c1.047 0 1.87.823 1.87 1.87V32.47c0 1.047-.823 1.87-1.87 1.87a1.852 1.852 0 0 1-1.87-1.87V17.138H16.811v107.62h77.218V64.815c0-1.047.823-1.87 1.87-1.87 1.047 0 1.87.823 1.87 1.87v61.813c0 1.047-.823 1.87-1.87 1.87Z"/><path fill="#FF5100" d="M75.295 50.081c-.374 0-.785-.112-1.085-.373-19.332-14.098-36.01-.86-36.72-.262-.786.636-1.982.523-2.618-.262-.636-.785-.524-1.982.262-2.617.187-.15 19.594-15.669 41.283.149.823.598 1.01 1.795.411 2.618-.374.486-.935.785-1.496.785l-.037-.038Z"/><path fill="#FF5100" d="M36.555 80.258a1.86 1.86 0 0 1-1.87-1.795c0-.449-.411-11.555 0-15.406.523-4.787 2.692-8.975 6.17-11.892 5.273-4.412 13.836-5.946 21.838-3.889 7.591 1.945 13.612 7.853 15.294 15.107l.15.748c.337 1.72.449 3.328.449 5.011 0 1.047-.823 1.87-1.87 1.87a1.851 1.851 0 0 1-1.87-1.87c0-1.42-.112-2.804-.374-4.113l-.112-.524c-1.42-6.132-6.394-10.956-12.639-12.564-6.88-1.758-14.135-.524-18.51 3.14-2.73 2.282-4.45 5.61-4.861 9.424-.374 3.59 0 14.77 0 14.883a1.878 1.878 0 0 1-1.795 1.945h-.075l.075-.075Z"/><path fill="#FF5100" d="M37.976 86.915a1.894 1.894 0 0 1-1.758-1.197 1.88 1.88 0 0 1 1.085-2.43c.112-.038 3.59-1.496 3.889-4.039.299-2.28.074-4.6-.15-7.067-.187-2.094-.374-4.226-.262-6.432.15-2.43.823-4.45 2.206-6.282 3.703-4.974 11.144-7.33 18.1-5.684 3.963.935 7.104 3.178 8.6 6.17.972 1.944 1.234 3.926 1.496 5.833.112.786.224 1.608.374 2.356.336 1.645 1.907 4.674 5.46 5.46a1.882 1.882 0 0 1 1.42 2.243c-.224 1.01-1.197 1.683-2.244 1.421-4.749-1.047-7.59-4.936-8.338-8.338-.187-.86-.3-1.758-.45-2.656-.224-1.682-.448-3.29-1.158-4.711-.973-1.945-3.254-3.515-6.096-4.188-5.46-1.272-11.442.523-14.247 4.263-.935 1.271-1.383 2.58-1.496 4.263-.112 1.907.075 3.851.225 5.87.224 2.543.449 5.198.112 7.853-.598 4.861-6.058 6.993-6.282 7.068a2.118 2.118 0 0 1-.673.112l.187.112Z"/><path fill="#FF5100" d="M39.172 94.019a1.894 1.894 0 0 1-1.757-1.197 1.892 1.892 0 0 1 1.047-2.43c.112-.038 4.038-1.683 7.217-6.245.598-.86 1.757-1.047 2.617-.449.86.598 1.047 1.758.45 2.618-3.89 5.571-8.714 7.516-8.938 7.59a2.117 2.117 0 0 1-.673.113h.037ZM62.282 99.965h-.187c-2.693-.262-5.048-1.384-7.03-3.328-.973-.935-2.02-1.421-3.179-1.384-2.468.037-5.086 2.244-5.87 3.066a1.886 1.886 0 0 1-2.656.075c-.748-.71-.785-1.87-.075-2.655.15-.187 3.927-4.15 8.526-4.225 2.207-.15 4.188.785 5.871 2.468 1.346 1.346 2.954 2.094 4.75 2.28 1.009.113 1.794 1.01 1.682 2.02-.075.972-.898 1.683-1.87 1.683h.038ZM74.959 88.821c-1.945 0-9.349-.523-16.678-8.04-2.17-2.243-3.403-6.02-3.553-11.18 0-1.047.785-1.908 1.795-1.945 1.085-.112 1.907.785 1.945 1.795.15 4.15 1.01 7.18 2.505 8.713 7.068 7.254 13.948 6.955 14.247 6.918 1.01 0 1.907.71 1.982 1.757.075 1.01-.71 1.907-1.72 1.982h-.523Z"/><path fill="#FF5100" d="M71.07 94.581h-.337c-.598-.112-15.033-2.805-20.455-14.285-3.14-6.656-3.515-12.714-.972-16.603 1.645-2.505 4.263-3.776 7.367-3.702 6.506.187 7.927 5.946 8.787 9.424.187.748.337 1.42.561 1.944 1.085 2.767 4.861 7.142 10.92 8.04a1.869 1.869 0 0 1 1.57 2.131c-.15 1.01-1.122 1.683-2.132 1.571-7.18-1.047-12.228-6.095-13.873-10.396-.262-.635-.449-1.495-.71-2.393-.935-3.777-1.87-6.469-5.273-6.581-1.72 0-3.216.636-4.113 2.02-1.795 2.729-1.346 7.59 1.196 12.938 4.6 9.722 17.613 12.19 17.725 12.19a1.866 1.866 0 0 1 1.496 2.169 1.848 1.848 0 0 1-1.832 1.533h.075Z"/><path fill="#9D9D9C" d="M26.907 36.619a1.852 1.852 0 0 1-1.87-1.87v-9.984h1.832c.71-.037 6.918-.15 8.452 0 1.047.075 1.794 1.01 1.72 2.02-.075 1.009-.973 1.794-2.02 1.72-.822-.075-3.74-.038-6.245 0v6.32c0 1.046-.822 1.869-1.87 1.869v-.075ZM84.157 36.62a1.852 1.852 0 0 1-1.87-1.87v-6.32c-2.505 0-5.422-.037-6.244 0-1.085.076-1.945-.672-2.02-1.72-.074-1.009.674-1.944 1.72-2.018 1.534-.15 7.741 0 8.452 0h1.832v10.021c0 1.047-.823 1.87-1.87 1.87v.037ZM32.292 117.728c-2.282 0-4.974-.038-5.423-.075h-1.832v-10.022c0-1.047.823-1.869 1.87-1.869a1.85 1.85 0 0 1 1.87 1.869v6.32c2.505.037 5.422.037 6.244 0 1.01-.075 1.945.673 2.02 1.72.074 1.047-.673 1.945-1.72 2.019-.561.038-1.72.075-3.03.075v-.037ZM78.772 117.728c-1.308 0-2.468 0-3.028-.075-1.047-.074-1.795-1.009-1.72-2.019.074-1.047.972-1.795 2.019-1.72.822.075 3.74.075 6.245 0v-6.32a1.85 1.85 0 0 1 1.87-1.869c1.046 0 1.869.822 1.869 1.869v9.985h-1.832c-.45.037-3.141.112-5.422.112v.037Z"/><path fill="#FF5100" d="M117.588 52.251c-5.983 0-10.845-4.861-10.845-10.844s4.862-10.844 10.845-10.844c5.983 0 10.844 4.86 10.844 10.844 0 5.983-4.861 10.844-10.844 10.844Zm0-17.912a7.101 7.101 0 0 0-7.105 7.105 7.101 7.101 0 0 0 7.105 7.105 7.102 7.102 0 0 0 7.105-7.105 7.102 7.102 0 0 0-7.105-7.105ZM101.321 70.76a1.851 1.851 0 0 1-1.87-1.87v-5.234a7.597 7.597 0 0 1 7.592-7.591h21.987a7.596 7.596 0 0 1 7.591 7.59v5.16c0 1.048-.822 1.87-1.869 1.87a1.852 1.852 0 0 1-1.87-1.87v-5.16a3.846 3.846 0 0 0-3.852-3.851h-21.987a3.846 3.846 0 0 0-3.852 3.852v5.235c0 1.047-.823 1.87-1.87 1.87Z"/><path fill="#852E2C" d="M118.036 77.155c-15.855 0-28.793-12.9-28.793-28.793 0-15.893 12.901-28.794 28.793-28.794 15.893 0 28.794 12.901 28.794 28.794 0 15.892-12.901 28.793-28.794 28.793Zm0-53.847c-13.798 0-25.054 11.218-25.054 25.054 0 13.836 11.219 25.054 25.054 25.054 13.836 0 25.055-11.218 25.055-25.054 0-13.836-11.219-25.054-25.055-25.054Z"/></svg>