<svg xmlns="http://www.w3.org/2000/svg" width="42" height="40" fill="none"><path fill="#852E2C" d="M9.37 39.92a.47.47 0 0 1-.35-.15L.89 31.65c-.2-.2-.2-.51 0-.71l3.88-3.88c.19-.19.52-.19.71 0l2.23 2.23c.2.2.2.51 0 .71-.2.2-.51.2-.71 0l-1.88-1.88-3.17 3.17 7.42 7.42 3.17-3.17L8.5 31.5c-.2-.2-.2-.51 0-.71.2-.2.51-.2.71 0l4.39 4.39c.09.09.15.22.15.35 0 .13-.05.26-.15.35l-3.88 3.88c-.1.1-.23.15-.35.15v.01ZM12.37 21.94a.47.47 0 0 1-.35-.15c-.2-.2-.2-.51 0-.71l2.89-2.89c.2-.2.51-.2.71 0 .2.2.2.51 0 .71l-2.89 2.89c-.1.1-.23.15-.35.15h-.01Z"/><path fill="#852E2C" d="M12.4 34.7a.494.494 0 0 1-.38-.82c.04-.05 1.04-1.19 2.29-1.19.7 0 1.7-.68 2.02-.94l2.62-2.62c.2-.2.51-.2.71 0 .2.2.2.51 0 .71L17 32.5c-.19.15-1.51 1.19-2.68 1.2-.66 0-1.34.61-1.54.85-.1.11-.24.17-.38.17v-.02ZM5.99 28.77c-.2 0-.39-.12-.46-.32-.1-.25.02-.54.27-.64.03-.02.52-.28.87-1.3.15-.43.19-1.03.24-1.66.08-1.13.17-2.41.97-3.21l2.93-2.93s.08-.07.13-.09c.07-.04 1.77-.86 3.77.33.24.14.32.45.17.69-.14.24-.45.32-.69.17-1.34-.79-2.46-.43-2.75-.32l-2.86 2.86c-.53.53-.6 1.57-.67 2.57-.05.7-.1 1.36-.29 1.92-.52 1.49-1.34 1.86-1.43 1.89-.06.02-.12.04-.18.04h-.02Z"/><path fill="#9D9D9C" d="M4.98 31.64a.71.71 0 1 0 0-1.42.71.71 0 0 0 0 1.42Z"/><path fill="#010101" d="M33.15 39.27a.47.47 0 0 1-.35-.15l-3.88-3.88c-.2-.2-.2-.51 0-.71l4.39-4.39c.2-.2.51-.2.71 0 .2.2.2.51 0 .71l-4.04 4.04 3.17 3.17 7.42-7.42-3.17-3.17-1.88 1.88c-.2.2-.51.2-.71 0-.2-.2-.2-.51 0-.71l2.23-2.23a.51.51 0 0 1 .35-.15c.13 0 .26.05.35.15l3.88 3.88c.2.2.2.51 0 .71l-8.12 8.12a.51.51 0 0 1-.35.15ZM30.15 21.29a.47.47 0 0 1-.35-.15l-3.3-3.3c-.2-.2-.2-.51 0-.71.2-.2.51-.2.71 0l3.3 3.3c.2.2.2.51 0 .71-.1.1-.23.15-.35.15h-.01Z"/><path fill="#010101" d="M30.12 34.05c-.14 0-.28-.06-.38-.17-.21-.24-.89-.85-1.54-.85-1.18 0-2.5-1.04-2.65-1.16l-3.18-3.21a.513.513 0 0 1 0-.71c.19-.2.51-.19.71 0l3.14 3.18c.28.22 1.28.9 1.98.9 1.25 0 2.25 1.14 2.29 1.19a.493.493 0 0 1-.38.82l.01.01ZM36.53 28.12c-.06 0-.12-.01-.18-.04-.09-.04-.91-.4-1.43-1.89-.19-.56-.24-1.22-.29-1.92-.07-1-.14-2.04-.67-2.57l-2.86-2.86c-.28-.11-1.4-.48-2.74.32-.24.14-.54.06-.69-.17a.513.513 0 0 1 .17-.69c2-1.19 3.7-.36 3.77-.33.05.02.09.06.13.09l2.93 2.93c.8.8.89 2.08.97 3.21.04.63.09 1.23.24 1.66.36 1.05.86 1.29.87 1.3.24.12.36.41.25.66-.08.19-.26.3-.45.3h-.02Z"/><path fill="#9D9D9C" d="M37.54 30.99a.71.71 0 1 0 0-1.42.71.71 0 0 0 0 1.42Z"/><path fill="#FF5100" d="M20.08 30.21c-1 0-1.82-.82-1.82-1.82V25.9c0-.28.22-.5.5-.5s.5.22.5.5v2.49c0 .45.37.82.82.82.45 0 .82-.37.82-.82v-2.28c0-.28.22-.5.5-.5s.5.22.5.5v2.28c0 1-.82 1.82-1.82 1.82ZM26.68 7.09h-6.21c-.28 0-.5-.22-.5-.5s.22-.5.5-.5h5.71V1.6H15.69v4.49h2.65c.28 0 .5.22.5.5s-.22.5-.5.5h-3.15c-.28 0-.5-.22-.5-.5V1.1c0-.28.22-.5.5-.5h11.49c.28 0 .5.22.5.5v5.49c0 .28-.22.5-.5.5Z"/><path fill="#FF5100" d="M17.41 28.8c-1 0-1.82-.82-1.82-1.82V15.94c0-.28.22-.5.5-.5s.5.22.5.5v11.04c0 .45.37.82.82.82.45 0 .82-.37.82-.82V16.89c0-.28.22-.5.5-.5s.5.22.5.5v10.09c0 1-.82 1.82-1.82 1.82ZM25.36 25.49c-1 0-1.82-.82-1.82-1.82V16.7c0-.28.22-.5.5-.5s.5.22.5.5v6.97c0 .45.37.82.82.82.45 0 .82-.37.82-.82V11.41c-.04-.36-.27-1.54-.76-2.04-.88-.89-.78-2.4-.78-2.47.02-.28.26-.48.53-.46a.5.5 0 0 1 .46.53c-.02.31.03 1.23.49 1.69.83.84 1.03 2.5 1.05 2.69v12.31c0 1-.81 1.82-1.82 1.82l.01.01Z"/><path fill="#FF5100" d="M22.72 28.8c-1 0-1.82-.82-1.82-1.82V16.84c0-.28.22-.5.5-.5s.5.22.5.5v10.14c0 .45.37.82.82.82.45 0 .82-.37.82-.82v-3.65c0-.28.22-.5.5-.5s.5.22.5.5v3.65c0 1-.82 1.82-1.82 1.82ZM16.1 19.35s-.08 0-.12-.02c-2.26-.57-2.87-2.36-2.9-2.43a.415.415 0 0 1-.03-.16V12.6c0-1.13.84-2.1 1.58-2.95.42-.48.81-.93 1.01-1.34.48-1 .3-1.53.3-1.53-.09-.25.03-.54.29-.64.25-.1.53.01.64.26.04.09.36.93-.33 2.35-.26.53-.69 1.03-1.15 1.56-.66.76-1.34 1.54-1.34 2.29v4.05c.12.27.65 1.33 2.17 1.72.27.07.43.34.36.61-.06.23-.26.38-.48.38v-.01Z"/><path fill="#9D9D9C" d="M17.58 4.72a.71.71 0 1 0 0-1.42.71.71 0 0 0 0 1.42ZM17.82 35.11l-.12.57.11-.57a.58.58 0 0 0-.68.46c-.06.31.14.62.46.68h.01c.04 0 .07.01.11.01.27 0 .51-.19.57-.47a.587.587 0 0 0-.46-.68ZM22.24 35.3a.58.58 0 0 0-.52.63c.03.3.28.52.57.52h.08c.32-.04.54-.32.51-.64a.582.582 0 0 0-.64-.51ZM20.03 35.37a.573.573 0 0 0-.6.55c-.01.32.24.59.56.6h.03c.31 0 .56-.24.58-.55a.573.573 0 0 0-.55-.6h-.02ZM15.68 34.52a.579.579 0 0 0-.39 1.09c.06.02.13.03.2.03.24 0 .46-.15.54-.38.11-.3-.05-.63-.35-.74ZM24.43 34.89c-.31.08-.5.4-.42.7.07.26.3.43.56.43.05 0 .1 0 .15-.02h.02c.31-.08.49-.4.4-.71a.58.58 0 0 0-.71-.41v.01ZM26.52 34.16a.58.58 0 0 0 .23 1.11c.08 0 .16-.02.23-.05h.01c.29-.13.42-.47.29-.76-.13-.29-.47-.42-.76-.29v-.01ZM13.47 7.77c.09 0 .19-.02.27-.07.28-.15.39-.5.24-.78a.575.575 0 1 0-1.01.55c.1.19.31.31.51.31l-.01-.01ZM6.77 14.24a.563.563 0 0 0 .78-.24v-.02c.15-.29.03-.63-.25-.77a.58.58 0 0 0-.77.26c-.15.28-.04.63.24.78v-.01ZM5.96 16.42c.06.02.12.03.19.03.24 0 .47-.15.55-.39v-.02c.1-.31-.07-.63-.38-.72-.3-.09-.62.07-.72.38-.1.3.06.63.36.73v-.01ZM7.91 12.21c.1.07.22.11.34.11.18 0 .36-.08.47-.24.19-.27.13-.63-.13-.82a.578.578 0 0 0-.81.13c-.19.26-.13.62.13.81v.01ZM11.5 9.02c.12 0 .24-.04.35-.12.26-.19.31-.55.13-.81a.587.587 0 0 0-.81-.13h-.01c-.25.2-.31.57-.11.82.11.15.29.23.46.23l-.01.01ZM5.44 25.2c.08.25.31.41.55.41.06 0 .11 0 .17-.03.3-.09.48-.42.38-.72-.09-.3-.4-.48-.71-.4a.58.58 0 0 0-.41.71v.03h.02ZM9.75 10.55c.15 0 .3-.06.41-.17.23-.23.23-.59 0-.82a.574.574 0 0 0-.82 0c-.22.24-.22.6 0 .83.11.11.26.16.4.16h.01ZM6.08 22.67a.58.58 0 0 0-.64-.5c-.32.04-.54.33-.51.64v.02c.05.29.29.49.57.49h.08a.58.58 0 0 0 .49-.65h.01ZM5.35 21.01h.02c.31 0 .57-.25.58-.56v-.02a.58.58 0 0 0-.58-.58c-.32 0-.57.26-.58.57 0 .32.24.58.56.59ZM5.48 18.69h.1c.27 0 .52-.2.57-.48v-.03a.583.583 0 1 0-.68.49l.01.02ZM32.79 12.4c.11.16.29.25.48.25.11 0 .23-.03.33-.1.26-.18.33-.54.15-.81a.578.578 0 0 0-.8-.15c-.26.18-.33.54-.15.8l-.01.01ZM35.74 18.22c-.32.04-.55.32-.51.64v.03c.04.29.29.5.58.5h.08c.31-.04.53-.33.49-.65a.582.582 0 0 0-.64-.51v-.01ZM34.77 16.59c.07.26.3.42.56.42.05 0 .11 0 .16-.02.31-.09.48-.41.39-.72a.581.581 0 0 0-.72-.4c-.31.09-.48.41-.39.72ZM33.95 14.42c.1.21.31.33.52.33.09 0 .17-.02.25-.06.29-.14.41-.49.26-.77l-.52.24.52-.25a.585.585 0 0 0-.77-.28c-.29.13-.41.48-.28.77v.02h.02ZM31.33 10.59c.11.12.26.17.41.17.15 0 .29-.05.41-.17a.57.57 0 0 0 .01-.81.583.583 0 0 0-.82-.03c-.23.22-.25.58-.03.82l.02.02ZM35.93 20.64c-.32 0-.58.24-.6.56-.01.32.23.59.55.6h.03c.3 0 .56-.24.58-.55v-.02c0-.32-.24-.58-.56-.59ZM27.63 7.75h.01c.09.05.18.08.27.08.21 0 .41-.11.51-.31.15-.28.04-.63-.24-.78a.59.59 0 0 0-.79.23.59.59 0 0 0 .23.79l.01-.01ZM29.59 9.02c.1.09.23.12.35.12.17 0 .35-.08.46-.23.19-.25.14-.62-.11-.81a.574.574 0 1 0-.7.91v.01Z"/></svg>