<svg xmlns="http://www.w3.org/2000/svg" width="34" height="40" fill="none"><path fill="#9D9D9C" d="M33.39 32.32H1.13c-.28 0-.5-.22-.5-.5s.22-.5.5-.5H33.4c.28 0 .5.22.5.5s-.22.5-.5.5h-.01Z"/><path fill="#010101" d="M22.16 39.96c-.1 0-.2-.03-.28-.09-2.92-2.01-2.32-5.23-2.3-5.36.05-.27.32-.44.59-.39.27.05.45.32.39.59-.02.11-.49 2.71 1.88 4.35a.504.504 0 0 1-.28.92v-.02ZM12.37 39.96a.49.49 0 0 1-.41-.22.5.5 0 0 1 .13-.7c2.37-1.63 1.9-4.24 1.88-4.35-.05-.27.12-.53.4-.59.27-.05.53.12.59.39.03.14.63 3.35-2.3 5.36-.09.06-.19.09-.28.09l-.01.02Z"/><path fill="#010101" d="M24.88 39.96H9.64c-.28 0-.5-.22-.5-.5s.22-.5.5-.5h15.24c.28 0 .5.22.5.5s-.22.5-.5.5Z"/><path fill="#852E2C" d="M31.93 35.11H2.59c-1.08 0-1.96-.88-1.96-1.96V10.08c0-1.08.88-1.97 1.96-1.97H6.9c.28 0 .5.22.5.5s-.22.5-.5.5H2.59c-.53 0-.96.43-.96.97v23.06c0 .53.43.96.96.96h29.33c.53 0 .97-.43.97-.96V10.08a.97.97 0 0 0-.97-.97h-4.26c-.28 0-.5-.22-.5-.5s.22-.5.5-.5h4.26c1.08 0 1.97.88 1.97 1.97v23.06c0 1.08-.88 1.96-1.97 1.96l.01.01Z"/><path fill="#FF5100" d="m17.26 25.4-.55-.23C7.15 21.22 6.35 13.78 6.35 5.86v-.98L17.26.52l10.91 4.36v.98c0 7.92-.79 15.36-10.36 19.31l-.55.23ZM7.35 5.56v.3c0 7.86.73 14.67 9.74 18.39l.17.07.17-.07c9.01-3.72 9.74-10.53 9.74-18.39v-.3L17.26 1.6 7.35 5.56Z"/><path fill="#852E2C" d="M17.26 18.92c-3.29 0-5.96-2.67-5.96-5.96S13.97 7 17.26 7s5.96 2.67 5.96 5.96-2.67 5.96-5.96 5.96Zm0-10.93c-2.74 0-4.96 2.23-4.96 4.96s2.23 4.96 4.96 4.96 4.96-2.23 4.96-4.96-2.23-4.96-4.96-4.96Z"/><path fill="#FF5100" d="M15.89 15.65a.47.47 0 0 1-.35-.15l-1.66-1.66c-.2-.19-.2-.51 0-.71.2-.2.51-.19.71 0l1.31 1.3 4.04-4.04c.2-.2.51-.2.71 0 .2.2.2.51 0 .71l-4.39 4.39c-.1.1-.23.15-.35.15l-.02.01Z"/></svg>