<svg xmlns="http://www.w3.org/2000/svg" width="40" height="40" fill="none"><path fill="#010101" d="M3.16 36.21h-1V24.13c0-1.37 1.12-2.49 2.49-2.49h16.43c1.37 0 2.49 1.12 2.49 2.49v11.99h-1V24.13c0-.82-.67-1.49-1.49-1.49H4.65c-.82 0-1.49.67-1.49 1.49v12.08Z"/><path fill="#010101" d="M24.01 39.76H1.73c-.67 0-1.22-.55-1.22-1.22V35.7h10.44v1.11h3.82V35.7h10.45v2.84c0 .67-.55 1.22-1.22 1.22h.01Zm-22.5-3.05v1.84c0 .12.1.22.22.22h22.28c.12 0 .22-.1.22-.22v-1.84h-8.45v1.11H9.96v-1.11H1.51Z"/><path fill="#852E2C" d="M30.41 19.94c-3.05 0-5.44-4.21-5.44-9.59S27.36.76 30.41.76c3.05 0 5.44 4.21 5.44 9.59s-2.39 9.59-5.44 9.59Zm0-18.18c-2.41 0-4.44 3.93-4.44 8.59s2.03 8.59 4.44 8.59c2.41 0 4.44-3.93 4.44-8.59s-2.03-8.59-4.44-8.59Z"/><path fill="#FF5100" d="M38 4.85H22.82v1H38v-1ZM39.5 9.85H21.32v1H39.5v-1ZM38.01 14.85H22.82v1h15.19v-1Z"/><path fill="#852E2C" d="M30.91 1.26h-1v18.18h1V1.26Z"/><path fill="#852E2C" d="M30.41 19.94c-5.29 0-9.59-4.3-9.59-9.59S25.12.76 30.41.76 40 5.06 40 10.35s-4.3 9.59-9.59 9.59Zm0-18.18c-4.74 0-8.59 3.85-8.59 8.59s3.85 8.59 8.59 8.59S39 15.09 39 10.35s-3.85-8.59-8.59-8.59Z"/><path fill="#9D9D9C" d="M7.55 16.39a.5.5 0 0 1-.46-.69c.72-1.73 1.83-3.48 3.21-5.04 2.61-2.95 5.83-4.9 8.62-5.22.28-.04.52.17.55.44.03.27-.17.52-.44.55-2.52.29-5.58 2.16-7.99 4.89C9.73 12.8 8.68 14.45 8 16.08a.51.51 0 0 1-.46.31h.01Z"/><path fill="#9D9D9C" d="m6.27 14.03 1.54 1.3 2-.21-3.06 3.65-.48-4.74ZM26.67 32.08c-.25 0-.47-.19-.5-.44-.03-.27.17-.52.44-.55 2.52-.29 5.58-2.16 7.99-4.89 1.31-1.48 2.36-3.13 3.04-4.76.1-.25.4-.38.65-.27.25.11.38.4.27.65-.72 1.73-1.83 3.48-3.21 5.04-2.61 2.95-5.83 4.9-8.62 5.22h-.06Z"/><path fill="#9D9D9C" d="m39.38 23.48-1.54-1.29-2 .2 3.07-3.65.47 4.74Z"/></svg>