<svg xmlns="http://www.w3.org/2000/svg" width="36" height="39" fill="none"><path fill="#9D9D9C" d="M31.07.21H5.45v1h25.62v-1ZM26.31 7.31H10.43v1h15.88v-1Z"/><path fill="#FF5100" d="M16.85 30.67c-.58 0-1.13-.23-1.55-.64l-1.86-1.86c-.85-.86-.85-2.25 0-3.1.83-.83 2.27-.83 3.1 0l.32.32 3.07-3.08c.83-.83 2.27-.83 3.1 0 .85.85.85 2.24 0 3.1l-4.62 4.62c-.41.41-.96.64-1.55.64h-.01Zm-1.86-5.25c-.32 0-.61.12-.84.35-.46.46-.46 1.22 0 1.68l1.86 1.86c.45.46 1.23.45 1.68 0l4.62-4.62c.46-.46.47-1.22 0-1.68-.45-.45-1.23-.45-1.68 0l-3.78 3.79-1.03-1.03c-.23-.22-.52-.35-.84-.35h.01Z"/><path fill="#9D9D9C" d="M18.23 34.37c-4.52 0-8.2-3.68-8.2-8.2s3.68-8.2 8.2-8.2 8.2 3.68 8.2 8.2-3.68 8.2-8.2 8.2Zm0-15.4c-3.97 0-7.2 3.23-7.2 7.2s3.23 7.2 7.2 7.2 7.2-3.23 7.2-7.2-3.23-7.2-7.2-7.2Z"/><path fill="#852E2C" d="M8.92 19.57a.49.49 0 0 1-.41-.22L.83 8.15a.502.502 0 0 1-.02-.54L5.02.45A.51.51 0 0 1 5.44.2c.17 0 .33.08.43.22L16 15.5a.498.498 0 0 1-.83.55L5.48 1.65l-3.65 6.2 7.5 10.94a.5.5 0 0 1-.13.7c-.09.06-.19.09-.28.09v-.01ZM27.91 19.59l-.83-.56 7.61-11.18-3.65-6.2-9.69 14.42-.83-.56L30.65.43c.1-.14.26-.22.43-.22.17 0 .33.1.42.25l4.21 7.16c.1.17.09.38-.02.53L27.9 19.59h.01Z"/><path fill="#010101" d="M18.24 38.31c-.69 0-1.33-.3-1.77-.83a1.31 1.31 0 0 0-1.54-.35c-.63.28-1.34.27-1.96-.02-.62-.3-1.07-.85-1.24-1.51-.15-.57-.66-.98-1.24-.99-.69-.02-1.32-.34-1.75-.87-.43-.54-.59-1.23-.46-1.9.11-.57-.17-1.16-.69-1.43a2.307 2.307 0 0 1-.79-3.45c.36-.47.36-1.12 0-1.58a2.28 2.28 0 0 1-.41-1.92c.15-.67.59-1.23 1.2-1.54.52-.27.8-.85.69-1.42-.14-.67.03-1.36.46-1.9.43-.54 1.07-.86 1.75-.87.58-.02 1.09-.42 1.24-.99a2.317 2.317 0 0 1 3.2-1.53c.53.24 1.17.1 1.54-.35.88-1.05 2.66-1.05 3.54 0 .38.45 1.01.59 1.54.35a2.317 2.317 0 0 1 3.19 1.54c.15.57.65.97 1.24.99a2.315 2.315 0 0 1 2.21 2.77c-.11.58.17 1.16.68 1.42.61.31 1.05.87 1.2 1.54.15.67 0 1.37-.41 1.92a1.29 1.29 0 0 0 0 1.58c.41.55.56 1.24.41 1.91-.15.67-.59 1.24-1.2 1.55-.52.27-.81.86-.69 1.42.14.67-.03 1.36-.46 1.9-.43.54-1.07.86-1.75.88-.58.02-1.09.42-1.24.99a2.31 2.31 0 0 1-1.24 1.52c-.62.29-1.33.3-1.95.02-.53-.24-1.17-.09-1.54.35-.44.52-1.09.83-1.77.83l.01-.03Zm-2.78-2.29c.67 0 1.33.29 1.78.82.5.6 1.51.6 2.01 0 .67-.79 1.79-1.05 2.73-.62.35.16.75.16 1.1 0 .35-.17.61-.48.71-.86.26-1 1.15-1.71 2.18-1.74.39-.01.75-.19 1-.5.24-.3.33-.7.26-1.08-.21-1 .29-2.04 1.21-2.51.35-.18.6-.5.68-.88.09-.38 0-.77-.23-1.08-.63-.82-.63-1.96 0-2.79.24-.31.32-.71.23-1.09-.09-.38-.33-.7-.68-.87a2.315 2.315 0 0 1-1.21-2.51c.08-.38-.02-.78-.26-1.08-.24-.31-.61-.49-1-.5a2.326 2.326 0 0 1-2.18-1.74c-.1-.38-.35-.69-.7-.86-.35-.17-.75-.17-1.11-.01-.94.43-2.06.17-2.72-.62-.5-.6-1.51-.6-2.01 0-.67.79-1.79 1.05-2.73.62a1.307 1.307 0 0 0-1.81.87c-.26 1-1.15 1.71-2.18 1.74a1.321 1.321 0 0 0-1.26 1.58c.21 1-.29 2.04-1.21 2.51-.35.18-.6.5-.68.88-.08.38 0 .78.23 1.09.63.82.63 1.96 0 2.79-.23.31-.32.71-.23 1.09.09.38.34.7.68.88.91.46 1.41 1.5 1.21 2.51-.08.38.02.78.26 1.08.24.3.61.49 1 .5 1.03.03 1.92.74 2.18 1.74.1.38.36.69.71.86.35.17.76.17 1.11.01.3-.14.63-.2.95-.2l-.02-.03Z"/></svg>