<svg xmlns="http://www.w3.org/2000/svg" width="51" height="53" fill="none"><path fill="#010101" d="M12.85 25.711a.607.607 0 0 1-.453-.194.64.64 0 0 1 0-.918l8.408-8.408a.64.64 0 0 1 .918 0 .64.64 0 0 1 0 .919l-8.408 8.407a.65.65 0 0 1-.453.194h-.013Z"/><path fill="#852E2C" d="M41.294 52.306c-1.1 0-1.992-.543-2.044-.582l-6.028-3.66H13.91a4.99 4.99 0 0 1-4.98-4.98v-1.838h1.294v1.837a3.693 3.693 0 0 0 3.686 3.687h19.674l6.339 3.841s1.112.673 2.07.246c.284-.13.452-.724.478-1.086V46.77h2.716a3.693 3.693 0 0 0 3.687-3.687V20.395a3.693 3.693 0 0 0-3.687-3.686h-3.764v-1.294h3.764a4.99 4.99 0 0 1 4.98 4.98v22.688a4.99 4.99 0 0 1-4.98 4.98h-1.436v1.746c0 .22-.142 1.747-1.241 2.238-.414.181-.841.259-1.23.259h.014Z"/><path fill="#FF5100" d="M9.706 41.893a2.88 2.88 0 0 1-1.229-.26c-1.1-.49-1.228-2.017-1.241-2.185v-1.785H5.8a4.99 4.99 0 0 1-4.98-4.98V9.995A4.97 4.97 0 0 1 5.295 5.04h2.95v1.293H5.36c-1.824.194-3.247 1.76-3.247 3.66v22.689A3.693 3.693 0 0 0 5.8 36.369h2.716v3.04c.026.323.194.918.479 1.048.957.427 2.057-.233 2.07-.233l6.35-3.855H37.09a3.693 3.693 0 0 0 3.686-3.686V9.995a3.693 3.693 0 0 0-3.686-3.687H26.224V5.015H37.09a4.99 4.99 0 0 1 4.98 4.98v22.688a4.99 4.99 0 0 1-4.98 4.98H17.778l-6.028 3.66s-.931.57-2.03.57h-.014Z"/><path fill="#FF5100" d="M21.18 5.015h-6.597v1.293h6.597V5.015Z"/><path fill="#9D9D9C" d="M32.355 31.441h-.077a3.197 3.197 0 0 1-2.302-1.022l-9.03-9.442.932-.893 9.029 9.443c.375.388.866.608 1.397.62a2.014 2.014 0 0 0 2.043-1.952c0-.53-.18-1.048-.556-1.423l-8.537-8.913.931-.892 8.538 8.912c.608.634.931 1.475.918 2.354a3.197 3.197 0 0 1-1.022 2.303 3.264 3.264 0 0 1-2.276.918l.012-.013Z"/><path fill="#9D9D9C" d="M29.536 25.84a.657.657 0 0 1-.466-.194l-6.325-6.622a.652.652 0 0 1 .025-.919.652.652 0 0 1 .919.026l6.325 6.623a.652.652 0 0 1-.478 1.1v-.014ZM17.7 15.635l-3.997-4.243L10.34 9.84l-.168-.298-3.842-5.51c-.31-.686-.181-1.371.285-1.811L7.74 1.147A1.616 1.616 0 0 1 9.564.863l5.614 4.281.142.22 1.371 3.299 3.907 4.139-.945.892-4.113-4.423-1.358-3.273-5.29-4.036s-.156.026-.247.13L7.52 3.165a.217.217 0 0 0-.052.246l3.777 5.433 3.325 1.578 4.087 4.333-.944.893-.013-.013Z"/><path fill="#010101" d="M9.978 31.286c-.88 0-1.707-.336-2.328-.97a3.303 3.303 0 0 1 0-4.657l12.443-12.43a.26.26 0 0 0 .052-.272 8.557 8.557 0 0 1 .893-7.981 8.589 8.589 0 0 1 7.1-3.764c.26 0 .518 0 .777.039.4.026.763.31.892.698.143.35.052.802-.245 1.1l-2.497 2.51a2.04 2.04 0 0 0-.582 1.72l.31 2.185a2.03 2.03 0 0 0 1.72 1.734l2.213.31c.62.078 1.255-.13 1.707-.582l2.51-2.51c.31-.297.75-.387 1.138-.232.35.103.634.453.66.867a8.479 8.479 0 0 1-2.484 6.855 8.582 8.582 0 0 1-9.235 1.928c-.091-.04-.195-.013-.272.051l-12.444 12.43a3.28 3.28 0 0 1-2.328.971Zm18.16-28.794a7.297 7.297 0 0 0-6.027 3.195 7.333 7.333 0 0 0-.763 6.791c.22.57.09 1.216-.35 1.656L8.556 26.578a2.014 2.014 0 0 0 0 2.832c.75.75 2.07.75 2.833 0L23.83 16.98c.44-.44 1.087-.57 1.656-.35a7.288 7.288 0 0 0 7.839-1.642A7.253 7.253 0 0 0 35.46 9.71l-2.147 2.147a3.377 3.377 0 0 1-2.794.945l-2.212-.31a3.32 3.32 0 0 1-2.82-2.833l-.31-2.187a3.389 3.389 0 0 1 .944-2.82l2.134-2.134h-.13l.014-.026Z"/></svg>