<svg xmlns="http://www.w3.org/2000/svg" width="37" height="40" fill="none"><path fill="#9D9D9C" d="M29.12 6.95H7.4v1h21.72v-1ZM28.44 32.39H7.4v1h21.04v-1Z"/><path fill="#878787" d="m35.49 26.35-.94-.33c.65-1.84.98-3.78.98-5.75 0-5.36-2.43-10.33-6.66-13.63l.62-.79c4.48 3.49 7.04 8.75 7.04 14.41 0 2.09-.35 4.13-1.04 6.09ZM7.09 34.72c-4.51-3.49-7.1-8.76-7.1-14.46 0-5.7 2.59-10.97 7.1-14.46l.61.79C3.43 9.89.99 14.87.99 20.26c0 5.39 2.45 10.37 6.71 13.67l-.61.79Z"/><path fill="#010101" d="M26.57 39.93H9.95a3.06 3.06 0 0 1-3.06-3.06V3.65C6.89 1.97 8.26.59 9.95.59h16.61c1.68 0 3.06 1.37 3.06 3.06v21.36c0 .28-.22.5-.5.5s-.5-.22-.5-.5V3.65c0-1.13-.92-2.06-2.06-2.06H9.95c-1.13 0-2.06.92-2.06 2.06v33.22c0 1.13.92 2.06 2.06 2.06h16.61c1.13 0 2.06-.92 2.06-2.06v-3.31c0-.28.22-.5.5-.5s.5.22.5.5v3.31c0 1.68-1.37 3.06-3.06 3.06h.01Z"/><path fill="#010101" d="M18.26 38.01c-.98 0-1.78-.8-1.78-1.78s.8-1.78 1.78-1.78 1.78.8 1.78 1.78-.8 1.78-1.78 1.78Zm0-2.55a.781.781 0 0 0 0 1.56.781.781 0 0 0 0-1.56Z"/><path fill="#FF5100" d="m23.6 15.14-.44.69-.44-.69h-2.25v2.04h.67v-.84h.85v-.41h-.85v-.35h.99v-.21l.69.95v.86h.68v-.86l.85-1.18h-.75Z"/><path fill="#FF5100" d="M18.29 13.3c.17-.05.35-.07.52-.07.32 0 .51.09.51.09l2.25 1.08c-.24.38-.66.6-1.12.6-.2 0-.4-.04-.58-.13l-.04-.02c-.27-.7-.83-1.27-1.54-1.56m2.56 4.43-1.53.84c-.16.07-.61.19-1.15.19a3.81 3.81 0 0 1-1.49-.3 2.775 2.775 0 0 0 3.03-1.42c.44.06.89.33 1.15.7m-1.51-6.34c0 .35-.14.67-.39.91l-.98.89a2.826 2.826 0 0 0-1.71.07l2.8-2.7c.19.23.29.52.29.82m-2.12 3.08c.76 0 1.37.6 1.37 1.34 0 .74-.62 1.34-1.37 1.34-.75 0-1.37-.6-1.37-1.34 0-.74.62-1.34 1.37-1.34Zm4.52-.12-2.38-1.15s-.21-.11-.58-.11c-.17 0-.38.02-.61.1l.86-.79c.58-.56.58-1.46.01-2.02l-3.14 3.03v-1.67c0-.79-.64-1.44-1.45-1.44v5.5c0 .87.42 1.64 1.07 2.14.97.75 1.91.94 2.62.94.71 0 1.21-.2 1.21-.2l1.67-.91a1.85 1.85 0 0 0-1.28-.87 2.634 2.634 0 0 0 .13-1.86c.18.07.37.11.56.11.54 0 1.06-.29 1.31-.8Z"/><path fill="#FF5100" d="M17.24 10.53c.17 0 .31.14.31.31 0 .17-.14.31-.31.31-.17 0-.31-.14-.31-.31 0-.17.14-.31.31-.31Zm0 .85c.3 0 .54-.24.54-.53 0-.29-.24-.53-.54-.53-.3 0-.54.24-.54.53 0 .29.24.53.54.53ZM21.3 22.64c-.05 0-.1-.02-.15-.05-3.14-2.29-5.84-.13-5.96-.04-.11.09-.26.07-.35-.04a.251.251 0 0 1 .03-.35c.03-.03 3.11-2.49 6.57.02.11.08.14.24.05.35-.05.07-.12.1-.2.1l.01.01Z"/><path fill="#FF5100" d="M15.08 27.48c-.13 0-.25-.11-.25-.24 0-.08-.07-1.85 0-2.47.08-.75.43-1.42.97-1.88.83-.7 2.19-.94 3.46-.62 1.2.31 2.15 1.24 2.42 2.39l.03.14c.05.25.07.5.07.76 0 .14-.11.25-.25.25s-.25-.11-.25-.25c0-.23-.02-.46-.06-.67l-.02-.08c-.24-1-1.04-1.8-2.07-2.06-1.12-.29-2.3-.08-3.02.51-.45.37-.73.92-.8 1.55-.06.58 0 2.38 0 2.4 0 .14-.1.25-.24.26l.01.01Z"/><path fill="#FF5100" d="M15.31 28.55c-.1 0-.19-.06-.23-.16-.05-.13.01-.27.14-.32 0 0 .6-.24.66-.69.05-.37.01-.75-.02-1.15-.03-.33-.06-.68-.04-1.02.02-.38.13-.69.35-.98.58-.79 1.75-1.16 2.85-.89.62.15 1.12.5 1.35.96.15.3.2.62.24.92.02.13.04.26.06.38.06.28.32.78.92.92.13.03.22.16.19.3-.03.13-.16.22-.3.19-.85-.19-1.21-.91-1.3-1.3-.03-.14-.05-.28-.07-.42-.04-.28-.07-.54-.19-.77-.16-.33-.54-.59-1.01-.7-.9-.21-1.88.09-2.34.71-.16.21-.23.43-.25.71-.02.31.01.62.04.95.04.41.07.83.02 1.25-.09.75-.94 1.08-.98 1.09-.03.01-.06.02-.09.02Z"/><path fill="#FF5100" d="M15.5 29.69c-.1 0-.19-.06-.23-.16-.05-.13.01-.27.14-.32 0 0 .66-.27 1.18-1.02.08-.11.24-.14.35-.06.11.08.14.23.06.35-.62.88-1.38 1.19-1.41 1.2-.03.01-.06.02-.09.02v-.01ZM19.21 30.65h-.02a1.75 1.75 0 0 1-1.1-.52c-.17-.16-.35-.26-.55-.24-.5 0-.97.5-.98.51-.09.1-.25.11-.35.01a.242.242 0 0 1-.01-.35c.02-.03.62-.65 1.33-.67.35 0 .65.12.91.38.23.22.49.35.79.38a.25.25 0 0 1-.02.5ZM21.24 28.86c-.31 0-1.48-.08-2.64-1.28-.34-.35-.53-.95-.56-1.76 0-.14.1-.25.24-.26.14-.01.25.1.26.24.02.69.16 1.17.42 1.43 1.16 1.19 2.28 1.13 2.32 1.13.13-.03.26.1.27.23.01.13-.09.26-.23.27h-.08Z"/><path fill="#FF5100" d="M20.62 29.78h-.04c-.1-.02-2.39-.44-3.25-2.26-.5-1.05-.56-2.01-.16-2.62.25-.38.65-.57 1.14-.57 1 .03 1.23.93 1.36 1.47.03.12.06.23.09.32.17.45.8 1.18 1.79 1.32.14.02.23.15.21.28-.02.14-.15.23-.28.21-1.13-.16-1.93-.96-2.19-1.64-.04-.1-.07-.23-.11-.38-.16-.63-.31-1.08-.89-1.09-.3 0-.55.11-.71.35-.3.45-.23 1.25.19 2.13.75 1.58 2.86 1.98 2.88 1.99.14.02.23.15.2.29-.02.12-.13.21-.25.21l.02-.01ZM30.65 34.74l-.34-.14c-4.1-1.69-4.44-4.84-4.44-8.2v-.6l4.77-1.91 4.77 1.91v.6c0 3.36-.34 6.51-4.43 8.2l-.34.14h.01Zm-3.77-8.27c0 3.07.31 5.73 3.77 7.18 3.46-1.45 3.77-4.11 3.77-7.18l-3.77-1.51-3.77 1.51Z"/><path fill="#852E2C" d="m29.63 31.66-1.59-1.59c-.2-.19-.2-.51 0-.71.2-.2.51-.2.71 0l.88.88 2.92-2.92c.2-.2.51-.2.71 0 .2.2.2.51 0 .71l-3.63 3.63Z"/></svg>