<svg xmlns="http://www.w3.org/2000/svg" width="34" height="40" fill="none"><path fill="#9D9D9C" d="M22.146 6.854H.692v.987h21.454v-.987ZM22.403 31.982H.692v.988h21.711v-.988Z"/><path fill="#010101" d="M19.628 39.43H3.22a3.023 3.023 0 0 1-3.023-3.023V3.593A3.029 3.029 0 0 1 3.221.57h16.407a3.023 3.023 0 0 1 3.022 3.023v15.696a.49.49 0 0 1-.494.493.49.49 0 0 1-.493-.493V3.593a2.038 2.038 0 0 0-2.035-2.035H3.22a2.038 2.038 0 0 0-2.035 2.035v32.814c0 1.116.909 2.034 2.035 2.034h16.407a2.038 2.038 0 0 0 2.035-2.034v-5.848a.49.49 0 0 1 .493-.494.49.49 0 0 1 .494.494v5.848a3.029 3.029 0 0 1-3.022 3.022Z"/><path fill="#010101" d="M11.43 37.532c-.969 0-1.76-.79-1.76-1.758s.791-1.758 1.76-1.758c.967 0 1.757.79 1.757 1.758s-.79 1.758-1.758 1.758Zm0-2.519a.771.771 0 0 0 0 1.541.771.771 0 0 0 0-1.54Z"/><path fill="#FF5100" d="M15.281 15.417a.294.294 0 0 1-.148-.05c-4.04-2.953-7.537-.167-7.675-.049a.24.24 0 0 1-.346-.04.248.248 0 0 1 .03-.345c.04-.03 3.921-3.141 8.288.03a.241.241 0 0 1 .049.345.23.23 0 0 1-.198.1v.01Z"/><path fill="#FF5100" d="M7.36 21.59c-.13 0-.248-.109-.248-.237 0-.099-.079-2.36 0-3.141.1-.939.534-1.778 1.215-2.341 1.047-.88 2.756-1.176 4.346-.77 1.512.384 2.697 1.56 3.033 2.992l.04.188c.059.306.088.622.088.958a.245.245 0 0 1-.247.247.245.245 0 0 1-.247-.247c0-.296-.03-.593-.079-.87l-.02-.098c-.306-1.314-1.353-2.341-2.686-2.687-1.452-.365-2.983-.108-3.912.672-.582.484-.948 1.205-1.037 2.015-.079.74 0 3.042 0 3.062a.251.251 0 0 1-.237.257h-.01Z"/><path fill="#FF5100" d="M7.646 22.953a.244.244 0 0 1-.227-.158.24.24 0 0 1 .138-.316s.81-.316.889-.939c.06-.484.02-.968-.03-1.481-.04-.425-.079-.86-.049-1.294.03-.474.158-.86.425-1.215.72-.978 2.183-1.433 3.566-1.117.78.178 1.382.613 1.669 1.186.188.375.247.77.296 1.155.02.168.05.336.08.494.078.376.424 1.047 1.224 1.225a.25.25 0 0 1 .188.297.25.25 0 0 1-.297.187c-1.047-.227-1.501-1.116-1.6-1.6-.04-.178-.059-.356-.089-.533-.05-.356-.098-.702-.247-1.008-.217-.434-.72-.78-1.343-.928-1.175-.277-2.45.118-3.052.928-.208.277-.306.573-.336.948-.02.405.01.8.05 1.225.039.514.088 1.047.02 1.58-.11.91-1.157 1.324-1.196 1.334-.03.01-.06.02-.089.02l.01.01Z"/><path fill="#FF5100" d="M7.893 24.406a.244.244 0 0 1-.227-.159.24.24 0 0 1 .138-.316s.86-.345 1.541-1.323a.25.25 0 0 1 .346-.06.25.25 0 0 1 .059.346c-.77 1.107-1.719 1.492-1.768 1.502-.03.01-.06.02-.089.02v-.01ZM12.624 25.63h-.02a2.205 2.205 0 0 1-1.353-.642c-.227-.218-.464-.356-.75-.326-.672.01-1.294.662-1.294.672a.239.239 0 0 1-.346.01.239.239 0 0 1-.01-.346c.03-.03.77-.81 1.65-.83.405 0 .78.148 1.106.464.296.297.652.464 1.057.504.138.01.237.138.217.267a.248.248 0 0 1-.247.227h-.01ZM15.212 23.349c-.385 0-1.847-.109-3.309-1.61-.424-.435-.652-1.176-.691-2.203 0-.138.099-.247.237-.257.138 0 .247.1.257.237.03.9.217 1.531.553 1.877 1.501 1.541 3.003 1.462 3.022 1.462.139-.02.257.089.267.227 0 .139-.089.257-.227.267h-.109Z"/><path fill="#FF5100" d="M14.422 24.525h-.04c-.118-.02-3.003-.563-4.09-2.845-.621-1.323-.7-2.509-.207-3.27.307-.464.81-.71 1.393-.7 1.225.039 1.502 1.155 1.67 1.817.039.158.079.306.118.415.227.592 1.047 1.54 2.341 1.728a.244.244 0 1 1-.07.484c-1.412-.197-2.41-1.195-2.735-2.035-.05-.128-.09-.296-.138-.474-.198-.81-.415-1.422-1.206-1.442-.424-.02-.75.148-.968.474-.395.603-.306 1.64.237 2.786.978 2.054 3.705 2.568 3.724 2.568.139.02.227.148.198.287a.254.254 0 0 1-.247.207h.02Z"/><path fill="#852E2C" d="M26.354 30.056a3.305 3.305 0 0 1-3.299-3.3v-2.429c0-.277.227-.494.494-.494h.415v-.978a2.392 2.392 0 0 1 2.39-2.39 2.386 2.386 0 0 1 2.39 2.39v.978h.416c.276 0 .494.227.494.494v2.43c0 1.817-1.482 3.3-3.3 3.3Zm-2.805-5.739v2.44a2.803 2.803 0 0 0 2.805 2.805 2.81 2.81 0 0 0 2.806-2.805v-2.44h-.91v-1.472a1.897 1.897 0 0 0-3.792 0v1.472h-.909Z"/><path fill="#852E2C" d="M27.678 24.317h-2.647v-1.472a1.324 1.324 0 0 1 2.647 0v1.472Zm-2.153-.494h1.66v-.978a.835.835 0 0 0-.83-.83.835.835 0 0 0-.83.83v.978ZM26.354 28.001c-.74 0-1.343-.602-1.343-1.343s.602-1.344 1.343-1.344a1.345 1.345 0 0 1 0 2.687Zm0-2.183a.85.85 0 0 0-.85.85c0 .474.376.85.85.85s.85-.376.85-.85a.843.843 0 0 0-.85-.85Z"/><path fill="#FF5100" d="m26.492 33.71-.424-.178c-6.352-2.617-6.875-7.546-6.875-12.781V20l7.3-2.924 7.3 2.924v.75c0 5.246-.524 10.165-6.876 12.782l-.425.178Zm-6.311-13.038v.089c0 5.077.474 9.482 6.262 11.873h.089c5.798-2.39 6.272-6.796 6.272-11.873v-.09l-6.312-2.528-6.311 2.529Z"/></svg>