<svg xmlns="http://www.w3.org/2000/svg" width="32" height="41" fill="none"><path fill="#9D9D9C" d="M26.64 6.09H6.71v1h19.93v-1ZM26.64 29.43H20.7v1h5.94v-1Z"/><path fill="#010101" d="M24.29 36.43h-6.71c-.28 0-.5-.22-.5-.5s.22-.5.5-.5h6.71c1.02 0 1.84-.83 1.84-1.84v-3.65c0-.28.22-.5.5-.5s.5.22.5.5v3.65c0 1.57-1.28 2.84-2.84 2.84ZM6.71 22.14c-.28 0-.5-.22-.5-.5V3.1C6.21 1.53 7.49.26 9.05.26h15.24c1.57 0 2.84 1.29 2.84 2.88v17.13c0 .28-.22.5-.5.5s-.5-.22-.5-.5V3.13c0-1.03-.83-1.88-1.84-1.88H9.05c-1.02 0-1.84.83-1.84 1.84v18.54c0 .28-.22.5-.5.5v.01Z"/><path fill="#852E2C" d="M10.02 40.26a9.41 9.41 0 0 1-5.44-1.73C1.67 36.48.14 32.94.67 29.5l.39-8.43a3.027 3.027 0 0 1 2.51-2.91c.8-.14 1.6.04 2.26.51.7.49 1.16 1.26 1.26 2.11l.08.82 5.79-8.17a3.03 3.03 0 0 1 4.22-.74c.66.47 1.1 1.16 1.24 1.96.14.8-.04 1.6-.51 2.26l-2.83 4.03c.43.07.84.24 1.2.5 1.13.79 1.53 2.24 1.06 3.48.4.07.78.23 1.12.46 1 .7 1.4 1.94 1.08 3.05a2.433 2.433 0 0 1 1.24 4.06l-3.93 4.72h-.01c-1.75 2.01-4.27 3.07-6.83 3.07l.01-.02ZM4.09 19.1c-.12 0-.23 0-.35.03-.53.09-1 .39-1.31.83-.23.33-.36.73-.37 1.13l-.4 8.5c-.48 3.12.89 6.29 3.49 8.11 3.6 2.53 8.5 1.9 11.15-1.44l.23-.29h.02l3.5-4.2a1.425 1.425 0 0 0-.2-2.16 1.44 1.44 0 0 0-1.01-.25l-1.08.15.59-.91c.52-.81.31-1.87-.47-2.43-.38-.27-.85-.38-1.31-.3l-1.3.21.92-1.13a1.959 1.959 0 0 0-1.98-3.05l-1.22.24 4.1-5.84c.31-.44.43-.98.34-1.52-.09-.53-.39-1-.83-1.31a2.04 2.04 0 0 0-1.52-.34c-.53.09-1 .39-1.31.83L7.15 23.3l-.75.24-.11-.6-.2-2.07c-.07-.57-.38-1.08-.85-1.41-.35-.24-.75-.37-1.16-.37l.01.01Z"/><path fill="#FF5100" d="M26.88 30.23c-2.8 0-5.08-2.28-5.08-5.08 0-2.8 2.28-5.08 5.08-5.08 2.8 0 5.08 2.28 5.08 5.08 0 2.8-2.28 5.08-5.08 5.08Zm0-9.16c-2.25 0-4.08 1.83-4.08 4.08s1.83 4.08 4.08 4.08 4.08-1.83 4.08-4.08-1.83-4.08-4.08-4.08Z"/><path fill="#852E2C" d="m25.94 27.36-1.49-1.49c-.2-.2-.2-.51 0-.71.2-.2.51-.2.71 0l.78.78 2.65-2.65c.2-.2.51-.2.71 0 .2.2.2.51 0 .71l-3.36 3.36Z"/></svg>