<svg xmlns="http://www.w3.org/2000/svg" width="144" height="124" fill="none"><path fill="#9D9D9C" d="M98.388 81.896H24.693c-5.08 0-9.172-4.127-9.172-9.172V51.311c0-5.08 4.127-9.172 9.172-9.172h75.07c5.08 0 9.173 4.127 9.173 9.172v17.92h-3.528v-17.92c0-3.105-2.54-5.645-5.645-5.645h-75.07c-3.105 0-5.645 2.54-5.645 5.645v21.413c0 3.105 2.54 5.645 5.645 5.645h73.66v3.527h.035Z"/><path fill="#852E2C" d="M31.043 66.832a.873.873 0 0 1-.882-.882v-7.937c0-.494.388-.882.882-.882s.882.388.882.882v7.937a.873.873 0 0 1-.882.882Z"/><path fill="#852E2C" d="M27.762 65.14a.92.92 0 0 1-.74-.389c-.283-.388-.177-.952.21-1.234L33.76 59c.388-.282.953-.176 1.235.212.282.388.176.952-.212 1.235l-6.526 4.515s-.317.141-.494.141v.035Z"/><path fill="#852E2C" d="M34.288 65.14s-.352-.036-.494-.142l-6.526-4.515a.892.892 0 0 1-.212-1.235.892.892 0 0 1 1.235-.212l6.527 4.516a.892.892 0 0 1 .211 1.235.92.92 0 0 1-.74.388v-.036ZM48.823 66.832a.873.873 0 0 1-.882-.882v-7.937c0-.494.388-.882.882-.882s.882.388.882.882v7.937a.873.873 0 0 1-.882.882Z"/><path fill="#852E2C" d="M45.577 65.14a.92.92 0 0 1-.74-.389c-.283-.388-.177-.952.211-1.234L51.574 59c.389-.282.953-.176 1.235.212.282.388.177.952-.212 1.235l-6.526 4.515s-.317.141-.494.141v.035Z"/><path fill="#852E2C" d="M52.103 65.14s-.352-.036-.493-.142l-6.527-4.515a.892.892 0 0 1-.211-1.235.892.892 0 0 1 1.234-.212l6.527 4.516a.892.892 0 0 1 .211 1.235.92.92 0 0 1-.74.388v-.036ZM75.81 66.832a.873.873 0 0 1-.882-.882v-7.937c0-.494.388-.882.882-.882s.882.388.882.882v7.937a.873.873 0 0 1-.882.882Z"/><path fill="#852E2C" d="M72.53 65.14a.92.92 0 0 1-.742-.389c-.282-.388-.176-.952.212-1.234L78.526 59c.388-.282.953-.176 1.235.212.282.388.177.952-.212 1.235l-6.526 4.515s-.317.141-.494.141v.035Z"/><path fill="#852E2C" d="M79.055 65.14s-.352-.036-.494-.142l-6.526-4.515a.892.892 0 0 1-.212-1.235.892.892 0 0 1 1.235-.212l6.527 4.516a.892.892 0 0 1 .211 1.235.92.92 0 0 1-.74.388v-.036ZM93.449 66.832a.873.873 0 0 1-.882-.882v-7.937c0-.494.388-.882.882-.882s.882.388.882.882v7.937a.873.873 0 0 1-.882.882Z"/><path fill="#852E2C" d="M90.203 65.14a.92.92 0 0 1-.74-.389c-.283-.388-.177-.952.211-1.234L96.2 59c.388-.282.953-.176 1.235.212.282.388.177.952-.212 1.235l-6.526 4.515s-.317.141-.494.141v.035Z"/><path fill="#852E2C" d="M96.694 65.14s-.353-.036-.494-.142l-6.526-4.515a.892.892 0 0 1-.212-1.235c.283-.388.847-.494 1.235-.212l6.526 4.516a.892.892 0 0 1 .212 1.235.92.92 0 0 1-.74.388v-.036ZM119.413 103.556c-5.821 0-10.548-4.727-10.548-10.548v-7.69c0-.918.741-1.658 1.658-1.658h1.199V80.66a7.648 7.648 0 0 1 7.656-7.655 7.648 7.648 0 0 1 7.655 7.655v2.999h1.199c.918 0 1.658.74 1.658 1.658v7.69c0 5.821-4.727 10.548-10.548 10.548h.071Zm-8.855-18.132.106 7.584c0 4.833 3.951 8.784 8.784 8.784s8.784-3.95 8.784-8.784v-7.584h-2.892V80.66a5.902 5.902 0 0 0-5.892-5.891 5.902 5.902 0 0 0-5.891 5.891v4.763h-2.999Z"/><path fill="#852E2C" d="M123.717 85.424h-8.573V80.66a4.26 4.26 0 0 1 4.269-4.268 4.26 4.26 0 0 1 4.268 4.268v4.763h.036Zm-6.809-1.764h5.045V80.66a2.514 2.514 0 0 0-2.505-2.505 2.514 2.514 0 0 0-2.505 2.505v2.999h-.035ZM119.413 97.065a4.336 4.336 0 0 1-4.339-4.34c0-2.398 1.94-4.338 4.339-4.338a4.336 4.336 0 0 1 4.339 4.339c0 2.399-1.94 4.339-4.339 4.339Zm0-6.914a2.59 2.59 0 0 0-2.575 2.575 2.59 2.59 0 0 0 2.575 2.575 2.59 2.59 0 0 0 2.575-2.575 2.59 2.59 0 0 0-2.575-2.575Z"/><path fill="#010101" d="M62.228 123.348C28.398 123.348.881 95.831.881 62S28.397.652 62.228.652 123.611 28.17 123.611 62c0 .988 0 2.01-.07 2.999l-3.528-.177c.035-.952.07-1.87.07-2.822 0-31.89-25.929-57.82-57.855-57.82S4.408 30.11 4.408 62s25.93 57.82 57.82 57.82c15.77 0 30.515-6.244 41.487-17.533l2.54 2.469c-11.642 11.995-27.305 18.627-44.027 18.627v-.035Z"/><path fill="#FF5100" d="m119.872 115.198-1.411-.6c-20.18-8.325-21.837-23.953-21.837-40.57v-2.504l23.248-9.313 23.248 9.313v2.505c0 16.616-1.658 32.244-21.837 40.569l-1.411.6Zm-19.72-41.275v.141c0 15.98 1.481 29.81 19.649 37.289h.141c18.168-7.515 19.65-21.343 19.65-37.289v-.14l-19.72-7.903-19.72 7.902Z"/><path fill="#010101" d="m103.004 18.716-84.04 84.04 2.495 2.494 84.04-84.04-2.495-2.494Z"/></svg>