<svg xmlns="http://www.w3.org/2000/svg" width="39" height="40" fill="none"><path fill="#010101" d="M28.01 5.61c-.28 0-.5-.22-.5-.5V2.17c0-.28.22-.5.5-.5s.5.22.5.5v2.94c0 .28-.22.5-.5.5ZM20.87 39.68s-.08 0-.12-.01a.497.497 0 0 1-.37-.6l2.87-11.98a.49.49 0 0 1 .6-.37c.27.06.43.33.37.6L21.35 39.3c-.05.23-.26.38-.49.38h.01ZM35.15 39.68c-.23 0-.43-.15-.49-.38l-2.87-11.98c-.06-.27.1-.54.37-.6.27-.07.54.1.6.37l2.87 11.98c.06.27-.1.54-.37.6-.04 0-.08.01-.12.01h.01Z"/><path fill="#010101" d="M33.98 34.68H22.07c-.28 0-.5-.22-.5-.5s.22-.5.5-.5h11.91c.28 0 .5.22.5.5s-.22.5-.5.5Z"/><path fill="#FF5100" d="M6.68 8.82c-2.2 0-3.99-1.79-3.99-3.99S4.48.84 6.68.84s3.99 1.79 3.99 3.99-1.79 3.99-3.99 3.99Zm0-6.98c-1.65 0-2.99 1.34-2.99 2.99 0 1.65 1.34 2.99 2.99 2.99 1.65 0 2.99-1.34 2.99-2.99 0-1.65-1.34-2.99-2.99-2.99Z"/><path fill="#010101" d="M9.7 39.68H3.51c-.94 0-1.71-.77-1.71-1.71V21.36h1v16.61c0 .39.32.71.71.71H9.7c.39 0 .71-.32.71-.71V21.36h1v16.61c0 .94-.77 1.71-1.71 1.71Z"/><path fill="#010101" d="M6.68 39.68c-.28 0-.5-.22-.5-.5V28.21c0-.28.22-.5.5-.5s.5.22.5.5v10.97c0 .28-.22.5-.5.5Z"/><path fill="#852E2C" d="M36.81 27.7h-17.6c-.81 0-1.48-.66-1.48-1.48v-12.1h1v12.1c0 .26.21.48.48.48h17.6c.26 0 .48-.21.48-.48V6.09a.48.48 0 0 0-.48-.48h-17.6a.48.48 0 0 0-.48.48v3.24h-1V6.09c0-.81.66-1.48 1.48-1.48h17.6c.82 0 1.48.66 1.48 1.48v20.14c0 .81-.66 1.48-1.48 1.48v-.01Z"/><path fill="#010101" d="M12.55 21.86H.23v-6.58c0-3.56 2.89-6.45 6.45-6.45h13.25c1.6 0 2.9 1.3 2.9 2.9 0 1.6-1.3 2.9-2.9 2.9h-7.38v7.24-.01Zm-11.32-1h10.32v-7.24h8.38a1.9 1.9 0 1 0 0-3.8H6.68c-3 0-5.45 2.44-5.45 5.45v5.59Z"/><path fill="#9D9D9C" d="M34.3 10.03h-5.41c-.28 0-.5-.22-.5-.5s.22-.5.5-.5h5.41c.28 0 .5.22.5.5s-.22.5-.5.5ZM33.94 22.86H21.73c-.28 0-.5-.22-.5-.5s.22-.5.5-.5h12.21c.28 0 .5.22.5.5s-.22.5-.5.5Z"/><path fill="#9D9D9C" d="M23.71 22.86c-.28 0-.5-.22-.5-.5v-4.02c0-.28.22-.5.5-.5s.5.22.5.5v4.02c0 .28-.22.5-.5.5ZM28.03 22.86c-.28 0-.5-.22-.5-.5v-6.59c0-.28.22-.5.5-.5s.5.22.5.5v6.59c0 .28-.22.5-.5.5ZM32.25 22.86c-.28 0-.5-.22-.5-.5v-8.84c0-.28.22-.5.5-.5s.5.22.5.5v8.84c0 .28-.22.5-.5.5Z"/></svg>