<svg xmlns="http://www.w3.org/2000/svg" width="40" height="42" fill="none"><path fill="#010101" d="M2.79 28.8a.5.5 0 0 1-.46-.3A19.43 19.43 0 0 1 .8 20.93C.81 10.2 9.53 1.47 20.26 1.47c2.18 0 4.33.36 6.37 1.07a.502.502 0 1 1-.33.95 18.45 18.45 0 0 0-6.04-1.01C10.08 2.47 1.81 10.75 1.81 20.92c0 2.49.49 4.91 1.45 7.18a.503.503 0 0 1-.46.7h-.01ZM20.26 40.38c-1.85 0-3.69-.26-5.45-.77a.501.501 0 0 1 .28-.96c1.67.49 3.42.74 5.17.74 10.18 0 18.46-8.28 18.46-18.45 0-2.7-.57-5.29-1.69-7.72-.12-.25 0-.55.25-.66.25-.12.55 0 .66.24 1.18 2.56 1.78 5.3 1.78 8.14 0 10.73-8.73 19.45-19.46 19.45v-.01Z"/><path fill="#852E2C" d="M29.38 7.73c-1.89 0-3.42-1.53-3.42-3.42S27.49.89 29.38.89s3.42 1.53 3.42 3.42-1.53 3.42-3.42 3.42Zm0-5.84c-1.33 0-2.42 1.09-2.42 2.42 0 1.33 1.09 2.42 2.42 2.42 1.33 0 2.42-1.09 2.42-2.42 0-1.33-1.09-2.42-2.42-2.42Z"/><path fill="#9D9D9C" d="M11.61 41.63a3.841 3.841 0 0 1 0-7.68 3.841 3.841 0 0 1 0 7.68Zm0-6.68c-1.57 0-2.84 1.27-2.84 2.84 0 1.57 1.27 2.84 2.84 2.84 1.57 0 2.84-1.27 2.84-2.84 0-1.57-1.27-2.84-2.84-2.84Z"/><path fill="#FF5100" d="M27.49 29.57h-4.6c-.28 0-.5-.22-.5-.5v-1.05c0-1.36-1.11-2.47-2.47-2.47s-2.47 1.11-2.47 2.47v1.05c0 .28-.22.5-.5.5h-4.6c-.28 0-.5-.22-.5-.5V13.92c0-.28.22-.5.5-.5h4.1v-1.07c0-1.92 1.56-3.47 3.47-3.47 1.91 0 3.47 1.56 3.47 3.47v1.07h4.1c.28 0 .5.22.5.5v4.1h.55c1.92 0 3.47 1.56 3.47 3.47 0 1.91-1.56 3.47-3.47 3.47h-.55v4.1c0 .28-.22.5-.5.5v.01Zm-4.09-1H27v-4.1c0-.28.22-.5.5-.5h1.05c1.36 0 2.47-1.11 2.47-2.47s-1.11-2.47-2.47-2.47H27.5c-.28 0-.5-.22-.5-.5v-4.1h-4.1c-.28 0-.5-.22-.5-.5v-1.57c0-1.36-1.11-2.47-2.47-2.47s-2.47 1.11-2.47 2.47v1.57c0 .28-.22.5-.5.5h-4.1v14.15h3.6v-.55c0-1.92 1.56-3.47 3.47-3.47 1.91 0 3.47 1.56 3.47 3.47v.55-.01Z"/></svg>