<svg xmlns="http://www.w3.org/2000/svg" width="41" height="34" fill="none"><path fill="#9D9D9C" d="M23.61 10.63h-6.7v1h6.7v-1ZM26.47 21.12H14.04v1h12.43v-1Z"/><path fill="#010101" d="M4.11 28.25h-1V8.54c0-2.06 1.68-3.74 3.74-3.74h7.19v1H6.85c-1.51 0-2.74 1.23-2.74 2.74v19.71ZM37.4 28.1h-1V8.54c0-1.51-1.23-2.74-2.74-2.74h-7.05v-1h7.05c2.06 0 3.74 1.68 3.74 3.74V28.1Z"/><path fill="#FF5100" d="M13.17 28.32h-1v-5.01l.1-.13c4.11-5.51 4.16-11.09 4.14-11.91l-1.4-2.6.88-.47 1.51 2.91c.02.26.32 6.34-4.24 12.54v4.68l.01-.01ZM28.34 28.32h-1v-4.68c-4.55-6.2-4.25-12.28-4.24-12.54l.06-.21 1.45-2.7.88.47-1.4 2.6c-.02.83.03 6.4 4.14 11.91l.1.13v5.01l.01.01Z"/><path fill="#FF5100" d="M25.37 8.64H15.14c-.88 0-1.6-.72-1.6-1.6V2.38c0-.88.72-1.6 1.6-1.6h3.47v2.7h3.28V.78h3.47c.88 0 1.6.72 1.6 1.6v4.66c0 .88-.72 1.6-1.6 1.6h.01ZM15.15 1.78c-.33 0-.6.27-.6.6v4.66c0 .33.27.6.6.6h10.23c.33 0 .6-.27.6-.6V2.38c0-.33-.27-.6-.6-.6h-2.47v2.7h-5.28v-2.7h-2.48Z"/><path fill="#010101" d="M38.43 33.74H2.09c-.92 0-1.67-.75-1.67-1.67v-4.32h16.4v1.82h6.87v-1.82H40.1v4.32c0 .92-.75 1.67-1.67 1.67ZM1.42 28.75v3.32c0 .37.3.67.67.67h36.34c.37 0 .67-.3.67-.67v-3.32H24.69v1.82h-8.87v-1.82H1.42Z"/></svg>