<svg xmlns="http://www.w3.org/2000/svg" width="131" height="153" fill="none"><path fill="#852E2C" d="M72.044 139.585h-12.19a1.796 1.796 0 0 1-1.384-.636c-.337-.411-.523-.935-.449-1.458l2.057-16.828-4.974-8.226 3.216-1.945 5.31 8.788c.225.374.3.785.262 1.196l-1.87 15.369h7.965l-1.87-15.369c-.037-.374 0-.747.188-1.084l4.524-8.788 3.328 1.721-4.263 8.264 2.057 16.902a1.857 1.857 0 0 1-.449 1.458c-.336.411-.86.636-1.383.636h-.075Z"/><path fill="#852E2C" d="m62.042 118.355-.065 3.739 8.674.15.065-3.739-8.674-.15Z"/><path fill="#010101" d="M74.437 113.333c-.224 0-.448-.037-.673-.149l-7.105-2.805a1.89 1.89 0 0 1-1.084-1.122 1.843 1.843 0 0 1 .112-1.533l6.694-12.116c.448-.822 1.42-1.159 2.28-.86l3.44 1.272c.898.336 1.385 1.234 1.198 2.169l-3.03 13.686c-.112.523-.448 1.009-.934 1.234-.262.149-.561.224-.86.224h-.038Zm-4.45-5.646 3.104 1.234 2.206-9.947-.411-.15-4.899 8.863Z"/><path fill="#010101" d="M56.713 113.333c-.3 0-.599-.075-.86-.224a1.839 1.839 0 0 1-.935-1.234l-3.03-13.686a1.905 1.905 0 0 1 1.197-2.17l3.44-1.27c.86-.3 1.833.037 2.282.86l6.693 12.115c.262.486.3 1.047.112 1.533-.186.524-.56.898-1.084 1.122l-7.105 2.805c-.224.074-.449.149-.673.149h-.037Zm-.823-14.36 2.169 9.948 3.104-1.234-4.862-8.863-.411.15Z"/><path fill="#FF5100" d="m96.088 124.85-1.533-10.62s-.897-7.778-5.758-9.947C83 101.703 73.465 98.3 73.39 98.263l-1.234-.449v-6.095h3.74v3.44c2.804 1.01 9.722 3.552 14.434 5.684 6.843 3.029 7.927 12.49 7.965 12.901l1.533 10.545-3.702.524-.038.037ZM35.51 125.224l-3.74-.374 1.122-11.068c.038-.412 1.122-9.872 7.965-12.901 4.712-2.094 11.63-4.637 14.434-5.684v-3.515h3.74v6.17l-1.234.448s-9.61 3.441-15.406 6.021c-4.862 2.169-5.76 9.797-5.76 9.872l-1.121 11.069v-.038Z"/><path fill="#9D9D9C" d="M65.612 96.805c-8.04 0-14.584-6.544-14.584-14.583v-7.143h3.74v7.143c0 5.983 4.861 10.844 10.844 10.844s10.844-4.861 10.844-10.844v-7.816h3.74v7.816c0 8.04-6.544 14.583-14.584 14.583Z"/><path fill="#FF5100" d="M65.612 80.165h-.075c-9.348 0-16.378-3.852-16.378-8.938v-2.094c-1.047-.187-2.319-.598-3.216-1.458-.748-.748-1.16-1.683-1.16-2.73 0-8.75 9.312-15.892 20.754-15.892 11.443 0 20.829 7.105 20.829 15.892a3.73 3.73 0 0 1-1.16 2.73c-.897.86-2.168 1.271-3.215 1.458v2.095c0 5.085-7.03 8.937-16.379 8.937ZM52.898 65.506v5.759c0 2.169 4.824 5.198 12.64 5.198h.074c7.853 0 12.64-3.03 12.64-5.198v-5.759h1.907c1.047.075 2.243-.262 2.43-.523 0-6.731-7.628-12.154-17.014-12.154s-17.09 5.46-17.09 12.154c.188.299 1.347.635 2.431.598h1.907l.075-.075Z"/><path fill="#FF5100" d="M81.056 67.898H51.028v3.74h30.028v-3.74Z"/><path fill="#010101" d="M2.827 37.722s-.336 0-.486-.075c-.075 0-.15-.037-.224-.075a1.857 1.857 0 0 1-1.122-2.169 1.926 1.926 0 0 1 1.944-1.458c.823.075 1.534.673 1.683 1.496.15.822-.224 1.645-1.01 2.02-.261.149-.56.186-.86.186l.075.075Z"/><path fill="#010101" d="M65.5 152.035c-.3 0-.598-.074-.897-.224a.664.664 0 0 1-.262-.187c-27.036-16.192-45.958-33.617-56.764-70.189-4.6-15.63-6.881-31.411-6.62-45.62 0-.6.3-1.16.786-1.496a1.908 1.908 0 0 1 1.683-.262c4.412 1.458 9.273 2.243 14.471 2.318 23.035.3 42.555-14.21 45.733-33.842.15-.897.935-1.57 1.833-1.57.897 0 1.72.673 1.87 1.57 3.215 19.632 22.922 34.141 45.732 33.842 5.198-.075 10.059-.86 14.472-2.318.561-.187 1.197-.113 1.683.261.486.337.785.898.785 1.496.299 14.247-2.019 29.99-6.619 45.621-10.769 36.609-29.728 54.035-56.801 70.226-.075.038-.15.113-.225.15-.112.075-.262.112-.411.15-.15.037-.337.074-.524.074h.075ZM4.697 38.357c0 13.2 2.244 27.672 6.47 42.031 11.442 38.778 33.018 54.783 54.333 67.609 21.315-12.826 42.929-28.831 54.334-67.609 4.225-14.36 6.469-28.83 6.469-42.03-4.113 1.12-8.526 1.72-13.125 1.794-21.913.337-41.171-12.153-47.678-29.99-6.47 17.837-25.84 30.29-47.677 29.99-4.637-.075-9.05-.673-13.163-1.795h.037Z"/><path fill="#010101" d="m128.322 37.684-.149-1.87-.561-1.757.561 1.646-.112-1.758c1.009-.075 1.757.598 1.944 1.496a1.864 1.864 0 0 1-1.234 2.131l-.598-1.645.112 1.758h.037Z"/></svg>