<svg xmlns="http://www.w3.org/2000/svg" width="55" height="59" fill="none"><path fill="#010101" d="m25.482 58.576-1.146-.474C1.893 48.822.029 31.304.029 12.654V10.62L25.482.44l25.453 10.18v2.034c0 8.362-.382 17.137-3.134 24.719a.766.766 0 0 1-.978.458.766.766 0 0 1-.459-.978c2.675-7.353 3.042-15.975 3.042-24.2v-1.008l-23.924-9.57-23.924 9.57v1.009c0 18.803 1.758 35.099 23.374 44.026l.565.23.566-.23c4.02-1.65 7.521-3.653 10.395-5.946a.756.756 0 0 1 1.07.122c.26.336.214.81-.122 1.07-2.996 2.37-6.62 4.448-10.762 6.16l-1.147.474-.015.016Z"/><path fill="#FF5100" d="m42.634 51.131-3.256-3.256a.757.757 0 0 1 0-1.085.757.757 0 0 1 1.085 0l2.171 2.17 6.65-6.65a.757.757 0 0 1 1.085 0 .757.757 0 0 1 0 1.086l-7.735 7.735Z"/><path fill="#852E2C" d="M25.482 41.256c-6.008 0-10.884-4.892-10.884-10.885V22.3c0-.872.718-1.59 1.59-1.59h1.437v-3.302c0-4.342 3.531-7.857 7.857-7.857 4.326 0 7.858 3.53 7.858 7.857v3.302h1.437c.871 0 1.59.718 1.59 1.59v8.071c0 6.008-4.892 10.885-10.885 10.885Zm-9.294-19.017-.061 8.132c0 5.167 4.204 9.356 9.355 9.356 5.152 0 9.356-4.204 9.356-9.356l-.061-8.132H31.81v-4.831c0-3.485-2.843-6.329-6.329-6.329-3.485 0-6.329 2.844-6.329 6.329v4.83h-2.965Z"/><path fill="#852E2C" d="M29.824 22.239H21.17v-4.831a4.332 4.332 0 0 1 4.327-4.326 4.332 4.332 0 0 1 4.326 4.326v4.83Zm-7.14-1.529h5.596v-3.302a2.799 2.799 0 0 0-2.798-2.798 2.799 2.799 0 0 0-2.797 2.798v3.302ZM25.482 34.438a4.397 4.397 0 0 1-4.387-4.388 4.397 4.397 0 0 1 4.387-4.387 4.397 4.397 0 0 1 4.387 4.387 4.397 4.397 0 0 1-4.387 4.388Zm0-7.246a2.864 2.864 0 0 0-2.859 2.858 2.864 2.864 0 0 0 2.86 2.859 2.864 2.864 0 0 0 2.858-2.859 2.864 2.864 0 0 0-2.859-2.858Z"/><path fill="#9D9D9C" d="M44.866 56.558c-5.565 0-10.105-4.525-10.105-10.105s4.525-10.105 10.105-10.105S54.97 40.873 54.97 46.454s-4.525 10.105-10.105 10.105Zm0-18.68c-4.724 0-8.576 3.836-8.576 8.575a8.573 8.573 0 0 0 8.576 8.576 8.573 8.573 0 0 0 8.576-8.576 8.573 8.573 0 0 0-8.576-8.576Z"/></svg>