<svg xmlns="http://www.w3.org/2000/svg" width="153" height="111" fill="none"><path fill="#9D9D9C" d="M114.455 59.464H91.42v-3.665h22.624l10.882-5.01c.224-.113.486-.15.747-.15h16.454v3.664h-16.042l-10.882 5.011c-.224.112-.486.15-.748.15Z"/><path fill="#010101" d="M143.997 78.086h-3.665V45.815l-14.098-14.06H93.29v46.33h-3.665V29.923c0-1.01.823-1.832 1.833-1.832h35.524c.486 0 .935.187 1.309.523l15.182 15.108c.337.336.524.822.524 1.308v33.057ZM15.473 91.997H8.368c-4.338 0-7.89-3.515-7.89-7.89a7.868 7.868 0 0 1 7.89-7.89h10.17v3.664H8.369c-2.319 0-4.226 1.907-4.226 4.226 0 2.318 1.907 4.225 4.226 4.225h7.105v3.665ZM98.712 88.332h-44.2v3.665h44.2v-3.665Z"/><path fill="#010101" d="M144.632 91.997h-7.104v-3.665h7.104c2.319 0 4.226-1.907 4.226-4.225 0-2.319-1.907-4.226-4.226-4.226h-9.946v-3.664h9.946c4.338 0 7.891 3.515 7.891 7.89a7.868 7.868 0 0 1-7.891 7.89ZM102.078 76.254h-50.52v3.664h50.52v-3.664Z"/><path fill="#852E2C" d="M81.997 55.538H22.99a1.835 1.835 0 0 1-1.832-1.832V23.903c0-1.01.822-1.833 1.832-1.833h59.008c1.01 0 1.832.823 1.832 1.833v29.803c0 1.01-.822 1.832-1.832 1.832Zm-57.176-3.627h55.344V25.772H24.82v26.139Z"/><path fill="#852E2C" d="M67.45 25.771H38.396a1.835 1.835 0 0 1-1.832-1.832V2.774c0-1.01.823-1.833 1.832-1.833h29.056c1.01 0 1.832.823 1.832 1.833v21.165c0 1.01-.823 1.832-1.832 1.832Zm-27.222-3.665h25.39v-17.5h-25.39v17.5Z"/><path fill="#852E2C" d="M57.953 15.114H47.407a1.835 1.835 0 0 1-1.832-1.832V2.737c0-1.01.823-1.833 1.832-1.833h10.546c1.01 0 1.832.823 1.832 1.833v10.545c0 1.01-.823 1.832-1.832 1.832Zm-8.676-3.665h6.88V4.57h-6.88v6.88ZM43.668 36.28H33.123a1.835 1.835 0 0 1-1.832-1.832V23.903c0-1.01.822-1.833 1.832-1.833h10.545c1.01 0 1.832.823 1.832 1.833v10.545c0 1.01-.822 1.832-1.832 1.832Zm-8.713-3.665h6.88v-6.88h-6.88v6.88ZM72.686 36.28H62.14a1.835 1.835 0 0 1-1.832-1.832V23.903c0-1.01.823-1.833 1.832-1.833h10.546c1.01 0 1.832.823 1.832 1.833v10.545c0 1.01-.823 1.832-1.832 1.832Zm-8.676-3.665h6.88v-6.88h-6.88v6.88ZM54.736 23.94h-3.664v30.289h3.664v-30.29Z"/><path fill="#FF5100" d="M34.955 110.058c-11.78 0-21.39-9.573-21.39-21.39 0-11.816 9.573-21.389 21.39-21.389s21.39 9.573 21.39 21.39c0 11.816-9.573 21.389-21.39 21.389Zm0-39.077c-9.76 0-17.725 7.965-17.725 17.725 0 9.76 7.928 17.725 17.725 17.725S52.68 98.466 52.68 88.706c0-9.76-7.928-17.725-17.725-17.725Z"/><path fill="#9D9D9C" d="M34.955 98.279c-5.272 0-9.573-4.3-9.573-9.573 0-5.273 4.3-9.573 9.573-9.573 5.273 0 9.573 4.3 9.573 9.573 0 5.272-4.3 9.573-9.573 9.573Zm0-15.519c-3.253 0-5.908 2.655-5.908 5.908 0 3.254 2.655 5.909 5.908 5.909 3.254 0 5.909-2.655 5.909-5.909 0-3.253-2.655-5.908-5.909-5.908Z"/><path fill="#FF5100" d="M117.97 110.058c-11.779 0-21.39-9.573-21.39-21.39 0-11.816 9.573-21.389 21.39-21.389s21.389 9.573 21.389 21.39c0 11.816-9.572 21.389-21.389 21.389Zm0-39.077c-9.76 0-17.725 7.965-17.725 17.725 0 9.76 7.928 17.725 17.725 17.725s17.725-7.965 17.725-17.725c0-9.76-7.965-17.725-17.725-17.725Z"/><path fill="#9D9D9C" d="M117.97 98.279c-5.272 0-9.573-4.3-9.573-9.573 0-5.273 4.301-9.573 9.573-9.573 5.273 0 9.573 4.3 9.573 9.573 0 5.272-4.3 9.573-9.573 9.573Zm0-15.519c-3.253 0-5.908 2.655-5.908 5.908 0 3.254 2.655 5.909 5.908 5.909 3.254 0 5.909-2.655 5.909-5.909 0-3.253-2.655-5.908-5.909-5.908Z"/><path fill="#010101" d="M93.253 78.087h-3.665V56.024H13.94v22.063h-3.665V54.192c0-1.01.823-1.833 1.832-1.833h79.35c1.01 0 1.833.823 1.833 1.833v23.895h-.037Z"/></svg>