<svg viewBox="0 0 26 26" fill="currentColor"><path d="M12.997 0C9.192 0 6.094 3.105 6.094 6.91a6.9 6.9 0 0 0 3.208 5.82C3.93 14.327 0 19.302 0 25.187A.813.813 0 0 0 .813 26h24.375a.812.812 0 0 0 .812-.813c0-5.886-3.932-10.86-9.306-12.457 1.927-1.227 3.212-3.376 3.212-5.82 0-3.805-3.105-6.91-6.91-6.91Zm0 1.625a5.274 5.274 0 0 1 5.284 5.284A5.269 5.269 0 0 1 13 12.188h-.003a5.264 5.264 0 0 1-5.278-5.279 5.269 5.269 0 0 1 5.278-5.284Zm0 12.188H13c6.013 0 10.871 4.658 11.294 10.562H1.706c.423-5.903 5.279-10.56 11.29-10.563Z" opacity=".98"/></svg>
