<svg xmlns="http://www.w3.org/2000/svg" width="38" height="40" fill="none"><path fill="#FF5100" d="M19.84 1.33h-1v4.42h1V1.33ZM19.84 34.79h-1v4.4h1v-4.4Z"/><path fill="#010101" d="M8.34 29.37c-.47 0-1.68-.1-2.48-1.03-.93-1.1-2.3-4.35-2.37-6.04-.03-.76.3-1.48.9-1.93.7-.52 1.66-.62 2.7-.26l-.33.95c-.72-.25-1.35-.21-1.78.12-.33.25-.52.65-.5 1.08.06 1.53 1.41 4.6 2.13 5.44.64.75 1.81.67 1.82.67l.08 1h-.19.02Z"/><path fill="#852E2C" d="m32.88 20.94-.78-.63s.51-.63 1.38-1.92c.75-1.1.74-5.6.15-7.3l-.19-.55c-.54-1.6-1.22-3.6-2.45-4.35-.71-.44-1.16-.91-1.59-1.37-.57-.6-1.15-1.22-2.43-1.89-2.21-1.15-7.52-1.11-7.58-1.11-.15 0-5.44-.08-7.64 1.07-1.28.67-1.86 1.29-2.43 1.89-.43.46-.88.93-1.59 1.37-1.23.75-1.9 2.75-2.44 4.36l-.19.55c-.59 1.7-.6 6.19.15 7.3.87 1.29 1.38 1.91 1.38 1.92l-.78.63s-.53-.66-1.43-1.98c-1-1.47-.9-6.38-.27-8.19l.18-.54c.59-1.76 1.33-3.95 2.87-4.89.6-.37.97-.75 1.39-1.2.59-.63 1.27-1.34 2.69-2.09C13.72.75 19.11.83 19.34.84c.27 0 5.66-.05 8.09 1.22 1.42.74 2.1 1.46 2.69 2.09.42.45.79.84 1.39 1.2 1.54.94 2.28 3.13 2.87 4.89l.18.54c.62 1.8.73 6.71-.27 8.19-.9 1.32-1.41 1.96-1.43 1.98l.02-.01Z"/><path fill="#010101" d="m19.43 39.7-.65-.04c-6.04-.73-8.77-5.31-9.46-6.7-.87-1.74-1.33-3.94-1.87-6.5-.15-.7-.3-1.42-.47-2.18-.66-2.95-.68-3.76-.46-4.03l.97-2.97c-.1-.58-.42-2.85.36-5.1.6-1.73 1.34-2.74 2.32-3.17.84-.37 1.82-.29 2.98.22 2.4 1.06 5.65.9 5.69.9l.66.04s3.69.16 6.09-.9c1.16-.51 2.14-.58 2.98-.22.98.43 1.72 1.43 2.32 3.17.78 2.25.46 4.53.36 5.1l.97 2.97c.21.27.2 1.08-.46 4.03-.17.76-.32 1.48-.47 2.18-.54 2.55-1 4.76-1.87 6.5-1.01 2.02-4.39 6.02-9.94 6.69h-.05v.01ZM7.4 20.78c0 .17.02.87.56 3.28.17.76.32 1.49.47 2.19.52 2.49.97 4.63 1.79 6.26.64 1.27 3.15 5.48 8.66 6.15l.53.04c5.1-.64 8.19-4.29 9.12-6.14.81-1.62 1.26-3.77 1.79-6.25.15-.7.3-1.43.47-2.19.54-2.41.57-3.11.56-3.28l-1.13-3.44.03-.13s.49-2.42-.3-4.71c-.5-1.45-1.07-2.27-1.77-2.58-.57-.25-1.28-.18-2.18.22-2.62 1.16-6.39.99-6.55.98l-.61-.04c-.08 0-3.46.17-6.08-.98-.89-.39-1.61-.46-2.18-.22-.71.31-1.27 1.13-1.77 2.58-.79 2.28-.3 4.68-.3 4.71l.03.13-1.13 3.44-.01-.02Z"/><path fill="#010101" d="M30.39 29.41h-.19l.08-1s1.18.08 1.82-.67c.72-.84 2.07-3.91 2.13-5.44.02-.43-.17-.84-.5-1.08-.43-.32-1.06-.36-1.78-.12l-.32-.95c1.04-.36 2-.26 2.7.26.6.44.93 1.17.9 1.93-.07 1.7-1.44 4.95-2.37 6.04-.79.93-2.01 1.03-2.48 1.03h.01Z"/><path fill="#FF5100" d="M19.84 5.75h-1V34.8h1V5.75Z"/><path fill="#9D9D9C" d="M37.17 20.94H1.35c-.28 0-.5-.22-.5-.5s.22-.5.5-.5h35.82c.28 0 .5.22.5.5s-.22.5-.5.5ZM37.17 29.37H1.35c-.28 0-.5-.22-.5-.5s.22-.5.5-.5h35.82c.28 0 .5.22.5.5s-.22.5-.5.5Z"/></svg>