<svg viewBox="0 0 40 40" fill="currentColor"><path d="M34.142 5.858A19.87 19.87 0 0 0 20 0 19.869 19.869 0 0 0 5.858 5.858 19.869 19.869 0 0 0 0 20a19.87 19.87 0 0 0 5.858 14.142A19.869 19.869 0 0 0 20 40a19.87 19.87 0 0 0 14.142-5.858A19.87 19.87 0 0 0 40 20c0-5.342-2.08-10.365-5.858-14.142ZM10.027 34.562A10.098 10.098 0 0 1 20 26.192c4.964 0 9.137 3.553 9.973 8.37A17.556 17.556 0 0 1 20 37.656a17.556 17.556 0 0 1-9.973-3.094ZM13.64 17.49A6.366 6.366 0 0 1 20 11.13a6.367 6.367 0 0 1 6.36 6.36A6.367 6.367 0 0 1 20 23.849a6.367 6.367 0 0 1-6.36-6.36Zm18.363 15.446a12.459 12.459 0 0 0-3.64-5.866 12.458 12.458 0 0 0-3.622-2.286 8.702 8.702 0 0 0 3.961-7.294c0-4.8-3.904-8.703-8.703-8.703-4.799 0-8.703 3.904-8.703 8.703 0 3.05 1.578 5.74 3.96 7.294a12.46 12.46 0 0 0-3.621 2.286 12.46 12.46 0 0 0-3.64 5.865C4.523 29.71 2.345 25.105 2.345 20c0-9.736 7.92-17.656 17.656-17.656 9.736 0 17.656 7.92 17.656 17.656 0 5.105-2.178 9.71-5.652 12.936Z"/></svg>
