<svg xmlns="http://www.w3.org/2000/svg" width="41" height="39" fill="none"><path fill="#852E2C" d="M11.3 38.92c-.28 0-.5-.22-.5-.5v-5.79c0-.28.22-.5.5-.5s.5.22.5.5v5.79c0 .28-.22.5-.5.5ZM28.99 38.92c-.28 0-.5-.22-.5-.5v-5.79c0-.28.22-.5.5-.5s.5.22.5.5v5.79c0 .28-.22.5-.5.5Z"/><path fill="#9D9D9C" d="m6.02 32.54-5.5-.04c-.27 0-.5-.23-.5-.5v-6.85c0-2.49 2.02-3.52 3.08-3.72l5.28-1.81v-2.06a6.016 6.016 0 0 1-3.04-4.22c-.82-.03-1.48-.71-1.48-1.54 0-.83.6-1.45 1.37-1.54v-.07c-1.3-.8-2.11-2.22-2.11-3.77 0-2.31 1.83-4.25 4.12-4.4.7-.61 2.06-1.49 3.92-1.45 2.11.06 2.67.42 3.17.75.14.09.27.18.46.25l.24.09c1.03.39 3.44 1.3 3.73 4.16.08.74.05 1.31-.1 1.92-.07.27-.34.43-.6.37a.506.506 0 0 1-.37-.6c.12-.5.14-.96.08-1.58-.23-2.25-2.09-2.95-3.09-3.33l-.26-.1c-.27-.11-.46-.23-.63-.34-.4-.26-.82-.53-2.65-.58-1.57-.06-2.69.69-3.35 1.31-.09.08-.21.13-.33.13-1.84.05-3.34 1.58-3.34 3.41 0 1.24.67 2.38 1.75 2.98.02 0 .04.01.05.01a.5.5 0 0 1 .31.6v.73c0 .28-.22.5-.5.5h-.32c-.3 0-.55.25-.55.55 0 .3.25.55.55.55h.37a.5.5 0 0 1 .5.45 4.993 4.993 0 0 0 2.82 4.01.5.5 0 0 1 .28.45v2.72c0 .21-.14.4-.34.47l-5.69 1.94c-.16.04-2.34.48-2.34 2.75v6.35l5 .03c.28 0 .5.23.5.5s-.23.5-.5.5l.01.02ZM34.52 32.54c-.27 0-.5-.22-.5-.5s.22-.5.5-.5l5-.03v-6.35c0-2.27-2.17-2.72-2.27-2.73l-5.76-1.96a.505.505 0 0 1-.34-.47v-2.72a.5.5 0 0 1 .28-.45 4.993 4.993 0 0 0 2.82-4.01c.03-.25.24-.45.5-.45h.37c.3 0 .55-.25.55-.55 0-.3-.25-.55-.55-.55h-.32c-.28 0-.5-.22-.5-.5v-.78c-.01-.09 0-.18.03-.25a.518.518 0 0 1 .33-.32 3.43 3.43 0 0 0 1.75-2.98c0-1.83-1.5-3.37-3.33-3.41-.12 0-.24-.05-.33-.13-.66-.62-1.78-1.36-3.35-1.31-1.83.05-2.25.32-2.65.58-.17.11-.36.24-.63.35l-.26.1C24.86 3 23 3.7 22.77 5.95c-.07.62-.04 1.08.08 1.58.06.27-.1.54-.37.6a.49.49 0 0 1-.6-.37c-.15-.61-.18-1.19-.1-1.92.3-2.86 2.71-3.77 3.74-4.16l.24-.09c.19-.08.32-.17.46-.25.49-.32 1.05-.69 3.17-.75 1.88-.03 3.22.83 3.92 1.45 2.29.16 4.12 2.09 4.12 4.4 0 1.54-.8 2.97-2.11 3.77v.08c.77.09 1.37.74 1.37 1.54s-.66 1.51-1.48 1.54a5.988 5.988 0 0 1-3.04 4.22v2.06l5.35 1.83c1 .18 3.01 1.21 3.01 3.7v6.85c0 .27-.22.5-.5.5l-5.5.04-.01-.03Z"/><path fill="#FF5100" d="M34.09 38.92H6.14c-.28 0-.5-.22-.5-.5v-6.37c0-2.49 2.02-3.52 3.08-3.72l8.85-2.46c.27-.07.54.08.62.35.07.27-.08.54-.35.62l-8.89 2.47c-.13.03-2.31.47-2.31 2.74v5.87H33.6v-5.87c0-2.27-2.17-2.72-2.27-2.73l-8.93-2.48a.502.502 0 0 1-.35-.62c.07-.27.34-.42.62-.35l8.89 2.47c1.02.19 3.04 1.22 3.04 3.71v6.37c0 .28-.22.5-.5.5h-.01Z"/><path fill="#010101" d="M14.74 16.32c-.08 0-.16-.02-.24-.06a3.926 3.926 0 0 1-2.06-3.45c0-2.16 1.76-3.92 3.92-3.92 1.48 0 2.82.82 3.49 2.14.13.25.03.55-.22.67-.25.13-.55.03-.67-.22a2.91 2.91 0 0 0-2.6-1.59c-1.61 0-2.92 1.31-2.92 2.92 0 1.07.59 2.06 1.53 2.57.24.13.33.43.2.68a.49.49 0 0 1-.44.26h.01Z"/><path fill="#010101" d="M20.38 24.7h-.29c-3.33 0-6.04-2.71-6.04-6.04v-2.34c0-.08.02-.15.05-.22l1.25-2.54a.49.49 0 0 1 .41-.28c.18-.02.35.07.45.21.04.06 1.12 1.53 3.79 1.66 2.7.14 4.21-1.37 4.27-1.44.12-.12.3-.17.46-.14.17.04.3.15.37.31l.66 1.73c.44-.62 1-1.73.84-3.3-.24-2.25-2.09-2.95-3.09-3.33l-.26-.1c-.27-.11-.46-.23-.63-.34-.4-.26-.82-.53-2.65-.58-2.38-.1-3.71 1.66-3.76 1.73l-.8-.6C15.48 9 17.12 6.9 20 6.96c2.11.06 2.67.42 3.17.75.14.09.27.18.46.25l.24.09c1.03.39 3.44 1.3 3.73 4.16.21 2.03-.59 3.44-1.16 4.17v2.29c0 3.33-2.71 6.04-6.04 6.04l-.02-.01Zm-5.33-8.27v2.23c0 2.78 2.26 5.04 5.04 5.04h.29c2.78 0 5.04-2.26 5.04-5.04v-1.62a.528.528 0 0 1-.32-.3l-.71-1.85c-.77.55-2.29 1.36-4.45 1.26-2.07-.1-3.36-.92-4.02-1.5l-.88 1.79.01-.01Z"/><path fill="#010101" d="M14.51 19.73h-1.28c-.85 0-1.55-.69-1.55-1.55 0-.86.69-1.55 1.55-1.55h1.23v1h-1.23c-.3 0-.55.25-.55.55 0 .3.25.55.55.55h1.28v1ZM27.25 19.73h-1.28v-1h1.28c.3 0 .55-.25.55-.55 0-.3-.25-.55-.55-.55h-1.23v-1h1.23c.85 0 1.55.69 1.55 1.55 0 .86-.69 1.55-1.55 1.55ZM20.14 29.33c-.13 0-.26-.05-.36-.15l-2.44-2.47a.5.5 0 0 1-.14-.35v-2.45h1v2.25l1.94 1.96 1.94-1.96v-2.25h1v2.45a.5.5 0 0 1-.14.35l-2.44 2.47c-.09.09-.22.15-.36.15Z"/></svg>