<svg xmlns="http://www.w3.org/2000/svg" width="103" height="52" fill="#fff"><g clip-path="url(#a)"><path d="M54.215 42.718a3.14 3.14 0 0 1-1.224.253c-.51 0-.991-.143-1.291-.547-.254-.337-.367-.824-.367-1.447 0-.72.163-1.251.494-1.585.323-.323.767-.407 1.254-.407.343 0 .69.044.99.104l-.053.63a6.05 6.05 0 0 0-.864-.06c-.3 0-.607.047-.78.254-.204.233-.264.607-.264 1.07 0 .39.043.72.18.954.167.277.457.367.774.367s.667-.09.954-.18l.197.6v-.006ZM54.575 42.91v-3.868h2.401v.66h-1.644v.9h1.364v.648h-1.364v.997h1.644v.66h-2.401v.004ZM59.43 42.91c-.276-.51-.516-.99-.743-1.493a9.08 9.08 0 0 1-.54-.017v1.514h-.757v-3.842c.367-.044.847-.077 1.217-.077.794 0 1.531.194 1.531 1.194 0 .54-.223.937-.737 1.13.223.458.564 1.045.9 1.598h-.87v-.006Zm-1.283-2.06c.343 0 .617 0 .817-.06.277-.077.407-.247.407-.594 0-.464-.33-.547-.704-.547-.173 0-.36.007-.523.017v1.184h.003ZM61.305 42.91v-3.208h-1.044v-.66h2.845v.66h-1.044v3.209h-.757ZM63.387 42.91v-3.868h.757v3.869h-.757ZM64.767 42.91v-3.868h2.455v.66h-1.7v.968h1.403v.647h-1.404v1.59h-.757l.003.004ZM67.582 42.91v-3.868h.757v3.869h-.757ZM68.963 42.91v-3.868h2.402v.66H69.72v.9h1.364v.648H69.72v.997h1.645v.66h-2.402v.004ZM71.778 39.092a8.63 8.63 0 0 1 1.207-.104c1.308 0 1.765.684 1.765 1.981 0 1.298-.457 1.988-1.765 1.988-.36 0-.81-.016-1.207-.06v-3.809.004Zm.757 3.195c.164.013.247.013.384.013.854 0 1.064-.367 1.064-1.327 0-.907-.21-1.321-1.064-1.321-.137 0-.257.007-.384.017v2.618ZM51.693 14.632v-4.94h.737v4.94h-.737ZM53.21 13.941a7.6 7.6 0 0 0 1.168.107c.43 0 .827-.06 1.05-.277a.67.67 0 0 0 .207-.507c0-.484-.3-.644-1.15-.897-.85-.247-1.394-.597-1.394-1.434 0-.414.176-.75.477-.98.336-.261.767-.338 1.22-.338.454 0 .934.07 1.364.154l-.093.613a6.86 6.86 0 0 0-1.144-.106c-.337 0-.66.036-.85.176a.534.534 0 0 0-.23.46c0 .508.39.651 1.203.898.798.247 1.341.583 1.341 1.45 0 .46-.177.838-.497 1.091-.347.277-.837.36-1.357.36-.484 0-.98-.07-1.404-.146l.093-.62-.003-.004ZM56.726 12.16c0-1.67.637-2.545 2.131-2.545 1.495 0 2.132.874 2.132 2.545 0 1.671-.637 2.545-2.132 2.545-1.494 0-2.13-.874-2.13-2.545Zm3.512 0c0-1.304-.39-1.888-1.38-1.888-.991 0-1.381.584-1.381 1.888 0 1.304.39 1.888 1.38 1.888.99 0 1.381-.584 1.381-1.888ZM61.165 14.632l1.918-4.94h.597l-1.901 4.94h-.614ZM64.12 14.632v-4.94h.737v4.94h-.737ZM65.691 14.632v-4.94h2.939v.65h-2.202v1.418h1.801v.644h-1.8v1.57h2.2v.651h-2.938v.007ZM72.555 14.332a3.718 3.718 0 0 1-1.58.377c-.638 0-1.245-.19-1.612-.707-.306-.42-.46-1.034-.46-1.842 0-.86.194-1.487.544-1.917.407-.484 1.004-.63 1.657-.63.437 0 .897.06 1.281.146l-.07.62a6.702 6.702 0 0 0-1.167-.106c-.467 0-.897.1-1.158.443-.236.324-.337.797-.337 1.441 0 .597.077 1.057.284 1.38.237.378.637.508 1.067.508.477 0 .938-.137 1.341-.3l.207.583.003.004ZM51.6 22.637v-.584c1.364-1.187 2.338-2.118 2.338-2.938 0-.614-.46-.837-.974-.837-.43 0-.927.136-1.25.266l-.208-.583c.384-.184.96-.344 1.511-.344.99 0 1.671.497 1.671 1.474 0 1.074-1.08 2.002-2.131 2.892h2.201v.65H51.6v.004ZM55.872 22.637c.43-1.658.957-2.885 1.741-4.296h-2.468v-.644h3.229v.607c-.78 1.404-1.311 2.632-1.711 4.333h-.79ZM59.348 22.637c.43-1.658.957-2.885 1.74-4.296H58.62v-.644h3.229v.607c-.78 1.404-1.31 2.632-1.711 4.333h-.79ZM62.24 20.165c0-1.658.346-2.545 1.787-2.545 1.44 0 1.778.89 1.778 2.545 0 1.654-.347 2.545-1.778 2.545-1.43 0-1.788-.898-1.788-2.545Zm2.83 0c0-1.174-.07-1.901-1.043-1.901-.974 0-1.05.727-1.05 1.9 0 1.175.06 1.912 1.05 1.912s1.044-.744 1.044-1.911ZM67.095 22.636v-4.195l-1.027.39-.223-.5 1.32-.638h.667v4.94h-.737v.003ZM51.553 28.974V25.13c.39-.046.864-.076 1.28-.076.841 0 1.435.27 1.435 1.224 0 1.004-.677 1.28-1.47 1.28-.218 0-.408-.016-.668-.046v1.464h-.577v-.003Zm.577-1.912c.203.014.33.014.48.014.65 0 1.071-.12 1.071-.78 0-.584-.313-.744-.884-.744-.227 0-.467.016-.667.03v1.484-.003ZM54.615 28.974v-2.775h.407l.073.343h.023c.217-.313.474-.397.824-.397.067 0 .134 0 .24.014l-.036.497a2.135 2.135 0 0 0-.33-.023c-.234 0-.467.053-.654.21v2.13h-.547ZM56.7 25.088c.166 0 .306.137.306.307a.3.3 0 0 1-.307.3c-.17 0-.3-.134-.3-.3 0-.167.134-.307.3-.307Zm-.27 3.886v-2.776h.546v2.776h-.547ZM58.133 28.973a18.842 18.842 0 0 1-.853-2.775h.563c.187.827.404 1.671.654 2.342h.047c.253-.674.467-1.515.654-2.342h.563c-.21.914-.494 1.881-.854 2.775h-.78.006ZM61.702 28.973l-.06-.233c-.21.187-.5.293-.81.293-.57 0-.917-.377-.917-.87 0-.247.096-.494.293-.647.187-.15.45-.21.744-.21.193 0 .413.013.607.023v-.233c0-.167-.043-.277-.114-.347-.103-.097-.27-.12-.493-.12-.27 0-.6.046-.78.09l-.084-.457c.24-.074.594-.12.914-.12.347 0 .637.046.834.216.173.144.27.374.27.707v1.912h-.404v-.004Zm-.143-1.244a5.588 5.588 0 0 0-.494-.017c-.403 0-.593.144-.593.45 0 .264.173.438.473.438.224 0 .45-.077.614-.204v-.667ZM64.637 28.81a2.33 2.33 0 0 1-.947.224c-.727 0-1.194-.407-1.194-1.434 0-1.178.594-1.461 1.274-1.461.27 0 .54.03.767.083l-.047.457a4.305 4.305 0 0 0-.63-.053c-.533 0-.81.21-.81.96 0 .674.227.96.697.96.27 0 .523-.076.743-.173l.15.437h-.003ZM65.481 30.064c.163-.427.294-.804.39-1.094h-.293c-.284-.767-.57-1.777-.824-2.775h.57c.187.817.39 1.598.63 2.342h.044c.224-.674.457-1.545.637-2.342h.557c-.307 1.284-.744 2.745-1.177 3.87h-.534ZM68.773 28.973v-3.868h.577v3.868h-.577ZM71.678 28.973v-1.821c0-.354-.163-.524-.467-.524-.257 0-.487.084-.674.174v2.168h-.547v-2.775h.404l.047.253c.216-.166.517-.313.84-.313.63 0 .944.377.944.967v1.868h-.547v.003ZM72.932 28.974v-2.325h-.407v-.403l.407-.024v-.3c0-.313.077-.527.217-.667.167-.163.413-.21.707-.21.133 0 .277.013.407.023l-.03.457c-.14-.013-.264-.013-.374-.013-.143 0-.247.017-.3.097-.067.073-.083.186-.083.36v.227h.607v.45h-.607v2.325h-.547l.003.003ZM75.477 29.034c-.39 0-.674-.107-.877-.307-.257-.247-.367-.647-.367-1.14 0-.494.107-.895.367-1.142.203-.196.487-.306.877-.306s.674.106.877.306c.257.247.367.648.367 1.141 0 .494-.107.894-.367 1.14-.203.198-.487.308-.877.308Zm.69-1.448c0-.337-.053-.613-.197-.774-.106-.126-.276-.193-.493-.193-.217 0-.384.067-.494.193-.143.164-.197.437-.197.774s.054.617.197.774c.107.127.277.193.494.193a.657.657 0 0 0 .493-.193c.144-.157.197-.434.197-.774ZM77.128 28.974v-2.775h.407l.073.343h.023c.217-.313.474-.397.824-.397.067 0 .134 0 .24.014l-.036.497a2.135 2.135 0 0 0-.33-.023c-.234 0-.467.053-.654.21v2.13h-.547ZM82.207 28.973v-1.837c0-.347-.166-.504-.473-.504-.21 0-.434.073-.644.193.017.107.03.234.03.344v1.808h-.547v-1.838c0-.347-.163-.504-.467-.504-.223 0-.413.06-.617.167v2.175h-.547v-2.775h.404l.046.253c.197-.15.48-.313.834-.313.33 0 .577.126.72.353.24-.197.534-.353.865-.353.62 0 .943.343.943 1.02v1.815h-.547v-.004ZM84.922 28.973l-.06-.233c-.21.187-.5.293-.81.293-.57 0-.917-.377-.917-.87 0-.247.096-.494.293-.647.187-.15.45-.21.744-.21.193 0 .413.013.607.023v-.233c0-.167-.043-.277-.114-.347-.103-.097-.27-.12-.493-.12-.27 0-.6.046-.78.09l-.084-.457c.24-.074.594-.12.914-.12.347 0 .637.046.834.216.173.144.27.374.27.707v1.912h-.404v-.004Zm-.143-1.244a5.588 5.588 0 0 0-.494-.017c-.403 0-.593.144-.593.45 0 .264.173.438.473.438.224 0 .45-.077.614-.204v-.667ZM87.354 28.853a1.494 1.494 0 0 1-.667.167c-.45 0-.707-.254-.707-.757v-1.615h-.414v-.403L86 26.22l.043-.817h.487v.794h.774v.45h-.774v1.531c0 .204.037.347.247.347a.952.952 0 0 0 .403-.103l.18.427-.006.003ZM87.947 25.088c.167 0 .307.137.307.307a.3.3 0 0 1-.307.3c-.17 0-.3-.134-.3-.3 0-.167.134-.307.3-.307Zm-.27 3.886v-2.776h.547v2.776h-.547ZM89.875 29.034c-.39 0-.674-.107-.877-.307-.257-.247-.367-.647-.367-1.14 0-.494.107-.895.367-1.142.203-.196.487-.306.877-.306s.674.106.877.306c.257.247.367.648.367 1.141 0 .494-.106.894-.367 1.14-.203.198-.487.308-.877.308Zm.69-1.448c0-.337-.053-.613-.196-.774-.107-.126-.277-.193-.494-.193-.217 0-.383.067-.493.193-.144.164-.197.437-.197.774s.053.617.197.774c.106.127.276.193.493.193a.657.657 0 0 0 .494-.193c.143-.157.197-.434.197-.774ZM93.21 28.973v-1.821c0-.354-.163-.524-.466-.524-.257 0-.487.084-.674.174v2.168h-.547v-2.775h.403l.047.253c.217-.166.517-.313.84-.313.63 0 .944.377.944.967v1.868h-.547v.003ZM54.742 35.31c-.03-1.034-.077-2.094-.127-3.115h-.03l-.877 2.462h-.617l-.877-2.462h-.03c-.047 1.02-.097 2.085-.127 3.115h-.584c.043-1.284.107-2.575.18-3.869h.84l.891 2.565h.03l.89-2.565h.841c.073 1.291.137 2.582.18 3.87h-.583ZM57.517 35.31l-.06-.233c-.21.187-.5.293-.811.293-.57 0-.917-.377-.917-.87 0-.247.096-.494.293-.647.187-.15.45-.21.744-.21.194 0 .414.013.607.023v-.234c0-.166-.043-.276-.113-.346-.104-.097-.27-.12-.494-.12-.27 0-.6.046-.78.09l-.084-.457c.24-.074.594-.12.914-.12.347 0 .637.046.834.216.173.144.27.374.27.707v1.911h-.404v-.003Zm-.144-1.244a5.626 5.626 0 0 0-.493-.017c-.404 0-.594.144-.594.45 0 .264.173.438.473.438.224 0 .45-.077.614-.204v-.667ZM60.168 35.31v-1.821c0-.354-.163-.524-.467-.524-.257 0-.487.084-.674.174v2.168h-.547v-2.775h.404l.047.253c.217-.167.517-.313.84-.313.63 0 .944.377.944.967v1.868h-.547v.003ZM62.883 35.31l-.06-.233c-.21.187-.5.293-.81.293-.57 0-.918-.377-.918-.87 0-.247.097-.494.294-.647.186-.15.45-.21.743-.21.194 0 .414.013.608.023v-.234c0-.166-.044-.276-.114-.346-.103-.097-.27-.12-.493-.12-.27 0-.6.046-.781.09l-.083-.457c.24-.074.593-.12.913-.12.347 0 .637.046.834.216.174.144.27.374.27.707v1.911h-.403v-.003Zm-.144-1.244a5.626 5.626 0 0 0-.493-.017c-.404 0-.594.144-.594.45 0 .264.174.438.474.438.223 0 .45-.077.614-.204v-.667ZM65.451 35.154a1.183 1.183 0 0 1-.66.217c-.787 0-1.074-.51-1.074-1.425 0-1.04.323-1.47 1.094-1.47.413 0 .89.09 1.19.193v2.895c0 .3-.096.51-.253.66-.204.187-.524.24-.854.24-.313 0-.637-.046-.894-.096l.074-.467c.196.03.487.073.743.073.224 0 .427-.023.527-.127.074-.076.107-.193.107-.343v-.35Zm0-2.138a3.523 3.523 0 0 0-.587-.053c-.474 0-.594.323-.594.99 0 .624.127.967.587.967.204 0 .414-.043.594-.133v-1.771ZM68.57 35.147c-.247.114-.6.224-.961.224-.817 0-1.254-.51-1.254-1.431 0-.764.347-1.464 1.194-1.464.674 0 1.064.48 1.064 1.224 0 .15-.017.3-.043.42h-1.665c.014.247.074.444.187.57.127.137.323.194.554.194.287 0 .57-.077.797-.174l.127.437Zm-.474-1.46c0-.414-.12-.744-.564-.744-.403 0-.593.36-.617.743H68.1h-.003ZM72.278 35.31v-1.838c0-.346-.166-.503-.473-.503-.21 0-.434.073-.644.193.017.107.03.234.03.344v1.807h-.547v-1.837c0-.347-.163-.504-.467-.504-.223 0-.413.06-.617.167v2.174h-.547V32.54h.404l.046.253c.197-.15.48-.314.834-.314.33 0 .577.127.72.354.24-.197.534-.354.864-.354.618 0 .944.344.944 1.021v1.814h-.547v-.003ZM75.377 35.147c-.247.114-.6.224-.96.224-.818 0-1.255-.51-1.255-1.431 0-.764.347-1.464 1.194-1.464.674 0 1.064.48 1.064 1.224 0 .15-.017.3-.043.42h-1.664c.013.247.073.444.186.57.127.137.324.194.554.194.287 0 .57-.077.797-.174l.127.437Zm-.474-1.46c0-.414-.12-.744-.563-.744-.404 0-.594.36-.617.743h1.184-.004ZM77.508 35.31v-1.821c0-.354-.163-.524-.467-.524-.257 0-.487.084-.674.174v2.168h-.547v-2.775h.404l.047.253c.216-.167.517-.313.84-.313.63 0 .944.377.944.967v1.868h-.547v.003ZM80.06 35.19a1.494 1.494 0 0 1-.668.168c-.45 0-.707-.254-.707-.758v-1.614h-.413v-.403l.433-.024.044-.817h.487v.794h.773v.45h-.773v1.531c0 .204.036.347.246.347a.953.953 0 0 0 .404-.103l.18.426-.007.004Z"/><path d="M78.812 52H23.634a.59.59 0 1 1 0-1.181h55.178c12.38 0 22.453-10.073 22.453-22.453 0-12.38-10.072-22.453-22.453-22.453H35.454a.59.59 0 1 1 0-1.18h43.361c13.035 0 23.637 10.602 23.637 23.636 0 13.035-10.602 23.637-23.637 23.637L78.812 52Z"/><path d="M25.011 22.75c.17-2.665 2.355-4.78 5.016-4.78 2.662 0 4.843 2.115 5.017 4.78H25.01Zm4.23 11.91c-.711-2.091-2.399-3.192-3.82-4.12-1.577-1.026-2.238-1.56-2.268-2.547.01-1.351 1.084-2.458 2.405-2.458h8.762l-5.08 9.128v-.003Zm-6.781 7.944c.05.01.617.104 1.18.107.54 0 1.08-.083 1.178-.11l-1.178 2.115-1.18-2.112Zm-1.431-17.07a5.371 5.371 0 0 0-.607 2.392V28.016c.043 2.615 1.974 3.876 3.532 4.893 1.85 1.207 2.898 1.984 2.898 3.969 0 1.984-1.547 3.088-3.448 3.088-1.221 0-2.769-.657-3.386-1.74l-.547-.948-6.577-11.74h8.132l.003-.003Zm-3.662-7.564c2.661 0 4.846 2.115 5.016 4.78H12.357c.17-2.665 2.355-4.78 5.013-4.78m12.657-2.661c-2.581 0-4.91 1.284-6.327 3.458-1.417-2.174-3.745-3.458-6.327-3.458-4.275 0-7.754 3.492-7.754 7.78v.791c0 .75.087 1.421.68 2.445l13.348 23.02s12.664-21.863 13.291-23.02c.627-1.16.727-1.658.727-2.445v-.79c0-4.29-3.422-7.781-7.631-7.781M18.837 4.132c-.847 0-1.66.277-2.267.68V0h-1.895v13.03h1.114l.307-.7c.744.557 1.607.904 2.745.904 2.468 0 3.382-1.7 3.382-4.552 0-2.852-.914-4.55-3.382-4.55m-.444 1.651c1.661 0 1.915 1.301 1.915 2.899 0 1.597-.254 2.905-1.915 2.905-.894 0-1.487-.317-1.827-.507V6.284c.336-.194.93-.504 1.827-.504m6.224 1.057c0-.784.627-1.077 1.628-1.077 1.063 0 1.864.207 2.588.487V4.559c-.66-.293-1.475-.433-2.625-.433-2.488 0-3.436 1.267-3.436 2.761 0 1.495.628 2.308 3.182 2.538 1.134.1 1.404.43 1.404 1.074 0 .764-.66 1.081-2.014 1.081-1.067 0-1.964-.28-2.521-.487v1.664c.573.24 1.624.467 2.794.467 2.709 0 3.606-1.3 3.606-2.795 0-1.614-.66-2.398-3.199-2.621-1.1-.104-1.407-.367-1.407-.974m7.61 6.307c.204 0 .374-.037.374-.037v-1.577c-.543 0-.71-.177-.71-.66V4.342h-1.894v6.55c0 1.49.697 2.258 2.234 2.258M29.714 1.768c0 .697.557 1.267 1.234 1.267.677 0 1.237-.57 1.237-1.267S31.625.5 30.948.5s-1.234.57-1.234 1.268Z"/><path d="M23.637 52C10.603 52 0 41.397 0 28.363c0-8.398 4.306-15.986 11.513-20.295a.591.591 0 0 1 .607 1.014C5.27 13.178 1.18 20.385 1.18 28.363c0 12.38 10.073 22.453 22.454 22.453 12.38 0 22.453-10.073 22.453-22.453 0-7.978-4.09-15.185-10.94-19.281a.591.591 0 0 1 .607-1.014c7.21 4.313 11.513 11.9 11.513 20.295C47.267 41.397 36.664 52 23.63 52h.007Z"/></g><defs><clipPath id="a"><path d="M0 0h102.449v52H0z"/></clipPath></defs></svg>
