<svg xmlns="http://www.w3.org/2000/svg" width="103" height="52" fill="#fff"><g clip-path="url(#a)"><path d="M54.506 42.718c-.332.15-.798.253-1.23.253-.514 0-.996-.143-1.298-.547-.255-.337-.369-.824-.369-1.447 0-.72.164-1.251.496-1.585.326-.323.772-.407 1.261-.407.345 0 .694.044.996.104l-.054.63a6.115 6.115 0 0 0-.868-.06c-.302 0-.61.047-.785.254-.204.233-.265.607-.265 1.07 0 .39.044.72.181.954.168.277.46.367.778.367.319 0 .67-.09.96-.18l.197.6v-.006ZM54.868 42.91v-3.868h2.415v.66h-1.654v.9h1.372v.648H55.63v.997h1.653v.66h-2.415v.004ZM59.75 42.91c-.278-.51-.52-.99-.747-1.493-.168 0-.4-.007-.544-.017v1.514h-.76v-3.842a11.55 11.55 0 0 1 1.223-.077c.798 0 1.54.194 1.54 1.194 0 .54-.225.937-.742 1.13.225.458.567 1.045.906 1.598h-.875v-.006Zm-1.29-2.06c.345 0 .62 0 .821-.06.278-.077.41-.247.41-.594 0-.464-.333-.547-.708-.547-.175 0-.362.007-.527.017v1.184h.003ZM61.635 42.91v-3.208h-1.05v-.66h2.86v.66h-1.049v3.209h-.761ZM63.727 42.91v-3.868h.762v3.869h-.762ZM65.116 42.91v-3.868h2.468v.66h-1.71v.968h1.411v.647h-1.411v1.59h-.762l.004.004ZM67.946 42.91v-3.868h.76v3.869h-.76ZM69.334 42.91v-3.868h2.414v.66h-1.653v.9h1.372v.648h-1.372v.997h1.653v.66h-2.414v.004ZM72.164 39.092c.4-.06.852-.104 1.214-.104 1.314 0 1.774.684 1.774 1.981 0 1.298-.46 1.988-1.774 1.988-.362 0-.815-.016-1.214-.06v-3.809.004Zm.761 3.195c.165.013.248.013.386.013.858 0 1.07-.367 1.07-1.327 0-.907-.212-1.321-1.07-1.321-.138 0-.258.007-.386.017v2.618ZM51.971 14.632v-4.94h.741v4.94h-.74ZM53.497 13.941a7.68 7.68 0 0 0 1.173.107c.433 0 .832-.06 1.057-.277a.668.668 0 0 0 .208-.507c0-.484-.302-.644-1.157-.897-.855-.247-1.402-.597-1.402-1.434 0-.414.178-.75.48-.98.338-.261.77-.338 1.227-.338.456 0 .939.07 1.371.154l-.094.613a6.933 6.933 0 0 0-1.15-.106c-.338 0-.664.036-.855.176a.534.534 0 0 0-.231.46c0 .508.392.651 1.21.898.802.247 1.348.583 1.348 1.45 0 .46-.177.838-.5 1.091-.348.277-.84.36-1.364.36-.486 0-.986-.07-1.412-.146l.094-.62-.003-.004ZM57.031 12.16c0-1.67.64-2.545 2.143-2.545 1.502 0 2.142.874 2.142 2.545 0 1.671-.64 2.545-2.142 2.545-1.502 0-2.143-.874-2.143-2.545Zm3.531 0c0-1.304-.392-1.888-1.388-1.888-.996 0-1.389.584-1.389 1.888 0 1.304.393 1.888 1.389 1.888s1.388-.584 1.388-1.888ZM65.837 12.614c-.262.177-.678.307-1.117.307-.486 0-.932-.13-1.21-.43-.255-.26-.386-.66-.386-1.221 0-.53.13-.927.392-1.197.292-.314.795-.46 1.358-.46.493 0 .943.113 1.234.36.309.266.47.683.47 1.25v1.835c0 .567-.161.98-.48 1.257-.315.277-.784.39-1.348.39-.463 0-.956-.07-1.371-.153l.094-.614c.261.053.717.123 1.156.123.403 0 .772-.053.973-.26.16-.16.238-.42.238-.797v-.39h-.003Zm0-1.35c0-.675-.255-1.005-.98-1.005-.724 0-.979.33-.979 1.004 0 .344.06.607.225.774.171.183.44.237.754.237.37 0 .725-.083.98-.177v-.837.003ZM67.118 12.16c0-1.658.348-2.545 1.797-2.545 1.448 0 1.787.89 1.787 2.545 0 1.654-.349 2.545-1.787 2.545-1.439 0-1.797-.897-1.797-2.545Zm2.846 0c0-1.174-.07-1.901-1.05-1.901-.978 0-1.055.727-1.055 1.901s.06 1.911 1.056 1.911 1.05-.744 1.05-1.911ZM71.235 12.16c0-1.658.349-2.545 1.797-2.545 1.45 0 1.788.89 1.788 2.545 0 1.654-.349 2.545-1.787 2.545-1.439 0-1.798-.897-1.798-2.545Zm2.847 0c0-1.174-.07-1.901-1.05-1.901-.979 0-1.056.727-1.056 1.901s.06 1.911 1.056 1.911 1.05-.744 1.05-1.911ZM76.117 14.632v-4.195l-1.032.39-.225-.5 1.328-.638h.67v4.94h-.74v.003ZM54.325 21.816c-.815-.473-1.472-.647-1.982-1.004-.405-.283-.717-.72-.717-1.777 0-1.308.503-1.995 1.683-1.995 1.18 0 1.677.684 1.677 1.995 0 .637-.138 1.123-.416 1.447-.272.317-.731.437-1.133.45v.014a4.58 4.58 0 0 1 1.133.36l-.248.51h.003Zm.074-2.781c0-1.021-.309-1.478-1.087-1.478s-1.093.457-1.093 1.478c0 1.02.309 1.477 1.093 1.477.785 0 1.087-.457 1.087-1.477ZM57.169 20.97l-.044-.234c-.218.163-.513.3-.845.3-.627 0-.942-.377-.942-.967v-1.875h.55v1.821c0 .377.164.524.49.524.224 0 .438-.06.646-.157v-2.184h.55v2.775h-.405v-.004ZM59.757 20.97l-.06-.234a1.23 1.23 0 0 1-.815.293c-.573 0-.922-.377-.922-.87 0-.247.097-.494.295-.647.188-.15.453-.21.748-.21.194 0 .416.013.61.023v-.233c0-.167-.044-.277-.114-.347-.104-.097-.272-.12-.496-.12-.272 0-.604.046-.785.09l-.084-.457c.242-.074.597-.12.919-.12.349 0 .64.046.838.216.175.144.272.374.272.708v1.91h-.406v-.003Zm-.144-1.245a5.648 5.648 0 0 0-.496-.016c-.406 0-.597.143-.597.45 0 .263.174.437.476.437.225 0 .453-.077.617-.204v-.667ZM60.686 20.968V17.1h.55v3.868h-.55ZM62.057 17.083c.168 0 .309.137.309.307 0 .17-.138.3-.309.3a.298.298 0 0 1-.301-.3c0-.167.134-.307.301-.307Zm-.271 3.886v-2.775h.55v2.775h-.55ZM64.354 20.849c-.187.097-.429.167-.67.167-.453 0-.711-.254-.711-.757v-1.615h-.416v-.403l.436-.023.044-.818h.49v.794h.777v.45h-.778v1.531c0 .204.037.347.248.347a.962.962 0 0 0 .406-.103l.181.427-.007.003ZM65.116 22.06c.164-.428.295-.804.392-1.095h-.295c-.285-.767-.573-1.777-.828-2.775h.573c.188.818.392 1.598.634 2.342h.043c.225-.674.46-1.544.64-2.342h.56c-.308 1.284-.747 2.745-1.183 3.87h-.536ZM55.036 27.305c-.03-1.034-.077-2.094-.128-3.115h-.03l-.882 2.462h-.62l-.882-2.462h-.03c-.047 1.02-.097 2.085-.127 3.115h-.587c.043-1.284.107-2.574.18-3.869h.846l.895 2.565h.03l.896-2.565h.845c.073 1.291.137 2.582.18 3.87h-.586ZM57.782 27.306l-.06-.233a1.23 1.23 0 0 1-.815.293c-.573 0-.922-.377-.922-.87 0-.247.097-.494.295-.647.188-.15.453-.21.748-.21.194 0 .416.013.61.023v-.233c0-.167-.044-.277-.114-.347-.104-.097-.272-.12-.496-.12-.272 0-.604.046-.785.09l-.084-.457c.242-.074.597-.12.919-.12.349 0 .64.046.838.216.175.144.272.374.272.707v1.912h-.406v-.004Zm-.144-1.244a5.688 5.688 0 0 0-.496-.017c-.406 0-.597.144-.597.45 0 .264.174.438.476.438.225 0 .453-.077.617-.204v-.667ZM60.408 27.306v-1.821c0-.354-.165-.524-.47-.524-.258 0-.49.084-.677.174v2.168h-.55v-2.775h.406l.047.253c.218-.166.52-.313.845-.313.633 0 .949.377.949.967v1.868h-.55v.003ZM63.094 27.306l-.06-.233a1.23 1.23 0 0 1-.816.293c-.573 0-.922-.377-.922-.87 0-.247.098-.494.295-.647.188-.15.453-.21.748-.21.195 0 .416.013.61.023v-.233c0-.167-.043-.277-.114-.347-.104-.097-.271-.12-.496-.12-.271 0-.603.046-.785.09l-.083-.457c.241-.074.597-.12.919-.12.348 0 .64.046.838.216.174.144.271.374.271.707v1.912h-.405v-.004Zm-.145-1.244a5.685 5.685 0 0 0-.496-.017c-.406 0-.597.144-.597.45 0 .264.175.438.477.438.224 0 .452-.077.616-.204v-.667ZM65.635 27.149c-.194.133-.429.217-.664.217-.79 0-1.08-.51-1.08-1.424 0-1.038.326-1.471 1.1-1.471.416 0 .896.09 1.198.193v2.895c0 .3-.098.51-.255.66-.205.187-.527.24-.859.24-.315 0-.64-.046-.898-.096l.073-.467c.198.03.49.073.748.073.225 0 .43-.023.53-.126.074-.077.107-.194.107-.344v-.35Zm0-2.138a3.56 3.56 0 0 0-.59-.053c-.476 0-.597.323-.597.99 0 .624.128.967.59.967.205 0 .416-.043.597-.133v-1.771ZM68.727 27.142a2.42 2.42 0 0 1-.966.224c-.821 0-1.26-.51-1.26-1.431 0-.764.348-1.464 1.2-1.464.677 0 1.07.48 1.07 1.224 0 .15-.017.3-.044.42h-1.673c.013.247.073.444.188.57.127.137.325.194.556.194.288 0 .574-.077.802-.174l.127.437Zm-.476-1.46c0-.414-.12-.744-.567-.744-.406 0-.597.36-.62.743h1.19-.003ZM72.412 27.306v-1.838c0-.346-.168-.503-.476-.503-.211 0-.436.073-.647.193.017.107.03.234.03.344v1.808h-.55v-1.838c0-.347-.164-.504-.47-.504-.224 0-.415.06-.62.167v2.175h-.55v-2.775h.406l.047.253c.198-.15.483-.313.838-.313.332 0 .58.126.725.353.241-.197.536-.353.868-.353.62 0 .95.343.95 1.02v1.815h-.55v-.004ZM75.487 27.142a2.42 2.42 0 0 1-.966.224c-.821 0-1.26-.51-1.26-1.431 0-.764.348-1.464 1.2-1.464.677 0 1.07.48 1.07 1.224 0 .15-.017.3-.044.42h-1.673c.013.247.074.444.188.57.127.137.325.194.556.194.289 0 .574-.077.802-.174l.127.437Zm-.476-1.46c0-.414-.12-.744-.567-.744-.406 0-.597.36-.62.743h1.19-.003ZM77.586 27.306v-1.821c0-.354-.164-.524-.47-.524-.257 0-.489.084-.677.174v2.168h-.55v-2.775h.406l.047.253c.218-.166.52-.313.845-.313.634 0 .95.377.95.967v1.868h-.55v.003ZM80.108 27.186c-.188.097-.43.167-.67.167-.454 0-.712-.254-.712-.757V24.98h-.416v-.403l.436-.024.044-.817h.49v.794h.777v.45h-.778v1.531c0 .204.037.347.249.347a.962.962 0 0 0 .405-.103l.181.427-.006.003ZM51.79 33.102c.225.037.58.084.919.084.338 0 .65-.047.828-.217a.518.518 0 0 0 .164-.397c0-.377-.234-.503-.905-.704-.67-.193-1.1-.466-1.1-1.123a.93.93 0 0 1 .376-.768c.265-.203.603-.263.959-.263.355 0 .737.053 1.076.12l-.074.48a5.256 5.256 0 0 0-.898-.083c-.265 0-.52.03-.671.137a.419.419 0 0 0-.181.36c0 .397.308.51.949.703.627.194 1.056.457 1.056 1.134 0 .36-.137.654-.392.854-.272.217-.657.284-1.07.284-.379 0-.771-.053-1.103-.114l.074-.486h-.007ZM55.18 34.733c.164-.427.295-.804.392-1.094h-.295c-.285-.767-.573-1.778-.828-2.775h.574c.187.817.392 1.598.633 2.342h.044c.224-.674.46-1.545.64-2.342h.56c-.308 1.284-.747 2.745-1.183 3.87h-.537ZM57.095 33.132c.258.044.536.084.821.084.205 0 .4-.017.52-.104a.276.276 0 0 0 .134-.247c0-.223-.167-.293-.677-.427-.446-.113-.859-.293-.859-.823 0-.3.138-.517.363-.65.204-.128.469-.164.754-.164.285 0 .567.037.798.083l-.047.457a4.917 4.917 0 0 0-.687-.053c-.242 0-.406.023-.507.096a.239.239 0 0 0-.114.21c0 .224.225.27.778.434.49.144.761.36.761.804 0 .3-.12.517-.308.654-.225.163-.53.21-.852.21-.322 0-.65-.044-.928-.107l.053-.463-.003.006ZM60.897 33.523a1.51 1.51 0 0 1-.67.167c-.453 0-.711-.254-.711-.758v-1.614H59.1v-.403l.436-.024.044-.817h.49v.794h.777v.45h-.778v1.531c0 .204.037.347.248.347a.962.962 0 0 0 .406-.103l.181.426-.007.004ZM63.204 33.48a2.42 2.42 0 0 1-.965.223c-.822 0-1.261-.51-1.261-1.431 0-.764.349-1.464 1.2-1.464.678 0 1.07.48 1.07 1.224 0 .15-.017.3-.044.42h-1.673c.014.247.074.444.188.57.127.137.325.194.556.194.289 0 .574-.077.802-.174l.127.437Zm-.476-1.462c0-.413-.12-.743-.567-.743-.405 0-.596.36-.62.743h1.19-.003ZM66.89 33.643v-1.838c0-.346-.168-.503-.477-.503-.21 0-.436.073-.647.193.017.107.03.234.03.344v1.808h-.55v-1.838c0-.347-.164-.504-.469-.504-.225 0-.416.06-.62.167v2.175h-.55v-2.775h.405l.047.253c.198-.15.483-.314.839-.314.332 0 .58.127.724.354.241-.197.537-.354.868-.354.624 0 .95.344.95 1.021v1.815h-.55v-.004ZM67.845 33.132c.258.044.537.084.822.084.204 0 .399-.017.52-.104a.276.276 0 0 0 .133-.247c0-.223-.167-.293-.677-.427-.446-.113-.858-.293-.858-.823 0-.3.137-.517.362-.65.204-.128.47-.164.754-.164.285 0 .567.037.798.083l-.046.457a4.916 4.916 0 0 0-.688-.053c-.241 0-.406.023-.506.096a.239.239 0 0 0-.114.21c0 .224.224.27.778.434.49.144.76.36.76.804 0 .3-.12.517-.308.654-.224.163-.53.21-.851.21-.322 0-.65-.044-.93-.107l.055-.463-.004.006Z"/><path d="M79.236 52H23.76a.59.59 0 1 1 0-1.181h55.475c12.447 0 22.574-10.073 22.574-22.453 0-12.38-10.127-22.453-22.574-22.453H35.644a.59.59 0 1 1 0-1.18H79.24c13.105 0 23.764 10.602 23.764 23.636 0 13.035-10.66 23.637-23.764 23.637L79.236 52Z"/><path d="M25.146 22.75c.17-2.665 2.367-4.78 5.043-4.78s4.869 2.115 5.043 4.78H25.146Zm4.251 11.91c-.714-2.091-2.41-3.192-3.839-4.12-1.586-1.026-2.25-1.56-2.28-2.547.01-1.351 1.09-2.458 2.418-2.458h8.808l-5.107 9.128v-.003Zm-6.817 7.944c.05.01.62.104 1.187.107.544 0 1.087-.083 1.184-.11l-1.184 2.115-1.187-2.112Zm-1.438-17.07a5.346 5.346 0 0 0-.61 2.392V28.016c.043 2.615 1.985 3.876 3.55 4.893 1.862 1.207 2.915 1.984 2.915 3.969 0 1.984-1.556 3.088-3.468 3.088-1.227 0-2.783-.657-3.403-1.74l-.55-.948-6.613-11.74h8.176l.003-.003ZM17.46 17.97c2.676 0 4.872 2.115 5.043 4.78h-10.08c.172-2.665 2.368-4.78 5.04-4.78M30.19 15.31c-2.596 0-4.936 1.284-6.361 3.458-1.425-2.174-3.766-3.458-6.361-3.458-4.299 0-7.796 3.492-7.796 7.78v.791c0 .75.087 1.421.684 2.445l13.42 23.02s12.731-21.863 13.362-23.02c.63-1.16.73-1.658.73-2.445v-.79c0-4.29-3.44-7.781-7.671-7.781M18.939 4.132c-.852 0-1.67.277-2.28.68V0h-1.905v13.03h1.12l.309-.7c.747.557 1.616.904 2.76.904 2.48 0 3.4-1.7 3.4-4.552 0-2.852-.92-4.55-3.4-4.55m-.447 1.651c1.67 0 1.925 1.301 1.925 2.899 0 1.597-.255 2.905-1.925 2.905-.898 0-1.495-.317-1.837-.507V6.284a3.54 3.54 0 0 1 1.837-.504m6.257 1.057c0-.784.63-1.077 1.637-1.077 1.07 0 1.874.207 2.602.487V4.559c-.664-.293-1.482-.433-2.64-.433-2.5 0-3.453 1.267-3.453 2.761 0 1.495.63 2.308 3.199 2.538 1.14.1 1.412.43 1.412 1.074 0 .764-.664 1.081-2.026 1.081-1.073 0-1.975-.28-2.535-.487v1.664c.577.24 1.633.467 2.81.467 2.723 0 3.625-1.3 3.625-2.795 0-1.614-.664-2.398-3.216-2.621-1.106-.104-1.415-.367-1.415-.974m7.652 6.307a2 2 0 0 0 .376-.037v-1.577c-.547 0-.714-.177-.714-.66V4.342h-1.905v6.55c0 1.49.7 2.258 2.247 2.258M29.874 1.768c0 .697.56 1.267 1.24 1.267.681 0 1.244-.57 1.244-1.267S31.795.5 31.114.5c-.68 0-1.24.57-1.24 1.268Z"/><path d="M23.764 52C10.66 52 0 41.397 0 28.363c0-8.398 4.329-15.986 11.575-20.295a.596.596 0 0 1 .815.203.59.59 0 0 1-.205.811C5.298 13.178 1.188 20.385 1.188 28.363c0 12.38 10.127 22.453 22.574 22.453 12.447 0 22.573-10.073 22.573-22.453 0-7.978-4.11-15.185-10.998-19.281a.59.59 0 0 1-.205-.81.596.596 0 0 1 .815-.204c7.25 4.313 11.575 11.9 11.575 20.295C47.521 41.397 36.861 52 23.757 52h.007Z"/></g><defs><clipPath id="a"><path d="M0 0h103v52H0z"/></clipPath></defs></svg>
