<svg xmlns="http://www.w3.org/2000/svg" width="102" height="52" fill="#fff"><g clip-path="url(#a)"><path d="M53.977 42.718c-.329.15-.79.253-1.219.253-.508 0-.986-.143-1.285-.547-.252-.337-.365-.824-.365-1.447 0-.72.163-1.251.491-1.585.323-.323.764-.407 1.249-.407.342 0 .687.044.986.104l-.053.63a5.998 5.998 0 0 0-.86-.06c-.299 0-.604.047-.777.254-.203.233-.262.607-.262 1.07 0 .39.043.72.179.954.166.277.455.367.77.367.316 0 .664-.09.95-.18l.196.6v-.006ZM54.336 42.91v-3.868h2.39v.66H55.09v.9h1.358v.648H55.09v.997h1.637v.66h-2.39v.004ZM59.17 42.91c-.275-.51-.514-.99-.74-1.493-.166 0-.395-.007-.538-.017v1.514h-.754v-3.842a11.33 11.33 0 0 1 1.212-.077c.79 0 1.524.194 1.524 1.194 0 .54-.222.937-.733 1.13.222.458.56 1.045.896 1.598h-.867v-.006Zm-1.278-2.06c.342 0 .614 0 .813-.06.276-.077.406-.247.406-.594 0-.464-.33-.547-.701-.547-.173 0-.359.007-.521.017v1.184h.003ZM61.037 42.91v-3.208h-1.04v-.66h2.833v.66h-1.04v3.209h-.753ZM63.109 42.91v-3.868h.753v3.869h-.753ZM64.483 42.91v-3.868h2.444v.66h-1.693v.968h1.398v.647h-1.398v1.59h-.754l.003.004ZM67.286 42.91v-3.868h.754v3.869h-.754ZM68.66 42.91v-3.868h2.392v.66h-1.638v.9h1.359v.648h-1.358v.997h1.637v.66H68.66v.004ZM71.463 39.092c.396-.06.844-.104 1.203-.104 1.301 0 1.756.684 1.756 1.981 0 1.298-.455 1.988-1.757 1.988-.358 0-.806-.016-1.202-.06v-3.809.004Zm.754 3.195c.163.013.246.013.382.013.85 0 1.06-.367 1.06-1.327 0-.907-.21-1.321-1.06-1.321-.136 0-.256.007-.382.017v2.618ZM51.467 14.632v-4.94h.733v4.94h-.733ZM52.977 13.941c.283.047.734.107 1.163.107.428 0 .823-.06 1.046-.277a.67.67 0 0 0 .206-.507c0-.484-.3-.644-1.146-.897-.847-.247-1.388-.597-1.388-1.434 0-.414.176-.75.475-.98.335-.261.764-.338 1.215-.338.452 0 .93.07 1.358.154l-.093.613a6.802 6.802 0 0 0-1.139-.106c-.335 0-.657.036-.846.176a.535.535 0 0 0-.23.46c0 .508.389.651 1.2.898.793.247 1.334.583 1.334 1.45 0 .46-.176.838-.495 1.091-.345.277-.833.36-1.351.36a7.99 7.99 0 0 1-1.398-.146l.093-.62-.004-.004ZM56.477 12.16c0-1.67.635-2.545 2.122-2.545 1.488 0 2.122.874 2.122 2.545 0 1.671-.634 2.545-2.122 2.545-1.487 0-2.122-.874-2.122-2.545Zm3.497 0c0-1.304-.388-1.888-1.375-1.888-.986 0-1.374.584-1.374 1.888 0 1.304.388 1.888 1.374 1.888.987 0 1.375-.584 1.375-1.888ZM60.897 14.632l1.91-4.94h.594l-1.893 4.94h-.61ZM63.84 14.632v-4.94h.733v4.94h-.734ZM65.403 14.632v-4.94h2.926v.65h-2.192v1.418h1.793v.644h-1.793v1.57h2.192v.651h-2.926v.007ZM72.237 14.332a3.688 3.688 0 0 1-1.574.377c-.634 0-1.239-.19-1.604-.707-.305-.42-.458-1.034-.458-1.842 0-.86.193-1.487.541-1.917.405-.484 1-.63 1.65-.63.436 0 .894.06 1.276.146l-.07.62a6.644 6.644 0 0 0-1.162-.106c-.465 0-.893.1-1.153.443-.235.324-.335.797-.335 1.441 0 .597.076 1.057.282 1.38.236.378.635.508 1.063.508.475 0 .933-.137 1.335-.3l.206.583.003.004ZM51.374 22.637v-.584c1.358-1.187 2.327-2.118 2.327-2.938 0-.614-.458-.837-.97-.837-.428 0-.922.136-1.245.266l-.205-.583a3.706 3.706 0 0 1 1.504-.344c.986 0 1.664.497 1.664 1.474 0 1.074-1.076 2.002-2.122 2.892h2.191v.65h-3.144v.004ZM55.627 22.637c.429-1.658.953-2.885 1.734-4.296h-2.458v-.644h3.215v.607c-.777 1.404-1.305 2.632-1.704 4.333h-.787ZM58.506 20.165c0-1.658.346-2.545 1.78-2.545 1.435 0 1.77.89 1.77 2.545 0 1.654-.345 2.545-1.77 2.545-1.424 0-1.78-.898-1.78-2.545Zm2.82 0c0-1.174-.07-1.901-1.04-1.901s-1.046.727-1.046 1.9c0 1.175.06 1.912 1.046 1.912s1.04-.744 1.04-1.911ZM62.584 20.165c0-1.658.345-2.545 1.78-2.545 1.434 0 1.77.89 1.77 2.545 0 1.654-.346 2.545-1.77 2.545-1.425 0-1.78-.898-1.78-2.545Zm2.82 0c0-1.174-.07-1.901-1.04-1.901s-1.046.727-1.046 1.9c0 1.175.06 1.912 1.046 1.912s1.04-.744 1.04-1.911ZM67.419 22.636v-4.195l-1.023.39-.222-.5 1.315-.638h.664v4.94h-.734v.003ZM51.327 28.973v-3.868h.575v3.868h-.575ZM54.18 28.973v-1.821c0-.354-.163-.524-.465-.524-.256 0-.485.084-.671.174v2.168h-.545v-2.775h.402l.047.253c.215-.166.514-.313.836-.313.628 0 .94.377.94.967v1.868h-.544v.003ZM55.388 28.974v-2.325h-.405v-.403l.405-.024v-.3c0-.313.077-.527.216-.667.166-.163.412-.21.704-.21.133 0 .276.013.405.023l-.03.457c-.14-.013-.262-.013-.372-.013-.142 0-.245.017-.298.097-.067.073-.084.186-.084.36v.227h.605v.45h-.605v2.325h-.544l.003.003ZM57.879 29.034c-.389 0-.671-.107-.874-.307-.255-.247-.365-.647-.365-1.14 0-.494.106-.895.365-1.142.203-.196.485-.306.874-.306.388 0 .67.106.873.306.256.247.365.648.365 1.141 0 .494-.106.894-.365 1.14-.203.198-.485.308-.873.308Zm.687-1.448c0-.337-.053-.613-.196-.774-.106-.126-.276-.193-.491-.193-.216 0-.382.067-.492.193-.143.164-.196.437-.196.774s.053.617.196.774c.106.127.276.193.492.193a.653.653 0 0 0 .491-.193c.143-.157.196-.434.196-.774ZM59.48 28.974v-2.775h.404l.073.343h.024c.215-.313.471-.397.82-.397.066 0 .133 0 .239.014l-.037.497a2.116 2.116 0 0 0-.328-.023c-.233 0-.465.053-.651.21v2.13h-.545ZM64.497 28.973v-1.837c0-.347-.166-.504-.472-.504-.209 0-.432.073-.64.193.016.107.03.234.03.344v1.808h-.545v-1.838c0-.347-.163-.504-.465-.504-.223 0-.412.06-.615.167v2.175h-.544v-2.775h.402l.046.253c.196-.15.478-.313.83-.313.329 0 .575.126.718.353.239-.197.53-.353.86-.353.614 0 .94.343.94 1.02v1.815h-.545v-.004ZM67.157 28.973l-.06-.233c-.21.187-.498.293-.807.293-.568 0-.913-.377-.913-.87 0-.247.096-.494.292-.647.186-.15.448-.21.74-.21.193 0 .412.013.605.023v-.233c0-.167-.043-.277-.113-.347-.103-.097-.27-.12-.492-.12-.269 0-.597.046-.777.09l-.083-.457c.24-.074.591-.12.91-.12.346 0 .635.046.83.216.173.144.27.374.27.707v1.912h-.402v-.004Zm-.143-1.244a5.541 5.541 0 0 0-.492-.017c-.401 0-.59.144-.59.45 0 .264.172.438.47.438.223 0 .45-.077.612-.204v-.667ZM69.534 28.853a1.483 1.483 0 0 1-.664.167c-.448 0-.704-.254-.704-.757v-1.615h-.412v-.403l.432-.024.043-.817h.485v.794h.77v.45h-.77v1.531c0 .204.037.347.246.347a.945.945 0 0 0 .402-.103l.179.427-.007.003ZM70.085 25.088c.166 0 .306.137.306.307a.3.3 0 0 1-.306.3.296.296 0 0 1-.298-.3c0-.167.132-.307.298-.307Zm-.269 3.886v-2.776h.545v2.776h-.545ZM71.962 29.034c-.389 0-.671-.107-.874-.307-.255-.247-.365-.647-.365-1.14 0-.494.106-.895.365-1.142.203-.196.485-.306.874-.306.388 0 .67.106.873.306.256.247.365.648.365 1.141 0 .494-.106.894-.365 1.14-.203.198-.485.308-.873.308Zm.687-1.448c0-.337-.053-.613-.196-.774-.106-.126-.276-.193-.492-.193-.215 0-.381.067-.491.193-.143.164-.196.437-.196.774s.053.617.196.774c.106.127.276.193.492.193a.653.653 0 0 0 .491-.193c.143-.157.196-.434.196-.774ZM75.242 28.973v-1.821c0-.354-.162-.524-.465-.524-.255 0-.484.084-.67.174v2.168h-.545v-2.775h.402l.046.253c.216-.166.515-.313.837-.313.628 0 .94.377.94.967v1.868h-.545v.003ZM77.44 28.433a5.9 5.9 0 0 0 .91.084c.336 0 .645-.047.82-.217a.52.52 0 0 0 .163-.397c0-.377-.232-.503-.896-.703-.664-.194-1.09-.467-1.09-1.124 0-.324.137-.588.373-.768.262-.203.597-.263.95-.263.351 0 .73.053 1.065.12l-.073.48a5.147 5.147 0 0 0-.89-.083c-.262 0-.515.03-.664.137a.42.42 0 0 0-.18.36c0 .397.306.51.94.704.621.193 1.047.456 1.047 1.134 0 .36-.137.653-.39.853-.268.217-.65.284-1.058.284-.376 0-.764-.053-1.093-.113l.073-.488h-.006ZM82.332 28.81a2.379 2.379 0 0 1-.956.224c-.814 0-1.249-.51-1.249-1.431 0-.764.345-1.464 1.189-1.464.67 0 1.059.48 1.059 1.224 0 .15-.017.3-.043.42h-1.657c.013.247.073.444.186.57.126.137.322.194.551.194.286 0 .568-.077.794-.174l.126.437Zm-.472-1.46c0-.414-.12-.744-.56-.744-.403 0-.592.36-.615.743h1.179-.004ZM84.693 28.81a2.31 2.31 0 0 1-.943.224c-.724 0-1.189-.407-1.189-1.434 0-1.178.591-1.461 1.268-1.461.27 0 .538.03.764.083l-.046.457a4.268 4.268 0 0 0-.628-.053c-.531 0-.807.21-.807.96 0 .674.226.96.694.96.27 0 .522-.076.74-.173l.15.437h-.003ZM86.785 28.973l-.043-.233c-.216.163-.508.3-.837.3-.621 0-.933-.377-.933-.967v-1.875h.544v1.821c0 .377.163.524.485.524a1.5 1.5 0 0 0 .641-.157v-2.184h.545v2.774h-.402v-.003ZM87.728 28.974v-2.775h.405l.073.343h.023c.216-.313.472-.397.82-.397.067 0 .133 0 .24.014l-.037.497a2.118 2.118 0 0 0-.329-.023c-.232 0-.465.053-.65.21v2.13h-.545ZM89.76 25.088c.166 0 .306.137.306.307a.3.3 0 0 1-.306.3.296.296 0 0 1-.299-.3c0-.167.133-.307.3-.307Zm-.269 3.886v-2.776h.545v2.776h-.545ZM92.038 28.853a1.483 1.483 0 0 1-.664.167c-.448 0-.704-.254-.704-.757v-1.615h-.412v-.403l.432-.024.043-.817h.485v.794h.77v.45h-.77v1.531c0 .204.036.347.246.347a.945.945 0 0 0 .401-.103l.18.427-.007.003ZM92.792 30.064c.163-.427.292-.804.388-1.094h-.292c-.282-.767-.568-1.777-.82-2.775h.568c.186.817.388 1.598.627 2.342h.044c.222-.674.454-1.545.634-2.342h.554c-.305 1.284-.74 2.745-1.172 3.87h-.531ZM54.502 35.31a158.65 158.65 0 0 0-.127-3.115h-.03l-.873 2.462h-.614l-.873-2.462h-.03c-.047 1.02-.097 2.085-.127 3.115h-.58c.043-1.284.106-2.575.179-3.869h.837l.886 2.565h.03l.887-2.565h.836c.073 1.291.136 2.582.18 3.87h-.581ZM57.221 35.31l-.06-.233c-.209.187-.498.293-.806.293-.568 0-.914-.377-.914-.87 0-.247.097-.494.293-.647.185-.15.448-.21.74-.21.193 0 .412.013.604.023v-.234c0-.166-.043-.276-.113-.346-.102-.097-.269-.12-.49-.12a3.81 3.81 0 0 0-.778.09l-.083-.457c.24-.074.591-.12.91-.12.345 0 .634.046.83.216.173.144.269.374.269.707v1.911h-.402v-.003Zm-.143-1.244a5.577 5.577 0 0 0-.491-.017c-.402 0-.591.144-.591.45 0 .264.173.438.471.438.223 0 .449-.077.611-.204v-.667ZM59.821 35.31v-1.821c0-.354-.163-.524-.465-.524-.255 0-.485.084-.67.174v2.168h-.545v-2.775h.402l.046.253c.216-.167.515-.313.837-.313.628 0 .94.377.94.967v1.868h-.545v.003ZM62.481 35.31l-.06-.233c-.209.187-.498.293-.807.293-.567 0-.913-.377-.913-.87 0-.247.096-.494.292-.647.186-.15.449-.21.741-.21.192 0 .412.013.604.023v-.234c0-.166-.043-.276-.113-.346-.102-.097-.269-.12-.491-.12a3.81 3.81 0 0 0-.777.09l-.083-.457c.239-.074.591-.12.91-.12.345 0 .634.046.83.216.173.144.269.374.269.707v1.911h-.402v-.003Zm-.143-1.244a5.577 5.577 0 0 0-.491-.017c-.402 0-.591.144-.591.45 0 .264.172.438.471.438.223 0 .449-.077.611-.204v-.667ZM64.998 35.154a1.174 1.174 0 0 1-.657.217c-.784 0-1.07-.51-1.07-1.425 0-1.04.322-1.47 1.09-1.47.411 0 .886.09 1.185.193v2.895c0 .3-.096.51-.252.66-.203.187-.522.24-.85.24a4.78 4.78 0 0 1-.89-.096l.073-.467c.196.03.485.073.74.073.223 0 .425-.023.525-.127.073-.076.106-.193.106-.343v-.35Zm0-2.138a3.493 3.493 0 0 0-.584-.053c-.472 0-.591.323-.591.99 0 .624.126.967.584.967.203 0 .412-.043.591-.133v-1.771ZM68.06 35.147a2.379 2.379 0 0 1-.957.224c-.813 0-1.248-.51-1.248-1.431 0-.764.345-1.464 1.189-1.464.67 0 1.059.48 1.059 1.224 0 .15-.017.3-.043.42h-1.657c.013.247.073.444.186.57.126.137.322.194.55.194.287 0 .569-.077.795-.174l.126.437Zm-.472-1.46c0-.414-.12-.744-.561-.744-.402 0-.591.36-.614.743h1.178-.003ZM71.71 35.31v-1.838c0-.346-.167-.503-.472-.503-.21 0-.432.073-.641.193.016.107.03.234.03.344v1.807h-.545v-1.837c0-.347-.163-.504-.465-.504-.222 0-.412.06-.614.167v2.174h-.545V32.54h.402l.046.253c.197-.15.479-.314.83-.314.33 0 .575.127.718.354.239-.197.531-.354.86-.354.614 0 .94.344.94 1.021v1.814h-.545v-.003ZM74.754 35.147a2.379 2.379 0 0 1-.956.224c-.814 0-1.249-.51-1.249-1.431 0-.764.346-1.464 1.189-1.464.67 0 1.06.48 1.06 1.224 0 .15-.017.3-.044.42h-1.657c.013.247.073.444.186.57.126.137.322.194.551.194.286 0 .568-.077.794-.174l.126.437Zm-.471-1.46c0-.414-.12-.744-.562-.744-.401 0-.59.36-.614.743h1.179-.003ZM76.833 35.31v-1.821c0-.354-.163-.524-.465-.524-.256 0-.485.084-.67.174v2.168h-.545v-2.775h.401l.047.253c.216-.167.515-.313.837-.313.627 0 .94.377.94.967v1.868h-.545v.003ZM79.33 35.19a1.482 1.482 0 0 1-.664.168c-.448 0-.704-.254-.704-.758v-1.614h-.412v-.403l.432-.024.043-.817h.485v.794h.77v.45h-.77v1.531c0 .204.036.347.245.347a.945.945 0 0 0 .402-.103l.18.426-.007.004Z"/><path d="M78.467 52H23.53a.588.588 0 0 1-.588-.59c0-.327.263-.591.588-.591h54.937c12.326 0 22.354-10.073 22.354-22.453 0-12.38-10.028-22.453-22.354-22.453H35.298a.588.588 0 0 1-.587-.59c0-.327.262-.59.587-.59H78.47c12.977 0 23.533 10.602 23.533 23.636 0 13.035-10.556 23.637-23.533 23.637L78.467 52Z"/><path d="M24.901 22.75c.17-2.665 2.345-4.78 4.995-4.78s4.821 2.115 4.994 4.78H24.9Zm4.211 11.91c-.707-2.091-2.387-3.192-3.802-4.12-1.57-1.026-2.228-1.56-2.258-2.547.01-1.351 1.08-2.458 2.394-2.458h8.723l-5.057 9.128v-.003Zm-6.75 7.944c.049.01.614.104 1.175.107.538 0 1.076-.083 1.172-.11l-1.172 2.115-1.176-2.112Zm-1.425-17.07a5.389 5.389 0 0 0-.605 2.392V28.016c.043 2.615 1.966 3.876 3.517 4.893 1.843 1.207 2.886 1.984 2.886 3.969 0 1.984-1.541 3.088-3.434 3.088-1.215 0-2.756-.657-3.37-1.74l-.545-.948-6.548-11.74h8.095l.004-.003ZM17.29 17.97c2.65 0 4.824 2.115 4.994 4.78h-9.982c.17-2.665 2.344-4.78 4.99-4.78m12.603-2.661c-2.57 0-4.888 1.284-6.3 3.458-1.41-2.174-3.729-3.458-6.299-3.458-4.257 0-7.72 3.492-7.72 7.78v.791c0 .75.086 1.421.677 2.445l13.29 23.02s12.608-21.863 13.232-23.02c.624-1.16.724-1.658.724-2.445v-.79c0-4.29-3.407-7.781-7.598-7.781M18.755 4.132c-.843 0-1.654.277-2.258.68V0H14.61v13.03h1.109l.305-.7c.74.557 1.6.904 2.733.904 2.457 0 3.367-1.7 3.367-4.552 0-2.852-.91-4.55-3.367-4.55m-.441 1.651c1.653 0 1.906 1.301 1.906 2.899 0 1.597-.253 2.905-1.906 2.905-.89 0-1.481-.317-1.82-.507V6.284a3.48 3.48 0 0 1 1.82-.504m6.196 1.057c0-.784.624-1.077 1.62-1.077 1.06 0 1.857.207 2.577.487V4.559c-.657-.293-1.468-.433-2.613-.433-2.477 0-3.42 1.267-3.42 2.761 0 1.495.624 2.308 3.168 2.538 1.129.1 1.398.43 1.398 1.074 0 .764-.658 1.081-2.006 1.081-1.063 0-1.956-.28-2.51-.487v1.664c.57.24 1.617.467 2.782.467 2.697 0 3.59-1.3 3.59-2.795 0-1.614-.658-2.398-3.185-2.621-1.096-.104-1.401-.367-1.401-.974m7.578 6.307c.202 0 .371-.037.371-.037v-1.577c-.54 0-.707-.177-.707-.66V4.342H29.87v6.55c0 1.49.694 2.258 2.225 2.258m-2.51-11.383c0 .697.554 1.267 1.228 1.267.674 0 1.232-.57 1.232-1.267S31.486.5 30.812.5c-.674 0-1.229.57-1.229 1.268Z"/><path d="M23.533 52C10.556 52 0 41.397 0 28.363c0-8.398 4.287-15.986 11.463-20.295a.587.587 0 0 1 .807.203.593.593 0 0 1-.203.811C5.247 13.178 1.176 20.385 1.176 28.363c0 12.38 10.028 22.453 22.354 22.453 12.326 0 22.355-10.073 22.355-22.453 0-7.978-4.072-15.185-10.892-19.281a.593.593 0 0 1-.203-.81.587.587 0 0 1 .807-.204c7.18 4.313 11.463 11.9 11.463 20.295C47.06 41.397 36.504 52 23.527 52h.006Z"/></g><defs><clipPath id="a"><path d="M0 0h102v52H0z"/></clipPath></defs></svg>
