<svg viewBox="0 0 78 69" fill="currentColor"><path d="m71.723 38.95-3.465 5.51-3.457-5.51H47.076v16.332h5.326V48.61h6.647v-3.297h-6.647V42.46h7.783v-1.702l5.41 7.685v6.84h5.313v-6.84l6.671-9.493h-5.857Z"/><path d="m57.274 32.527-18.689-9.203s-1.682-.873-4.536-.873c-1.348 0-2.963.199-4.78.772l6.739-6.317c4.523-4.46 4.576-11.743.115-16.267L11.417 24.983v-13.4C11.467 5.23 6.352.045 0 0l.013 42.893v.057c-.03.466.005.803.005 1.275 0 6.994 3.306 13.212 8.439 17.183C16.044 67.461 23.449 69 29.017 69c5.567 0 9.533-1.637 9.533-1.637L51.66 60.03c-2.004-3.583-5.995-6.352-10.06-7.026a21.656 21.656 0 0 0 1.848-8.779c0-2.135-.31-4.199-.886-6.15 1.429.59 2.915.875 4.383.875 4.245 0 8.326-2.36 10.328-6.425m-35.542.915c5.947 0 10.783 4.838 10.783 10.783 0 5.945-4.836 10.783-10.783 10.783-5.947 0-10.783-4.838-10.783-10.783 0-5.945 4.838-10.783 10.783-10.783ZM38.339 8.786a10.344 10.344 0 0 1-3.09 7.33l-7.67 7.19a21.76 21.76 0 0 0-5.847-.797c-2.69 0-5.266.49-7.645 1.385L36.073 2.225A10.334 10.334 0 0 1 38.34 8.79m11.786 50.846L38.07 66.38c-1.293.54-4.77 1.526-9.053 1.526-3.176 0-6.335-.518-9.392-1.539a32.017 32.017 0 0 1-2.304-.875c1.426.294 2.9.45 4.413.45 8.462 0 15.795-4.84 19.378-11.904 3.453.473 6.966 2.643 9.018 5.597M30 24.141a14.576 14.576 0 0 1 4.051-.594c2.515 0 4.024.745 4.034.75l.01.005.01.005 17.658 8.695c-1.896 3.023-5.183 4.859-8.814 4.859-1.594 0-3.136-.36-4.577-1.069l-.282-.146a21.793 21.793 0 0 0-12.088-12.503"/><path d="M21.73 8.686c2.333 0 4.224-1.917 4.224-4.278 0-2.361-1.891-4.277-4.225-4.277-2.333 0-4.224 1.916-4.224 4.277s1.89 4.278 4.224 4.278Zm0-6.752c1.345 0 2.441 1.109 2.441 2.472s-1.094 2.472-2.442 2.472-2.441-1.11-2.441-2.472c0-1.363 1.093-2.472 2.441-2.472Z"/></svg>
